<?xml version="1.0" encoding="utf-8"?>
<!-- Generator: Adobe Illustrator 28.0.0, SVG Export Plug-In . SVG Version: 6.00 Build 0)  -->
<svg version="1.1" id="Capa_1" xmlns="http://www.w3.org/2000/svg" xmlns:xlink="http://www.w3.org/1999/xlink" x="0px" y="0px"
	 viewBox="0 0 1240 831" style="enable-background:new 0 0 1240 831;" xml:space="preserve">
<style type="text/css">
	.st0{fill:#F6F6F6;}
	.st1{fill:#114D74;}
	.st2{fill:#41C0F0;}
	.st3{fill:#FFFFFF;}
	.st4{font-family:'Roboto-Bold';}
	.st5{font-size:20px;}
	.st6{font-family:'Roboto-BoldItalic';}
	.st7{fill:#12263F;}
	.st8{font-size:16px;}
	.st9{fill:#D8F2FC;}
	.st10{font-family:'Roboto-Regular';}
	.st11{fill:none;stroke:#114D74;stroke-width:2;}
	.st12{fill:none;stroke:#114D74;stroke-width:2;stroke-linecap:round;}
</style>
<g id="Grupo_1118393" transform="translate(-180.333 -669)">
	<path id="Rectángulo_388651" class="st0" d="M200.3,669h1200c11,0,20,9,20,20v791c0,11-9,20-20,20h-1200c-11,0-20-9-20-20V689
		C180.3,678,189.3,669,200.3,669z"/>
	<path id="Rectángulo_34091" class="st1" d="M474.3,812h639.8c6.1,0,11,4.9,11,11v44c0,6.1-4.9,11-11,11H474.3c-6.1,0-11-4.9-11-11
		v-44C463.3,816.9,468.3,812,474.3,812z"/>
	<path id="Rectángulo_401217" class="st2" d="M216.3,956h129.5c6.1,0,11,4.9,11,11v33.1c0,6.1-4.9,11-11,11H216.3
		c-6.1,0-11-4.9-11-11V967C205.3,960.9,210.3,956,216.3,956z"/>
	<path id="Rectángulo_410378" class="st2" d="M380.6,956H510c6.1,0,11,4.9,11,11v33.1c0,6.1-4.9,11-11,11H380.6
		c-6.1,0-11-4.9-11-11V967C369.6,960.9,374.5,956,380.6,956z"/>
	<path id="Rectángulo_410379" class="st2" d="M541.6,956h129.5c6.1,0,11,4.9,11,11v33.1c0,6.1-4.9,11-11,11H541.6
		c-6.1,0-11-4.9-11-11V967C530.6,960.9,535.6,956,541.6,956z"/>
	<path id="Rectángulo_410380" class="st2" d="M702.3,956.1h129.5c6.1,0,11,4.9,11,11v33.1c0,6.1-4.9,11-11,11H702.3
		c-6.1,0-11-4.9-11-11v-33.1C691.3,961,696.3,956.1,702.3,956.1z"/>
	<path id="Rectángulo_410381" class="st2" d="M867.3,956.1h129.5c6.1,0,11,4.9,11,11v33.1c0,6.1-4.9,11-11,11H867.3
		c-6.1,0-11-4.9-11-11v-33.1C856.3,961,861.3,956.1,867.3,956.1z"/>
	<path id="Rectángulo_410382" class="st2" d="M1031.2,956.1h129.5c6.1,0,11,4.9,11,11v33.1c0,6.1-4.9,11-11,11h-129.5
		c-6.1,0-11-4.9-11-11v-33.1C1020.2,961,1025.2,956.1,1031.2,956.1z"/>
	<path id="Rectángulo_410383" class="st2" d="M1197.9,956.1h129.5c6.1,0,11,4.9,11,11v33.1c0,6.1-4.9,11-11,11h-129.5
		c-6.1,0-11-4.9-11-11v-33.1C1186.9,961,1191.9,956.1,1197.9,956.1z"/>
	<text transform="matrix(1 0 0 1 530.4542 843.2794)" class="st3 st4 st5">Medición, evaluación y aplicación práctica de la calidad de </text>
	<text transform="matrix(1 0 0 1 755.4052 870.2794)" class="st3 st6 st5">software</text>
	<text transform="matrix(1 0 0 1 227.159 991)" class="st7 st4 st8">Introducción</text>
	<text transform="matrix(1 0 0 1 412.5361 991)" class="st7 st4 st8">Modelos</text>
	<text transform="matrix(1 0 0 1 572.0838 991)" class="st7 st4 st8">Medidas</text>
	<text transform="matrix(1 0 0 1 722.4494 979.1)" class="st7 st4 st8">Requisitos y </text>
	<text transform="matrix(1 0 0 1 727.7314 999.1)" class="st7 st4 st8">evaluación</text>
	<text transform="matrix(1 0 0 1 903.8038 981.1602)" class="st7 st4 st8">Vistas y </text>
	<text transform="matrix(1 0 0 1 876.6828 1001.1602)" class="st7 st4 st8">documentación</text>
	<text transform="matrix(1 0 0 1 1062.9772 991.1)" class="st7 st4 st8">Aplicación</text>
	<text transform="matrix(1 0 0 1 1224.3047 991.1602)" class="st7 st4 st8">Integración</text>
	<path id="Trazado_909295" class="st9" d="M254.4,1102.5h98.5c2.2,0,4,0.8,4,1.9v40.9c0,1-1.8,1.9-4,1.9h-98.5c-2.2,0-4-0.8-4-1.9
		v-40.9C250.3,1103.4,252.1,1102.5,254.4,1102.5z"/>
	<path id="Trazado_912575" class="st9" d="M417.2,1102.5h118.6c2.7,0,4.9,0.8,4.9,1.9v40.9c0,1-2.2,1.9-4.9,1.9H417.2
		c-2.7,0-4.9-0.8-4.9-1.9v-40.9C412.4,1103.4,414.6,1102.5,417.2,1102.5z"/>
	<path id="Trazado_912586" class="st9" d="M1100.8,1102.5h118.6c2.7,0,4.9,0.8,4.9,1.9v40.9c0,1-2.2,1.9-4.9,1.9h-118.6
		c-2.7,0-4.9-0.8-4.9-1.9v-40.9C1096,1103.4,1098.2,1102.5,1100.8,1102.5z"/>
	<path id="Trazado_912584" class="st9" d="M926.4,1102.5H1045c2.7,0,4.9,0.8,4.9,1.9v40.9c0,1-2.2,1.9-4.9,1.9H926.4
		c-2.7,0-4.9-0.8-4.9-1.9v-40.9C921.5,1103.4,923.7,1102.5,926.4,1102.5z"/>
	<path id="Trazado_912589" class="st9" d="M1275.1,1102.5h118.6c2.7,0,4.9,0.8,4.9,1.9v40.9c0,1-2.2,1.9-4.9,1.9h-118.6
		c-2.7,0-4.9-0.8-4.9-1.9v-40.9C1270.2,1103.4,1272.4,1102.5,1275.1,1102.5z"/>
	<path id="Trazado_912582" class="st9" d="M760.3,1102.5h118.6c2.7,0,4.9,0.8,4.9,1.9v40.9c0,1-2.2,1.9-4.9,1.9H760.3
		c-2.7,0-4.9-0.8-4.9-1.9v-40.9C755.5,1103.4,757.6,1102.5,760.3,1102.5z"/>
	<path id="Trazado_912577" class="st9" d="M588.8,1102.5h118.6c2.7,0,4.9,0.8,4.9,1.9v40.9c0,1-2.2,1.9-4.9,1.9H588.8
		c-2.7,0-4.9-0.8-4.9-1.9v-40.9C583.9,1103.4,586.1,1102.5,588.8,1102.5z"/>
	<path id="Trazado_912579" class="st9" d="M588.8,1220.2h118.6c2.7,0,4.9,0.8,4.9,1.9v40.9c0,1-2.2,1.9-4.9,1.9H588.8
		c-2.7,0-4.9-0.8-4.9-1.9v-40.9C583.9,1221.1,586.1,1220.2,588.8,1220.2z"/>
	<path id="Trazado_912576" class="st9" d="M417.2,1161.4h118.6c2.7,0,4.9,0.8,4.9,1.9v40.9c0,1-2.2,1.9-4.9,1.9H417.2
		c-2.7,0-4.9-0.8-4.9-1.9v-40.9C412.4,1162.2,414.6,1161.4,417.2,1161.4z"/>
	<path id="Trazado_912587" class="st9" d="M1100.8,1161.4h118.6c2.7,0,4.9,0.8,4.9,1.9v40.9c0,1-2.2,1.9-4.9,1.9h-118.6
		c-2.7,0-4.9-0.8-4.9-1.9v-40.9C1096,1162.2,1098.2,1161.4,1100.8,1161.4z"/>
	<path id="Trazado_912588" class="st9" d="M1100.8,1218.2h118.6c2.7,0,4.9,0.8,4.9,1.9v40.9c0,1-2.2,1.9-4.9,1.9h-118.6
		c-2.7,0-4.9-0.8-4.9-1.9v-40.9C1096,1219.1,1098.2,1218.2,1100.8,1218.2z"/>
	<path id="Trazado_912585" class="st9" d="M926.4,1161.4H1045c2.7,0,4.9,0.8,4.9,1.9v40.9c0,1-2.2,1.9-4.9,1.9H926.4
		c-2.7,0-4.9-0.8-4.9-1.9v-40.9C921.5,1162.2,923.7,1161.4,926.4,1161.4z"/>
	<path id="Trazado_912583" class="st9" d="M760.5,1161.4h118.6c2.7,0,4.9,1.4,4.9,3v66.3c0,1.7-2.2,3-4.9,3H760.5
		c-2.7,0-4.9-1.4-4.9-3v-66.3C755.6,1162.7,757.8,1161.4,760.5,1161.4z"/>
	<path id="Trazado_912578" class="st9" d="M588.8,1161.4h118.6c2.7,0,4.9,0.8,4.9,1.9v40.9c0,1-2.2,1.9-4.9,1.9H588.8
		c-2.7,0-4.9-0.8-4.9-1.9v-40.9C583.9,1162.2,586.1,1161.4,588.8,1161.4z"/>
	<path id="Trazado_912580" class="st9" d="M588.8,1279.1h118.6c2.7,0,4.9,0.8,4.9,1.9v40.9c0,1-2.2,1.9-4.9,1.9H588.8
		c-2.7,0-4.9-0.8-4.9-1.9V1281C583.9,1279.9,586.1,1279.1,588.8,1279.1z"/>
	<path id="Trazado_912581" class="st9" d="M588.8,1337.9h118.6c2.7,0,4.9,0.8,4.9,1.9v40.9c0,1-2.2,1.9-4.9,1.9H588.8
		c-2.7,0-4.9-0.8-4.9-1.9v-40.9C583.9,1338.8,586.1,1337.9,588.8,1337.9z"/>
	<path id="Trazado_912058" class="st9" d="M254.4,1161.4h98.5c2.2,0,4,0.8,4,1.9v40.9c0,1-1.8,1.9-4,1.9h-98.5c-2.2,0-4-0.8-4-1.9
		v-40.9C250.3,1162.2,252.1,1161.4,254.4,1161.4z"/>
	<text transform="matrix(1 0 0 1 265.7234 1133.1742)" class="st7 st10 st8">Ventajas</text>
	<text transform="matrix(1 0 0 1 418.0804 1133.1742)" class="st7 st10 st8">-ISO/IEC 25010</text>
	<text transform="matrix(1 0 0 1 1108.9264 1133.9896)" class="st7 st10 st8">-Caso práctico</text>
	<text transform="matrix(1 0 0 1 960.9363 1133.014)" class="st7 st10 st8">-Vistas</text>
	<text transform="matrix(1 0 0 1 1324.8301 1133.014)" class="st7 st10 st8">Uso</text>
	<text transform="matrix(1 0 0 1 760.8414 1133.9896)" class="st7 st10 st8">-ISO/IEC 25030</text>
	<text transform="matrix(1 0 0 1 589.3116 1133.014)" class="st7 st10 st8">-ISO/IEC 25020</text>
	<text transform="matrix(1 0 0 1 589.3116 1250.717)" class="st7 st10 st8">-ISO/IEC 25022</text>
	<text transform="matrix(1 0 0 1 417.7814 1191.865)" class="st7 st10 st8">-ISO/IEC 25012</text>
	<text transform="matrix(1 0 0 1 1112.7001 1192.0255)" class="st7 st10 st8">-Comparación</text>
	<text transform="matrix(1 0 0 1 1125.1765 1248.8771)" class="st7 st10 st8">-Métricas</text>
	<text transform="matrix(1 0 0 1 947.052 1192.8409)" class="st7 st10 st8">-Requisitos</text>
	<text transform="matrix(1 0 0 1 759.53 1194.0374)" class="st7 st10 st8">-ISO/IEC 25040 </text>
	<text transform="matrix(1 0 0 1 784.136 1218.0374)" class="st7 st10 st8">– 25044    </text>
	<text transform="matrix(1 0 0 1 589.3116 1192.8409)" class="st7 st10 st8">-ISO/IEC 25021</text>
	<text transform="matrix(1 0 0 1 589.3116 1309.568)" class="st7 st10 st8">-ISO/IEC 25023</text>
	<text transform="matrix(1 0 0 1 589.3116 1368.42)" class="st7 st10 st8">-ISO/IEC 25024</text>
	<text transform="matrix(1 0 0 1 265.7238 1191.865)" class="st7 st10 st8">Divisiones</text>
	<path id="Trazado_909301" class="st11" d="M227.2,1011.7v172.6"/>
	<path id="Trazado_912598" class="st11" d="M388.9,1011.7v172.6"/>
	<path id="Trazado_912600" class="st11" d="M731.8,1011.7v185.8"/>
	<path id="Trazado_912601" class="st11" d="M897.8,1011.7v185.8"/>
	<path id="Trazado_912602" class="st11" d="M1072.4,1011.7v185.8"/>
	<path id="Trazado_912603" class="st11" d="M1246.8,1011.7v113.1"/>
	<path id="Trazado_912599" class="st11" d="M560.2,1011.7v348.5"/>
	<path id="Trazado_912590" class="st11" d="M767.3,877.1v54.8"/>
	<path id="Trazado_912591" class="st12" d="M280.8,931.6V956"/>
	<path id="Trazado_912592" class="st12" d="M445.6,931.6V956"/>
	<path id="Trazado_912593" class="st12" d="M606.4,931.6V956"/>
	<path id="Trazado_912594" class="st12" d="M767.3,931.6V956"/>
	<path id="Trazado_912595" class="st12" d="M932.1,931.6V956"/>
	<path id="Trazado_912596" class="st12" d="M1096,931.6V956"/>
	<path id="Trazado_912597" class="st12" d="M1262.9,931.6V956"/>
	<text transform="matrix(1 0 0 1 776.333 910.619)" class="st7 st10 st8"> Incluye:</text>
	<text transform="matrix(1 0 0 1 260.333 1081.641)" class="st7 st10 st8"> Incluye:</text>
	<text transform="matrix(1 0 0 1 412.391 1081.641)" class="st7 st10 st8"> Incluye:</text>
	<text transform="matrix(1 0 0 1 1095.979 1081.641)" class="st7 st10 st8"> Incluye:</text>
	<text transform="matrix(1 0 0 1 921.512 1081.641)" class="st7 st10 st8"> Incluye:</text>
	<text transform="matrix(1 0 0 1 1274.25 1081.641)" class="st7 st10 st8"> Incluye:</text>
	<text transform="matrix(1 0 0 1 755.451 1081.641)" class="st7 st10 st8"> Incluye:</text>
	<text transform="matrix(1 0 0 1 583.921 1081.641)" class="st7 st10 st8"> Incluye:</text>
	<line id="Línea_219" class="st12" x1="280.8" y1="931.5" x2="1262.8" y2="931.5"/>
	<line id="Línea_220" class="st12" x1="227.2" y1="1124.9" x2="250.8" y2="1124.9"/>
	<line id="Línea_222" class="st12" x1="388.9" y1="1124.9" x2="412.5" y2="1124.9"/>
	<line id="Línea_229" class="st12" x1="731.8" y1="1124.9" x2="755.5" y2="1124.9"/>
	<line id="Línea_231" class="st12" x1="897.8" y1="1124.9" x2="921.5" y2="1124.9"/>
	<line id="Línea_233" class="st12" x1="1072.4" y1="1124.9" x2="1096" y2="1124.9"/>
	<line id="Línea_235" class="st12" x1="1246.8" y1="1124.9" x2="1270.5" y2="1124.9"/>
	<line id="Línea_224" class="st12" x1="560.2" y1="1124.9" x2="583.9" y2="1124.9"/>
	<line id="Línea_221" class="st12" x1="227.2" y1="1183.7" x2="250.8" y2="1183.7"/>
	<line id="Línea_223" class="st12" x1="388.9" y1="1183.7" x2="412.5" y2="1183.7"/>
	<line id="Línea_230" class="st12" x1="731.8" y1="1199.4" x2="755.5" y2="1199.4"/>
	<line id="Línea_232" class="st12" x1="897.8" y1="1199.4" x2="921.5" y2="1199.4"/>
	<line id="Línea_234" class="st12" x1="1072.4" y1="1199.4" x2="1096" y2="1199.4"/>
	<line id="Línea_225" class="st12" x1="560.2" y1="1183.7" x2="583.9" y2="1183.7"/>
	<line id="Línea_226" class="st12" x1="560.2" y1="1243.2" x2="583.9" y2="1243.2"/>
	<line id="Línea_227" class="st12" x1="560.2" y1="1302.1" x2="583.9" y2="1302.1"/>
	<line id="Línea_228" class="st12" x1="560.2" y1="1360.9" x2="583.9" y2="1360.9"/>
</g>
</svg>
