<svg xmlns="http://www.w3.org/2000/svg" width="92.141" height="32.536" viewBox="0 0 92.141 32.536">
  <g id="Grupo_1118292" data-name="Grupo 1118292" transform="translate(-179.929 -505.768)">
    <path id="Trazado_912250" data-name="Trazado 912250" d="M549.737,111.191l-4.954-4.775a5,5,0,0,0-6.956,0,9.224,9.224,0,0,1-12.849,0,5,5,0,0,0-6.958,0,9.225,9.225,0,0,1-12.849,0,4.994,4.994,0,0,0-6.957,0,9.224,9.224,0,0,1-12.848,0,4.994,4.994,0,0,0-6.957,0,9.224,9.224,0,0,1-12.847,0l-4.952-4.774,2.944-3.055,4.953,4.774a4.994,4.994,0,0,0,6.956,0,9.222,9.222,0,0,1,12.847,0,5,5,0,0,0,6.957,0,9.223,9.223,0,0,1,12.847,0,5,5,0,0,0,6.958,0,9.224,9.224,0,0,1,12.848,0,4.994,4.994,0,0,0,6.958,0,9.224,9.224,0,0,1,12.848,0l4.955,4.775Z" transform="translate(-280.682 427.113)" fill="#f18b5e"/>
    <path id="Trazado_912251" data-name="Trazado 912251" d="M549.737,111.191l-4.954-4.775a5,5,0,0,0-6.956,0,9.224,9.224,0,0,1-12.849,0,5,5,0,0,0-6.958,0,9.225,9.225,0,0,1-12.849,0,4.994,4.994,0,0,0-6.957,0,9.224,9.224,0,0,1-12.848,0,4.994,4.994,0,0,0-6.957,0,9.224,9.224,0,0,1-12.847,0l-4.952-4.774,2.944-3.055,4.953,4.774a4.994,4.994,0,0,0,6.956,0,9.222,9.222,0,0,1,12.847,0,5,5,0,0,0,6.957,0,9.223,9.223,0,0,1,12.847,0,5,5,0,0,0,6.958,0,9.224,9.224,0,0,1,12.848,0,4.994,4.994,0,0,0,6.958,0,9.224,9.224,0,0,1,12.848,0l4.955,4.775Z" transform="translate(-280.611 407.179)" fill="#f18b5e"/>
  </g>
</svg>
