<svg xmlns="http://www.w3.org/2000/svg" width="65.999" height="65.999" viewBox="0 0 65.999 65.999">
  <g id="Grupo_1118397" data-name="Grupo 1118397" transform="translate(-192.052 -1056.107)">
    <circle id="Elipse_12941" data-name="Elipse 12941" cx="32.999" cy="32.999" r="32.999" transform="translate(192.052 1056.107)" fill="#41c0f0"/>
    <g id="Layer_5" data-name="Layer 5" transform="translate(203.982 1065.874)">
      <path id="Trazado_912933" data-name="Trazado 912933" d="M37.9,4H4.237A3.241,3.241,0,0,0,1,7.237V37.016a3.241,3.241,0,0,0,3.237,3.237H37.9a3.241,3.241,0,0,0,3.237-3.237V7.237A3.241,3.241,0,0,0,37.9,4ZM4.237,5.295H37.9a1.942,1.942,0,0,1,1.942,1.942v4.532H2.295V7.237A1.942,1.942,0,0,1,4.237,5.295ZM37.9,38.958H4.237a1.942,1.942,0,0,1-1.942-1.942V13.063H39.842V37.016A1.942,1.942,0,0,1,37.9,38.958Z" transform="translate(0 0)" fill="#114d74"/>
      <path id="Trazado_912934" data-name="Trazado 912934" d="M6.942,11.884A1.942,1.942,0,1,0,5,9.942a1.942,1.942,0,0,0,1.942,1.942Zm0-2.589a.647.647,0,1,1-.647.647A.647.647,0,0,1,6.942,9.295Z" transform="translate(-1.411 -1.411)" fill="#114d74"/>
      <path id="Trazado_912935" data-name="Trazado 912935" d="M13.942,11.884A1.942,1.942,0,1,0,12,9.942a1.942,1.942,0,0,0,1.942,1.942Zm0-2.589a.647.647,0,1,1-.647.647A.647.647,0,0,1,13.942,9.295Z" transform="translate(-3.879 -1.411)" fill="#114d74"/>
      <path id="Trazado_912936" data-name="Trazado 912936" d="M20.942,11.884A1.942,1.942,0,1,0,19,9.942a1.942,1.942,0,0,0,1.942,1.942Zm0-2.589a.647.647,0,1,1-.647.647A.647.647,0,0,1,20.942,9.295Z" transform="translate(-6.347 -1.411)" fill="#114d74"/>
      <path id="Trazado_912937" data-name="Trazado 912937" d="M54.942,11.884a1.91,1.91,0,0,0,.832-.194l.653.653.915-.915-.652-.653a1.91,1.91,0,0,0,.194-.832,1.942,1.942,0,1,0-1.942,1.942Zm0-2.589a.647.647,0,1,1-.647.647A.647.647,0,0,1,54.942,9.295Z" transform="translate(-18.337 -1.411)" fill="#114d74"/>
      <path id="Trazado_912938" data-name="Trazado 912938" d="M28.942,11.884H40.595a1.942,1.942,0,1,0,0-3.884H28.942a1.942,1.942,0,0,0,0,3.884Zm0-2.589H40.595a.647.647,0,0,1,0,1.295H28.942a.647.647,0,1,1,0-1.295Z" transform="translate(-9.169 -1.411)" fill="#114d74"/>
      <path id="Trazado_912939" data-name="Trazado 912939" d="M28.474,20a6.474,6.474,0,1,0,6.474,6.474A6.474,6.474,0,0,0,28.474,20ZM25.884,30.952v-.594a2.589,2.589,0,1,1,5.179,0v.594A5.137,5.137,0,0,1,25.884,30.952Zm1.295-5.773a1.295,1.295,0,1,1,1.295,1.295A1.295,1.295,0,0,1,27.179,25.179Zm5.152,4.738a3.89,3.89,0,0,0-1.985-2.96,2.589,2.589,0,1,0-3.746,0,3.89,3.89,0,0,0-1.985,2.96,5.179,5.179,0,1,1,7.715,0Z" transform="translate(-7.405 -5.642)" fill="#114d74"/>
      <path id="Trazado_912940" data-name="Trazado 912940" d="M19.219,44.48l-1.895-.289-.854-1.818a.647.647,0,0,0-1.172,0l-.854,1.818-1.895.289a.647.647,0,0,0-.366,1.092L13.574,47l-.33,2.02a.647.647,0,0,0,.952.671l1.687-.932,1.687.932a.647.647,0,0,0,.952-.671L18.194,47l1.391-1.424a.647.647,0,0,0-.366-1.092Zm-2.18,1.847a.647.647,0,0,0-.175.556l.168,1.027-.834-.461a.647.647,0,0,0-.627,0l-.834.461.168-1.027a.647.647,0,0,0-.175-.556l-.739-.757.991-.151a.647.647,0,0,0,.488-.365l.414-.882.414.882a.647.647,0,0,0,.488.365l.991.151Z" transform="translate(-3.879 -13.4)" fill="#114d74"/>
      <path id="Trazado_912941" data-name="Trazado 912941" d="M33.219,44.48l-1.895-.289-.854-1.818a.647.647,0,0,0-1.172,0l-.854,1.818-1.895.289a.647.647,0,0,0-.366,1.092L27.574,47l-.33,2.02a.647.647,0,0,0,.952.671l1.687-.932,1.687.932a.647.647,0,0,0,.952-.671L32.194,47l1.391-1.424a.647.647,0,0,0-.366-1.092Zm-2.18,1.847a.647.647,0,0,0-.175.556l.168,1.027-.834-.461a.647.647,0,0,0-.627,0l-.834.461.168-1.027a.647.647,0,0,0-.175-.556l-.739-.757.991-.151a.647.647,0,0,0,.488-.365l.414-.882.414.882a.647.647,0,0,0,.488.365l.991.151Z" transform="translate(-8.816 -13.4)" fill="#114d74"/>
      <path id="Trazado_912942" data-name="Trazado 912942" d="M47.219,44.48l-1.895-.289-.854-1.818a.647.647,0,0,0-1.172,0l-.854,1.818-1.895.289a.647.647,0,0,0-.366,1.092L41.574,47l-.33,2.02a.647.647,0,0,0,.952.671l1.687-.932,1.687.932a.647.647,0,0,0,.952-.671L46.194,47l1.391-1.424a.647.647,0,0,0-.366-1.092Zm-2.18,1.847a.647.647,0,0,0-.175.556l.168,1.027-.834-.461a.647.647,0,0,0-.627,0l-.834.461.168-1.027a.647.647,0,0,0-.175-.556l-.739-.757.991-.151a.647.647,0,0,0,.488-.365l.414-.882.414.882a.647.647,0,0,0,.488.365l.991.151Z" transform="translate(-13.753 -13.4)" fill="#114d74"/>
    </g>
  </g>
</svg>
