<svg xmlns="http://www.w3.org/2000/svg" width="1240" height="520.148" viewBox="0 0 1240 520.148">
  <g id="Grupo_1118316" data-name="Grupo 1118316" transform="translate(-180 -1234.76)">
    <rect id="Rectángulo_401217" data-name="Rectángulo 401217" width="143" height="69.148" transform="translate(180 1374.76)" fill="#2c86a7"/>
    <rect id="Rectángulo_409683" data-name="Rectángulo 409683" width="149" height="69.148" transform="translate(331 1374.76)" fill="#2c86a7"/>
    <rect id="Rectángulo_409684" data-name="Rectángulo 409684" width="149" height="69.148" transform="translate(488 1374.76)" fill="#2c86a7"/>
    <rect id="Rectángulo_409685" data-name="Rectángulo 409685" width="149" height="69.148" transform="translate(645.283 1374.76)" fill="#2c86a7"/>
    <rect id="Rectángulo_409690" data-name="Rectángulo 409690" width="346" height="69.148" transform="translate(627 1234.76)" fill="#b2e6f9"/>
    <rect id="Rectángulo_409686" data-name="Rectángulo 409686" width="149" height="69.148" transform="translate(800.283 1374.76)" fill="#2c86a7"/>
    <rect id="Rectángulo_409687" data-name="Rectángulo 409687" width="149" height="69.148" transform="translate(957.283 1374.76)" fill="#2c86a7"/>
    <rect id="Rectángulo_409688" data-name="Rectángulo 409688" width="149" height="69.148" transform="translate(1114.283 1374.76)" fill="#2c86a7"/>
    <rect id="Rectángulo_409689" data-name="Rectángulo 409689" width="149" height="69.148" transform="translate(1271 1374.76)" fill="#2c86a7"/>
    <path id="Trazado_913443" data-name="Trazado 913443" d="M14.365,12.949h-3.6L10.085,15H7.9L11.61,5.047h1.9L17.236,15H15.055Zm-3.042-1.661h2.488L12.56,7.563Zm6.405-.041A4.457,4.457,0,0,1,18.5,8.492a2.517,2.517,0,0,1,2.123-1.025,2.265,2.265,0,0,1,1.784.807V4.5h1.982V15H22.609l-.1-.786a2.325,2.325,0,0,1-1.9.923,2.511,2.511,0,0,1-2.1-1.029A4.6,4.6,0,0,1,17.728,11.247Zm1.976.144a2.912,2.912,0,0,0,.362,1.593,1.181,1.181,0,0,0,1.053.554,1.322,1.322,0,0,0,1.292-.772V9.846a1.3,1.3,0,0,0-1.278-.772Q19.7,9.073,19.7,11.391Zm9.625,3.746a3.631,3.631,0,0,1-2.649-1,3.548,3.548,0,0,1-1.022-2.659v-.191A4.468,4.468,0,0,1,26.088,9.3a3.161,3.161,0,0,1,1.22-1.354,3.425,3.425,0,0,1,1.8-.475,3.07,3.07,0,0,1,2.389.957,3.889,3.889,0,0,1,.872,2.714v.807h-4.71a1.835,1.835,0,0,0,.578,1.162,1.746,1.746,0,0,0,1.22.438,2.132,2.132,0,0,0,1.784-.827l.971,1.087a2.966,2.966,0,0,1-1.2.981A3.947,3.947,0,0,1,29.329,15.137ZM29.1,9.066a1.237,1.237,0,0,0-.954.4,2.048,2.048,0,0,0-.468,1.135h2.748V10.44a1.46,1.46,0,0,0-.355-1.015A1.277,1.277,0,0,0,29.1,9.066Zm7.465,4.478a1.3,1.3,0,0,0,.889-.3,1.054,1.054,0,0,0,.355-.8h1.853a2.534,2.534,0,0,1-.41,1.377,2.706,2.706,0,0,1-1.1.971,3.455,3.455,0,0,1-1.548.345,3.211,3.211,0,0,1-2.5-1.008,3.99,3.99,0,0,1-.916-2.786v-.13a3.944,3.944,0,0,1,.909-2.728,3.174,3.174,0,0,1,2.5-1.019,3.111,3.111,0,0,1,2.225.79,2.8,2.8,0,0,1,.851,2.1H37.812a1.346,1.346,0,0,0-.355-.933,1.324,1.324,0,0,0-1.945.144,2.908,2.908,0,0,0-.352,1.63V11.4a2.945,2.945,0,0,0,.349,1.641A1.205,1.205,0,0,0,36.568,13.544Zm8.654.7a2.477,2.477,0,0,1-2.023.889,2.337,2.337,0,0,1-1.815-.684,2.918,2.918,0,0,1-.639-2V7.6H42.72v4.778q0,1.155,1.053,1.155a1.427,1.427,0,0,0,1.381-.7V7.6h1.982V15H45.277Zm7.69.752a2.194,2.194,0,0,1-.2-.663,2.39,2.39,0,0,1-1.866.8,2.626,2.626,0,0,1-1.8-.629,2.023,2.023,0,0,1-.714-1.586,2.09,2.09,0,0,1,.872-1.8,4.3,4.3,0,0,1,2.519-.636h.909v-.424a1.219,1.219,0,0,0-.263-.82,1.035,1.035,0,0,0-.831-.308,1.177,1.177,0,0,0-.783.239.813.813,0,0,0-.284.656H48.5a1.984,1.984,0,0,1,.4-1.189,2.621,2.621,0,0,1,1.121-.858,4.086,4.086,0,0,1,1.627-.311,3.228,3.228,0,0,1,2.17.687,2.4,2.4,0,0,1,.8,1.931v3.206a3.536,3.536,0,0,0,.294,1.593V15Zm-1.634-1.374a1.7,1.7,0,0,0,.807-.195,1.28,1.28,0,0,0,.547-.523V11.637h-.738q-1.483,0-1.579,1.025l-.007.116a.791.791,0,0,0,.26.608A1.009,1.009,0,0,0,51.279,13.626Zm7.93-.082a1.3,1.3,0,0,0,.889-.3,1.054,1.054,0,0,0,.355-.8h1.853a2.534,2.534,0,0,1-.41,1.377,2.706,2.706,0,0,1-1.1.971,3.455,3.455,0,0,1-1.548.345,3.211,3.211,0,0,1-2.5-1.008,3.99,3.99,0,0,1-.916-2.786v-.13a3.944,3.944,0,0,1,.909-2.728,3.174,3.174,0,0,1,2.5-1.019,3.111,3.111,0,0,1,2.225.79,2.8,2.8,0,0,1,.851,2.1H60.453a1.346,1.346,0,0,0-.355-.933,1.324,1.324,0,0,0-1.945.144A2.908,2.908,0,0,0,57.8,11.2V11.4a2.945,2.945,0,0,0,.349,1.641A1.205,1.205,0,0,0,59.208,13.544ZM65.518,15H63.536V7.6h1.982Zm-2.1-9.311a.973.973,0,0,1,.3-.731,1.281,1.281,0,0,1,1.617,0,.967.967,0,0,1,.3.731.97.97,0,0,1-.3.738,1.267,1.267,0,0,1-1.606,0A.97.97,0,0,1,63.419,5.689Zm3.418,5.544a4.387,4.387,0,0,1,.424-1.962,3.1,3.1,0,0,1,1.22-1.333,3.56,3.56,0,0,1,1.849-.472,3.368,3.368,0,0,1,2.444.916,3.676,3.676,0,0,1,1.056,2.488l.014.506a3.866,3.866,0,0,1-.95,2.731,3.683,3.683,0,0,1-5.1,0,3.934,3.934,0,0,1-.954-2.789Zm1.976.144a2.757,2.757,0,0,0,.4,1.61,1.426,1.426,0,0,0,2.256.007,3.017,3.017,0,0,0,.4-1.76,2.73,2.73,0,0,0-.4-1.6,1.312,1.312,0,0,0-1.135-.567,1.29,1.29,0,0,0-1.121.564A3.068,3.068,0,0,0,68.813,11.377ZM70.72,4.5h2.153L70.98,6.619H69.374Zm6.159,3.1.062.854a2.582,2.582,0,0,1,2.126-.991,2.146,2.146,0,0,1,1.75.69,3.221,3.221,0,0,1,.588,2.064V15H79.429V10.27a1.282,1.282,0,0,0-.273-.913,1.224,1.224,0,0,0-.909-.284A1.359,1.359,0,0,0,77,9.784V15H75.02V7.6ZM21.286,30.933H17.349V35H15.3V25.047h6.48v1.661h-4.43v2.57h3.938Zm5.831,3.315a2.477,2.477,0,0,1-2.023.889,2.337,2.337,0,0,1-1.815-.684,2.918,2.918,0,0,1-.639-2V27.6h1.976v4.778q0,1.155,1.053,1.155a1.427,1.427,0,0,0,1.381-.7V27.6h1.982V35H27.172ZM32.34,27.6l.062.854a2.582,2.582,0,0,1,2.126-.991,2.146,2.146,0,0,1,1.75.69,3.221,3.221,0,0,1,.588,2.064V35H34.89V30.27a1.282,1.282,0,0,0-.273-.913,1.224,1.224,0,0,0-.909-.284,1.359,1.359,0,0,0-1.251.711V35H30.48V27.6Zm9.1,5.94a1.3,1.3,0,0,0,.889-.3,1.054,1.054,0,0,0,.355-.8h1.853a2.534,2.534,0,0,1-.41,1.377,2.706,2.706,0,0,1-1.1.971,3.455,3.455,0,0,1-1.548.345,3.211,3.211,0,0,1-2.5-1.008,3.99,3.99,0,0,1-.916-2.786v-.13a3.944,3.944,0,0,1,.909-2.728,3.174,3.174,0,0,1,2.5-1.019,3.111,3.111,0,0,1,2.225.79,2.8,2.8,0,0,1,.851,2.1H42.683a1.346,1.346,0,0,0-.355-.933,1.324,1.324,0,0,0-1.945.144,2.908,2.908,0,0,0-.352,1.63V31.4a2.945,2.945,0,0,0,.349,1.641A1.205,1.205,0,0,0,41.438,33.544ZM47.748,35H45.766V27.6h1.982Zm-2.1-9.311a.973.973,0,0,1,.3-.731,1.281,1.281,0,0,1,1.617,0,1.044,1.044,0,0,1,0,1.47,1.267,1.267,0,0,1-1.606,0A.97.97,0,0,1,45.649,25.689Zm3.418,5.544a4.387,4.387,0,0,1,.424-1.962,3.1,3.1,0,0,1,1.22-1.333,3.56,3.56,0,0,1,1.849-.472A3.368,3.368,0,0,1,55,28.383a3.676,3.676,0,0,1,1.056,2.488l.014.506a3.866,3.866,0,0,1-.95,2.731,3.683,3.683,0,0,1-5.1,0,3.934,3.934,0,0,1-.954-2.789Zm1.976.144a2.757,2.757,0,0,0,.4,1.61,1.426,1.426,0,0,0,2.256.007,3.017,3.017,0,0,0,.4-1.76,2.73,2.73,0,0,0-.4-1.6,1.312,1.312,0,0,0-1.135-.567,1.29,1.29,0,0,0-1.121.564A3.068,3.068,0,0,0,51.043,31.377ZM59.109,27.6l.062.854a2.582,2.582,0,0,1,2.126-.991,2.146,2.146,0,0,1,1.75.69,3.221,3.221,0,0,1,.588,2.064V35H61.659V30.27a1.282,1.282,0,0,0-.273-.913,1.224,1.224,0,0,0-.909-.284,1.359,1.359,0,0,0-1.251.711V35H57.25V27.6ZM69.418,35a2.194,2.194,0,0,1-.2-.663,2.39,2.39,0,0,1-1.866.8,2.626,2.626,0,0,1-1.8-.629,2.023,2.023,0,0,1-.714-1.586,2.09,2.09,0,0,1,.872-1.8,4.3,4.3,0,0,1,2.519-.636h.909v-.424a1.219,1.219,0,0,0-.263-.82,1.035,1.035,0,0,0-.831-.308,1.177,1.177,0,0,0-.783.239.813.813,0,0,0-.284.656H65a1.985,1.985,0,0,1,.4-1.189,2.621,2.621,0,0,1,1.121-.858,4.086,4.086,0,0,1,1.627-.311,3.228,3.228,0,0,1,2.17.687,2.4,2.4,0,0,1,.8,1.931v3.206a3.536,3.536,0,0,0,.294,1.593V35Zm-1.634-1.374a1.7,1.7,0,0,0,.807-.195,1.28,1.28,0,0,0,.547-.523V31.637H68.4q-1.483,0-1.579,1.025l-.007.116a.791.791,0,0,0,.26.608A1.009,1.009,0,0,0,67.784,33.626ZM74.723,35H72.74V24.5h1.982Z" transform="translate(201.551 1391.306)" fill="#fff"/>
    <path id="Trazado_913436" data-name="Trazado 913436" d="M12.74,10.687H8.8v2.666h4.621V15H6.751V5.047H13.41V6.708H8.8V9.08H12.74ZM14.975,15V9.053h-1.1V7.6h1.1V7.262a2.774,2.774,0,0,1,.858-2.15,3.452,3.452,0,0,1,2.382-.755,7.9,7.9,0,0,1,2.242.4L20.17,6.394a8.748,8.748,0,0,0-1.039-.256,5.105,5.105,0,0,0-.793-.058q-1.381,0-1.381,1.224v.3h1.456V9.053H16.958V15Zm6.405,0H19.4V7.6H21.38Zm4.71-1.456a1.3,1.3,0,0,0,.889-.3,1.054,1.054,0,0,0,.355-.8h1.853a2.534,2.534,0,0,1-.41,1.377,2.706,2.706,0,0,1-1.1.971,3.455,3.455,0,0,1-1.548.345,3.211,3.211,0,0,1-2.5-1.008,3.99,3.99,0,0,1-.916-2.786v-.13a3.944,3.944,0,0,1,.909-2.728,3.174,3.174,0,0,1,2.5-1.019,3.111,3.111,0,0,1,2.225.79,2.8,2.8,0,0,1,.851,2.1H27.334a1.346,1.346,0,0,0-.355-.933,1.324,1.324,0,0,0-1.945.144,2.908,2.908,0,0,0-.352,1.63V11.4a2.945,2.945,0,0,0,.349,1.641A1.205,1.205,0,0,0,26.09,13.544ZM32.4,15H30.417V7.6H32.4ZM30.3,5.689a.973.973,0,0,1,.3-.731,1.281,1.281,0,0,1,1.617,0,.967.967,0,0,1,.3.731.97.97,0,0,1-.3.738,1.267,1.267,0,0,1-1.606,0A.97.97,0,0,1,30.3,5.689Zm7.13,9.447a3.631,3.631,0,0,1-2.649-1,3.548,3.548,0,0,1-1.022-2.659v-.191A4.468,4.468,0,0,1,34.191,9.3a3.161,3.161,0,0,1,1.22-1.354,3.425,3.425,0,0,1,1.8-.475,3.07,3.07,0,0,1,2.389.957,3.889,3.889,0,0,1,.872,2.714v.807h-4.71a1.835,1.835,0,0,0,.578,1.162,1.746,1.746,0,0,0,1.22.438,2.132,2.132,0,0,0,1.784-.827l.971,1.087a2.966,2.966,0,0,1-1.2.981A3.947,3.947,0,0,1,37.431,15.137Zm-.226-6.07a1.237,1.237,0,0,0-.954.4,2.048,2.048,0,0,0-.468,1.135h2.748V10.44a1.46,1.46,0,0,0-.355-1.015A1.277,1.277,0,0,0,37.206,9.066ZM43.413,7.6l.062.854A2.582,2.582,0,0,1,45.6,7.467a2.146,2.146,0,0,1,1.75.69,3.221,3.221,0,0,1,.588,2.064V15H45.962V10.27a1.282,1.282,0,0,0-.273-.913,1.224,1.224,0,0,0-.909-.284,1.359,1.359,0,0,0-1.251.711V15H41.553V7.6Zm9.1,5.94a1.3,1.3,0,0,0,.889-.3,1.054,1.054,0,0,0,.355-.8h1.853a2.534,2.534,0,0,1-.41,1.377,2.706,2.706,0,0,1-1.1.971,3.455,3.455,0,0,1-1.548.345,3.211,3.211,0,0,1-2.5-1.008,3.99,3.99,0,0,1-.916-2.786v-.13a3.944,3.944,0,0,1,.909-2.728,3.174,3.174,0,0,1,2.5-1.019,3.111,3.111,0,0,1,2.225.79,2.8,2.8,0,0,1,.851,2.1H53.755a1.346,1.346,0,0,0-.355-.933,1.324,1.324,0,0,0-1.945.144A2.908,2.908,0,0,0,51.1,11.2V11.4a2.945,2.945,0,0,0,.349,1.641A1.205,1.205,0,0,0,52.511,13.544ZM58.821,15H56.838V7.6h1.982Zm-2.1-9.311a.973.973,0,0,1,.3-.731,1.281,1.281,0,0,1,1.617,0,.967.967,0,0,1,.3.731.97.97,0,0,1-.3.738,1.267,1.267,0,0,1-1.606,0A.97.97,0,0,1,56.722,5.689ZM64.734,15a2.194,2.194,0,0,1-.2-.663,2.39,2.39,0,0,1-1.866.8,2.626,2.626,0,0,1-1.8-.629,2.023,2.023,0,0,1-.714-1.586,2.09,2.09,0,0,1,.872-1.8,4.3,4.3,0,0,1,2.519-.636h.909v-.424a1.219,1.219,0,0,0-.263-.82,1.035,1.035,0,0,0-.831-.308,1.177,1.177,0,0,0-.783.239.813.813,0,0,0-.284.656H60.318a1.984,1.984,0,0,1,.4-1.189,2.621,2.621,0,0,1,1.121-.858,4.086,4.086,0,0,1,1.627-.311,3.228,3.228,0,0,1,2.17.687,2.4,2.4,0,0,1,.8,1.931v3.206a3.536,3.536,0,0,0,.294,1.593V15ZM63.1,13.626a1.7,1.7,0,0,0,.807-.195,1.28,1.28,0,0,0,.547-.523V11.637h-.738q-1.483,0-1.579,1.025l-.007.116a.791.791,0,0,0,.26.608A1.009,1.009,0,0,0,63.1,13.626Zm8.032-2.379a4.457,4.457,0,0,1,.776-2.755,2.517,2.517,0,0,1,2.123-1.025,2.265,2.265,0,0,1,1.784.807V4.5H77.8V15H76.013l-.1-.786a2.325,2.325,0,0,1-1.9.923,2.511,2.511,0,0,1-2.1-1.029A4.6,4.6,0,0,1,71.132,11.247Zm1.976.144a2.912,2.912,0,0,0,.362,1.593,1.181,1.181,0,0,0,1.053.554,1.322,1.322,0,0,0,1.292-.772V9.846a1.3,1.3,0,0,0-1.278-.772Q73.108,9.073,73.108,11.391Zm9.625,3.746a3.631,3.631,0,0,1-2.649-1,3.548,3.548,0,0,1-1.022-2.659v-.191A4.468,4.468,0,0,1,79.493,9.3a3.161,3.161,0,0,1,1.22-1.354,3.425,3.425,0,0,1,1.8-.475,3.07,3.07,0,0,1,2.389.957,3.889,3.889,0,0,1,.872,2.714v.807h-4.71a1.835,1.835,0,0,0,.578,1.162,1.746,1.746,0,0,0,1.22.438,2.132,2.132,0,0,0,1.784-.827l.971,1.087a2.966,2.966,0,0,1-1.2.981A3.947,3.947,0,0,1,82.733,15.137Zm-.226-6.07a1.237,1.237,0,0,0-.954.4,2.048,2.048,0,0,0-.468,1.135h2.748V10.44a1.46,1.46,0,0,0-.355-1.015A1.277,1.277,0,0,0,82.507,9.066ZM9.51,35V25.047h3.063a4.651,4.651,0,0,1,2.348.591,4.123,4.123,0,0,1,1.617,1.682,5.187,5.187,0,0,1,.581,2.478v.458a5.2,5.2,0,0,1-.571,2.468,4.088,4.088,0,0,1-1.61,1.675,4.686,4.686,0,0,1-2.345.6Zm2.051-8.292v6.645h.991a2.227,2.227,0,0,0,1.839-.786,3.552,3.552,0,0,0,.649-2.249v-.526a3.609,3.609,0,0,0-.629-2.3,2.219,2.219,0,0,0-1.839-.783Zm10.322,8.429a3.631,3.631,0,0,1-2.649-1,3.548,3.548,0,0,1-1.022-2.659v-.191a4.468,4.468,0,0,1,.431-1.993,3.161,3.161,0,0,1,1.22-1.354,3.425,3.425,0,0,1,1.8-.475,3.07,3.07,0,0,1,2.389.957,3.889,3.889,0,0,1,.872,2.714v.807h-4.71a1.835,1.835,0,0,0,.578,1.162,1.746,1.746,0,0,0,1.22.438,2.132,2.132,0,0,0,1.784-.827l.971,1.087a2.966,2.966,0,0,1-1.2.981A3.947,3.947,0,0,1,21.883,35.137Zm-.226-6.07a1.237,1.237,0,0,0-.954.4,2.048,2.048,0,0,0-.468,1.135h2.748V30.44a1.46,1.46,0,0,0-.355-1.015A1.277,1.277,0,0,0,21.657,29.066Zm8.395,3.89a.637.637,0,0,0-.359-.571,4.077,4.077,0,0,0-1.152-.373Q25.9,31.459,25.9,29.771a2.032,2.032,0,0,1,.817-1.644,3.3,3.3,0,0,1,2.136-.66,3.547,3.547,0,0,1,2.252.663,2.09,2.09,0,0,1,.844,1.723H29.977a.956.956,0,0,0-.273-.7,1.157,1.157,0,0,0-.854-.277,1.182,1.182,0,0,0-.772.226.712.712,0,0,0-.273.574.609.609,0,0,0,.311.53,3.2,3.2,0,0,0,1.049.349,8.571,8.571,0,0,1,1.244.332,2.044,2.044,0,0,1,1.565,1.989,1.929,1.929,0,0,1-.868,1.637,3.745,3.745,0,0,1-2.242.625,3.912,3.912,0,0,1-1.651-.332A2.77,2.77,0,0,1,26.08,33.9a2.113,2.113,0,0,1-.41-1.248h1.873a1.031,1.031,0,0,0,.39.807,1.546,1.546,0,0,0,.971.28,1.43,1.43,0,0,0,.858-.215A.67.67,0,0,0,30.052,32.956Zm6.6,2.181a3.631,3.631,0,0,1-2.649-1,3.548,3.548,0,0,1-1.022-2.659v-.191a4.468,4.468,0,0,1,.431-1.993,3.161,3.161,0,0,1,1.22-1.354,3.425,3.425,0,0,1,1.8-.475,3.07,3.07,0,0,1,2.389.957,3.889,3.889,0,0,1,.872,2.714v.807H34.98a1.835,1.835,0,0,0,.578,1.162,1.746,1.746,0,0,0,1.22.438,2.132,2.132,0,0,0,1.784-.827l.971,1.087a2.966,2.966,0,0,1-1.2.981A3.947,3.947,0,0,1,36.648,35.137Zm-.226-6.07a1.237,1.237,0,0,0-.954.4A2.048,2.048,0,0,0,35,30.6h2.748V30.44a1.46,1.46,0,0,0-.355-1.015A1.277,1.277,0,0,0,36.423,29.066ZM42.664,27.6l.062.827a2.6,2.6,0,0,1,2.126-.964,1.973,1.973,0,0,1,1.962,1.128,2.54,2.54,0,0,1,2.222-1.128,2.206,2.206,0,0,1,1.791.7,3.221,3.221,0,0,1,.588,2.109V35H49.432V30.283a1.408,1.408,0,0,0-.246-.919,1.091,1.091,0,0,0-.868-.291,1.233,1.233,0,0,0-1.23.848L47.094,35H45.118V30.29a1.391,1.391,0,0,0-.253-.93A1.1,1.1,0,0,0,44,29.073a1.28,1.28,0,0,0-1.217.7V35H40.812V27.6ZM59.59,31.37a4.436,4.436,0,0,1-.776,2.738,2.488,2.488,0,0,1-2.1,1.029,2.3,2.3,0,0,1-1.812-.779v3.486H52.932V27.6h1.832l.068.725a2.322,2.322,0,0,1,1.873-.861,2.5,2.5,0,0,1,2.126,1.012,4.556,4.556,0,0,1,.759,2.789Zm-1.976-.144a2.911,2.911,0,0,0-.366-1.593,1.191,1.191,0,0,0-1.063-.561,1.294,1.294,0,0,0-1.278.711v3.028a1.316,1.316,0,0,0,1.292.731Q57.614,33.544,57.614,31.227Zm6.6,3.91a3.631,3.631,0,0,1-2.649-1,3.548,3.548,0,0,1-1.022-2.659v-.191a4.468,4.468,0,0,1,.431-1.993,3.161,3.161,0,0,1,1.22-1.354,3.425,3.425,0,0,1,1.8-.475,3.07,3.07,0,0,1,2.389.957,3.889,3.889,0,0,1,.872,2.714v.807H62.55a1.835,1.835,0,0,0,.578,1.162,1.746,1.746,0,0,0,1.22.438,2.132,2.132,0,0,0,1.784-.827L67.1,33.8a2.966,2.966,0,0,1-1.2.981A3.947,3.947,0,0,1,64.218,35.137Zm-.226-6.07a1.237,1.237,0,0,0-.954.4A2.048,2.048,0,0,0,62.57,30.6h2.748V30.44a1.46,1.46,0,0,0-.355-1.015A1.277,1.277,0,0,0,63.992,29.066ZM70.2,27.6l.062.854a2.582,2.582,0,0,1,2.126-.991,2.146,2.146,0,0,1,1.75.69,3.221,3.221,0,0,1,.588,2.064V35H72.749V30.27a1.282,1.282,0,0,0-.273-.913,1.224,1.224,0,0,0-.909-.284,1.359,1.359,0,0,0-1.251.711V35H68.34V27.6Zm3.924-3.015a1.913,1.913,0,0,1-.451,1.3,1.4,1.4,0,0,1-1.1.523,1.669,1.669,0,0,1-.461-.058,3.1,3.1,0,0,1-.557-.25,3.005,3.005,0,0,0-.513-.236,1.253,1.253,0,0,0-.342-.044.548.548,0,0,0-.407.171.664.664,0,0,0-.167.485l-1.148-.068a1.942,1.942,0,0,1,.448-1.292,1.381,1.381,0,0,1,1.1-.533,1.412,1.412,0,0,1,.386.051,4.253,4.253,0,0,1,.591.25,3.843,3.843,0,0,0,.567.239,1.3,1.3,0,0,0,.328.041A.577.577,0,0,0,72.807,25a.637.637,0,0,0,.174-.482Zm1.791,6.645a4.387,4.387,0,0,1,.424-1.962,3.1,3.1,0,0,1,1.22-1.333,3.56,3.56,0,0,1,1.849-.472,3.368,3.368,0,0,1,2.444.916,3.676,3.676,0,0,1,1.056,2.488l.014.506a3.866,3.866,0,0,1-.95,2.731,3.683,3.683,0,0,1-5.1,0,3.934,3.934,0,0,1-.954-2.789Zm1.976.144a2.757,2.757,0,0,0,.4,1.61,1.426,1.426,0,0,0,2.256.007,3.017,3.017,0,0,0,.4-1.76,2.73,2.73,0,0,0-.4-1.6,1.312,1.312,0,0,0-1.135-.567,1.29,1.29,0,0,0-1.121.564A3.068,3.068,0,0,0,77.89,31.377Z" transform="translate(362.501 1391.306)" fill="#fff"/>
    <path id="Trazado_913437" data-name="Trazado 913437" d="M18.488,11.685A3.522,3.522,0,0,1,17.3,14.214a4.165,4.165,0,0,1-2.82.923,3.745,3.745,0,0,1-3.011-1.289,5.284,5.284,0,0,1-1.1-3.538V9.7a5.966,5.966,0,0,1,.506-2.529,3.791,3.791,0,0,1,1.446-1.678,4.05,4.05,0,0,1,2.184-.584,4.058,4.058,0,0,1,2.775.923A3.785,3.785,0,0,1,18.5,8.424H16.45a2.079,2.079,0,0,0-.537-1.4,1.987,1.987,0,0,0-1.4-.434,1.742,1.742,0,0,0-1.535.735,4.118,4.118,0,0,0-.523,2.28v.752a4.408,4.408,0,0,0,.489,2.358,1.71,1.71,0,0,0,1.542.745,2.025,2.025,0,0,0,1.418-.434,1.961,1.961,0,0,0,.537-1.343Zm.909-.451a4.387,4.387,0,0,1,.424-1.962,3.1,3.1,0,0,1,1.22-1.333,3.56,3.56,0,0,1,1.849-.472,3.368,3.368,0,0,1,2.444.916,3.676,3.676,0,0,1,1.056,2.488l.014.506a3.866,3.866,0,0,1-.95,2.731,3.3,3.3,0,0,1-2.55,1.029,3.319,3.319,0,0,1-2.553-1.025,3.934,3.934,0,0,1-.954-2.789Zm1.976.144a2.757,2.757,0,0,0,.4,1.61,1.426,1.426,0,0,0,2.256.007,3.017,3.017,0,0,0,.4-1.76,2.73,2.73,0,0,0-.4-1.6,1.312,1.312,0,0,0-1.135-.567,1.29,1.29,0,0,0-1.121.564A3.068,3.068,0,0,0,21.372,11.377Zm8.1-3.773.062.827a2.6,2.6,0,0,1,2.126-.964,1.973,1.973,0,0,1,1.962,1.128,2.54,2.54,0,0,1,2.222-1.128,2.206,2.206,0,0,1,1.791.7,3.221,3.221,0,0,1,.588,2.109V15H36.24V10.283a1.408,1.408,0,0,0-.246-.919,1.091,1.091,0,0,0-.868-.291,1.233,1.233,0,0,0-1.23.848L33.9,15H31.927V10.29a1.391,1.391,0,0,0-.253-.93,1.1,1.1,0,0,0-.861-.287,1.28,1.28,0,0,0-1.217.7V15H27.62V7.6ZM46.4,11.37a4.436,4.436,0,0,1-.776,2.738,2.488,2.488,0,0,1-2.1,1.029,2.3,2.3,0,0,1-1.812-.779v3.486H39.74V7.6h1.832l.068.725a2.322,2.322,0,0,1,1.873-.861A2.5,2.5,0,0,1,45.64,8.479a4.556,4.556,0,0,1,.759,2.789Zm-1.976-.144a2.911,2.911,0,0,0-.366-1.593,1.191,1.191,0,0,0-1.063-.561,1.294,1.294,0,0,0-1.278.711v3.028a1.316,1.316,0,0,0,1.292.731Q44.423,13.544,44.423,11.227ZM51.908,15a2.194,2.194,0,0,1-.2-.663,2.39,2.39,0,0,1-1.866.8,2.626,2.626,0,0,1-1.8-.629,2.023,2.023,0,0,1-.714-1.586,2.09,2.09,0,0,1,.872-1.8,4.3,4.3,0,0,1,2.519-.636h.909v-.424a1.219,1.219,0,0,0-.263-.82,1.035,1.035,0,0,0-.831-.308,1.177,1.177,0,0,0-.783.239.813.813,0,0,0-.284.656H47.492a1.984,1.984,0,0,1,.4-1.189,2.621,2.621,0,0,1,1.121-.858,4.086,4.086,0,0,1,1.627-.311,3.228,3.228,0,0,1,2.17.687,2.4,2.4,0,0,1,.8,1.931v3.206a3.536,3.536,0,0,0,.294,1.593V15Zm-1.634-1.374a1.7,1.7,0,0,0,.807-.195,1.28,1.28,0,0,0,.547-.523V11.637H50.89q-1.483,0-1.579,1.025l-.007.116a.791.791,0,0,0,.26.608A1.009,1.009,0,0,0,50.275,13.626Zm7.219-7.841V7.6h1.265V9.053H57.493v3.691a.881.881,0,0,0,.157.588.79.79,0,0,0,.6.178,3.15,3.15,0,0,0,.581-.048v1.5a4.067,4.067,0,0,1-1.2.178,1.886,1.886,0,0,1-2.119-2.1V9.053h-1.08V7.6h1.08V5.785ZM61.944,15H59.961V7.6h1.982Zm-2.1-9.311a.973.973,0,0,1,.3-.731,1.281,1.281,0,0,1,1.617,0,.967.967,0,0,1,.3.731.97.97,0,0,1-.3.738,1.267,1.267,0,0,1-1.606,0A.97.97,0,0,1,59.845,5.689ZM70.236,11.37a4.479,4.479,0,0,1-.759,2.772,2.513,2.513,0,0,1-2.119.995,2.309,2.309,0,0,1-1.921-.923L65.348,15H63.571V4.5h1.976V8.267a2.25,2.25,0,0,1,1.8-.8,2.534,2.534,0,0,1,2.123.995,4.485,4.485,0,0,1,.769,2.8Zm-1.976-.144A2.942,2.942,0,0,0,67.9,9.589a1.2,1.2,0,0,0-1.06-.516,1.3,1.3,0,0,0-1.3.772v2.919a1.321,1.321,0,0,0,1.313.779,1.22,1.22,0,0,0,1.258-.943A4.866,4.866,0,0,0,68.26,11.227ZM73.537,15H71.555V7.6h1.982Zm-2.1-9.311a.973.973,0,0,1,.3-.731,1.281,1.281,0,0,1,1.617,0,.967.967,0,0,1,.3.731.97.97,0,0,1-.3.738,1.267,1.267,0,0,1-1.606,0A.97.97,0,0,1,71.439,5.689ZM77.249,15H75.267V4.5h1.982Zm3.712,0H78.979V7.6h1.982Zm-2.1-9.311a.973.973,0,0,1,.3-.731,1.281,1.281,0,0,1,1.617,0,.967.967,0,0,1,.3.731.97.97,0,0,1-.3.738,1.267,1.267,0,0,1-1.606,0A.97.97,0,0,1,78.863,5.689Zm3.418,5.558a4.457,4.457,0,0,1,.776-2.755,2.517,2.517,0,0,1,2.123-1.025,2.265,2.265,0,0,1,1.784.807V4.5h1.982V15H87.161l-.1-.786a2.325,2.325,0,0,1-1.9.923,2.511,2.511,0,0,1-2.1-1.029A4.6,4.6,0,0,1,82.281,11.247Zm1.976.144a2.912,2.912,0,0,0,.362,1.593,1.181,1.181,0,0,0,1.053.554,1.322,1.322,0,0,0,1.292-.772V9.846a1.3,1.3,0,0,0-1.278-.772Q84.256,9.073,84.256,11.391ZM94.763,15a2.194,2.194,0,0,1-.2-.663,2.39,2.39,0,0,1-1.866.8,2.626,2.626,0,0,1-1.8-.629,2.023,2.023,0,0,1-.714-1.586,2.09,2.09,0,0,1,.872-1.8,4.3,4.3,0,0,1,2.519-.636h.909v-.424a1.219,1.219,0,0,0-.263-.82,1.035,1.035,0,0,0-.831-.308,1.177,1.177,0,0,0-.783.239.813.813,0,0,0-.284.656H90.347a1.985,1.985,0,0,1,.4-1.189,2.621,2.621,0,0,1,1.121-.858,4.086,4.086,0,0,1,1.627-.311,3.228,3.228,0,0,1,2.17.687,2.4,2.4,0,0,1,.8,1.931v3.206a3.536,3.536,0,0,0,.294,1.593V15Zm-1.634-1.374a1.7,1.7,0,0,0,.807-.195,1.28,1.28,0,0,0,.547-.523V11.637h-.738q-1.483,0-1.579,1.025l-.007.116a.791.791,0,0,0,.26.608A1.009,1.009,0,0,0,93.129,13.626Zm4.546-2.379a4.457,4.457,0,0,1,.776-2.755,2.517,2.517,0,0,1,2.123-1.025,2.265,2.265,0,0,1,1.784.807V4.5h1.982V15h-1.784l-.1-.786a2.325,2.325,0,0,1-1.9.923,2.511,2.511,0,0,1-2.1-1.029A4.6,4.6,0,0,1,97.675,11.247Zm1.976.144a2.912,2.912,0,0,0,.362,1.593,1.181,1.181,0,0,0,1.053.554,1.322,1.322,0,0,0,1.292-.772V9.846a1.3,1.3,0,0,0-1.278-.772Q99.651,9.073,99.651,11.391Z" transform="translate(503.366 1401.306)" fill="#fff"/>
    <path id="Trazado_913435" data-name="Trazado 913435" d="M23.815,11.685a3.522,3.522,0,0,1-1.186,2.529,4.165,4.165,0,0,1-2.82.923A3.745,3.745,0,0,1,16.8,13.848a5.284,5.284,0,0,1-1.1-3.538V9.7a5.966,5.966,0,0,1,.506-2.529,3.791,3.791,0,0,1,1.446-1.678,4.05,4.05,0,0,1,2.184-.584,4.058,4.058,0,0,1,2.775.923,3.785,3.785,0,0,1,1.217,2.591H21.777a2.079,2.079,0,0,0-.537-1.4,1.987,1.987,0,0,0-1.4-.434,1.742,1.742,0,0,0-1.535.735,4.118,4.118,0,0,0-.523,2.28v.752a4.408,4.408,0,0,0,.489,2.358,1.71,1.71,0,0,0,1.542.745,2.025,2.025,0,0,0,1.418-.434,1.961,1.961,0,0,0,.537-1.343Zm6.966,1.265h-3.6L26.5,15H24.32l3.705-9.953h1.9L33.651,15H31.471Zm-3.042-1.661h2.488L28.976,7.563Zm8.894,2.064h4.354V15H34.581V5.047h2.051ZM44.343,15H42.292V5.047h2.051Zm1.9,0V5.047h3.063a4.651,4.651,0,0,1,2.348.591A4.123,4.123,0,0,1,53.271,7.32,5.187,5.187,0,0,1,53.852,9.8v.458a5.2,5.2,0,0,1-.571,2.468,4.088,4.088,0,0,1-1.61,1.675,4.686,4.686,0,0,1-2.345.6Zm2.051-8.292v6.645h.991a2.227,2.227,0,0,0,1.839-.786,3.552,3.552,0,0,0,.649-2.249V9.791a3.609,3.609,0,0,0-.629-2.3,2.219,2.219,0,0,0-1.839-.783Zm12.667,6.241h-3.6L56.682,15H54.5l3.705-9.953h1.9L63.832,15H61.651Zm-3.042-1.661h2.488L59.156,7.563ZM64.762,15V5.047h3.063a4.651,4.651,0,0,1,2.348.591A4.123,4.123,0,0,1,71.789,7.32,5.187,5.187,0,0,1,72.37,9.8v.458a5.2,5.2,0,0,1-.571,2.468A4.088,4.088,0,0,1,70.19,14.4a4.686,4.686,0,0,1-2.345.6Zm2.051-8.292v6.645H67.8a2.227,2.227,0,0,0,1.839-.786,3.552,3.552,0,0,0,.649-2.249V9.791a3.609,3.609,0,0,0-.629-2.3,2.219,2.219,0,0,0-1.839-.783ZM77.347,15V5.047h3.063a4.651,4.651,0,0,1,2.348.591A4.123,4.123,0,0,1,84.374,7.32,5.187,5.187,0,0,1,84.955,9.8v.458a5.2,5.2,0,0,1-.571,2.468,4.088,4.088,0,0,1-1.61,1.675,4.686,4.686,0,0,1-2.345.6ZM79.4,6.708v6.645h.991a2.227,2.227,0,0,0,1.839-.786,3.552,3.552,0,0,0,.649-2.249V9.791a3.609,3.609,0,0,0-.629-2.3,2.219,2.219,0,0,0-1.839-.783Zm13.036,3.979H88.5v2.666h4.621V15H86.445V5.047H93.1V6.708H88.5V9.08h3.938Zm3.938,2.666h4.354V15H94.32V5.047h2.051Zm11.067-1.859V15h-2.051V5.047h3.883a4.492,4.492,0,0,1,1.972.41,3.022,3.022,0,0,1,1.309,1.166,3.25,3.25,0,0,1,.458,1.719,2.858,2.858,0,0,1-1,2.307,4.171,4.171,0,0,1-2.772.844Zm0-1.661h1.832a1.8,1.8,0,0,0,1.241-.383,1.392,1.392,0,0,0,.427-1.094,1.642,1.642,0,0,0-.431-1.183,1.609,1.609,0,0,0-1.189-.465h-1.88ZM118.1,11.356h-1.634V15h-2.051V5.047h3.7a4.181,4.181,0,0,1,2.721.786,2.713,2.713,0,0,1,.957,2.222,3.062,3.062,0,0,1-.441,1.7,3.007,3.007,0,0,1-1.336,1.083L122.17,14.9V15h-2.2ZM116.469,9.7h1.654a1.694,1.694,0,0,0,1.2-.393,1.4,1.4,0,0,0,.424-1.083,1.5,1.5,0,0,0-.4-1.107,1.662,1.662,0,0,0-1.227-.4h-1.647Zm15.06.554a6.008,6.008,0,0,1-.52,2.577,3.913,3.913,0,0,1-1.487,1.709,4.393,4.393,0,0,1-4.426.007,3.951,3.951,0,0,1-1.5-1.7,5.836,5.836,0,0,1-.54-2.54V9.812a5.977,5.977,0,0,1,.53-2.587,3.945,3.945,0,0,1,1.5-1.716,4.387,4.387,0,0,1,4.423,0A3.945,3.945,0,0,1,131,7.224a5.96,5.96,0,0,1,.53,2.581ZM129.45,9.8a4.188,4.188,0,0,0-.561-2.379,1.98,1.98,0,0,0-3.192-.01,4.141,4.141,0,0,0-.567,2.355v.485a4.241,4.241,0,0,0,.561,2.365,1.963,1.963,0,0,0,3.2.031,4.216,4.216,0,0,0,.561-2.362Zm3.568,5.2V5.047h3.063a4.651,4.651,0,0,1,2.348.591,4.123,4.123,0,0,1,1.617,1.682,5.187,5.187,0,0,1,.581,2.478v.458a5.2,5.2,0,0,1-.571,2.468,4.088,4.088,0,0,1-1.61,1.675,4.686,4.686,0,0,1-2.345.6Zm2.051-8.292v6.645h.991a2.227,2.227,0,0,0,1.839-.786,3.552,3.552,0,0,0,.649-2.249V9.791a3.609,3.609,0,0,0-.629-2.3,2.219,2.219,0,0,0-1.839-.783Zm14.581-1.661V11.6a3.356,3.356,0,0,1-1.022,2.584,3.94,3.94,0,0,1-2.792.95,3.984,3.984,0,0,1-2.769-.923,3.3,3.3,0,0,1-1.046-2.536V5.047h2.051v6.569a1.9,1.9,0,0,0,.468,1.425,1.8,1.8,0,0,0,1.3.448q1.729,0,1.757-1.818V5.047Zm9.5,6.638a3.522,3.522,0,0,1-1.186,2.529,4.165,4.165,0,0,1-2.82.923,3.745,3.745,0,0,1-3.011-1.289,5.284,5.284,0,0,1-1.1-3.538V9.7a5.966,5.966,0,0,1,.506-2.529,3.791,3.791,0,0,1,1.446-1.678,4.518,4.518,0,0,1,4.959.338,3.785,3.785,0,0,1,1.217,2.591h-2.051a2.079,2.079,0,0,0-.537-1.4,1.987,1.987,0,0,0-1.4-.434,1.742,1.742,0,0,0-1.535.735,4.118,4.118,0,0,0-.523,2.28v.752a4.408,4.408,0,0,0,.489,2.358,1.71,1.71,0,0,0,1.542.745,2.025,2.025,0,0,0,1.418-.434,1.961,1.961,0,0,0,.537-1.343Zm8.641-4.977h-3.049V15h-2.051V6.708h-3.008V5.047h8.107Zm9.153,3.541a6.008,6.008,0,0,1-.52,2.577,3.913,3.913,0,0,1-1.487,1.709,4.393,4.393,0,0,1-4.426.007,3.951,3.951,0,0,1-1.5-1.7,5.837,5.837,0,0,1-.54-2.54V9.812a5.977,5.977,0,0,1,.53-2.587,3.945,3.945,0,0,1,1.5-1.716,4.387,4.387,0,0,1,4.423,0,3.945,3.945,0,0,1,1.5,1.716,5.96,5.96,0,0,1,.53,2.581ZM174.861,9.8a4.188,4.188,0,0,0-.561-2.379,1.98,1.98,0,0,0-3.192-.01,4.141,4.141,0,0,0-.567,2.355v.485a4.241,4.241,0,0,0,.561,2.365,1.963,1.963,0,0,0,3.2.031,4.216,4.216,0,0,0,.561-2.362Zm15.271,2.543q.144-.813-.8-1.244l-1.319-.526q-2.3-1.025-2.181-2.823a2.593,2.593,0,0,1,.547-1.477,3.288,3.288,0,0,1,1.4-1.008,4.961,4.961,0,0,1,1.948-.352,3.375,3.375,0,0,1,2.331.858,2.859,2.859,0,0,1,.875,2.225h-2a1.424,1.424,0,0,0-.3-1.053,1.339,1.339,0,0,0-1.029-.39,2.074,2.074,0,0,0-1.189.311,1.276,1.276,0,0,0-.6.892q-.13.745,1,1.183l.9.342.52.239a2.824,2.824,0,0,1,1.887,2.8,2.7,2.7,0,0,1-.564,1.521,3.179,3.179,0,0,1-1.367.981,4.87,4.87,0,0,1-1.9.321,4.264,4.264,0,0,1-1.887-.444,2.93,2.93,0,0,1-1.258-1.2,3.1,3.1,0,0,1-.376-1.641l2,.007q-.1,1.62,1.593,1.647a2.093,2.093,0,0,0,1.2-.321A1.251,1.251,0,0,0,190.133,12.341Zm6.938,2.8a3.507,3.507,0,0,1-1.747-.468,3.161,3.161,0,0,1-1.2-1.292,4.785,4.785,0,0,1-.509-1.938,7.79,7.79,0,0,1,.239-2.393,6.385,6.385,0,0,1,1.012-2.235,4.6,4.6,0,0,1,1.637-1.442,4.238,4.238,0,0,1,2.034-.458,3.471,3.471,0,0,1,1.757.475,3.139,3.139,0,0,1,1.183,1.306,4.84,4.84,0,0,1,.492,1.931,8.04,8.04,0,0,1-.26,2.475,6.28,6.28,0,0,1-1.019,2.2,4.564,4.564,0,0,1-1.617,1.395A4.226,4.226,0,0,1,197.071,15.137Zm2.837-5.387.055-.649a3.173,3.173,0,0,0-.325-1.846,1.371,1.371,0,0,0-1.193-.656,2.163,2.163,0,0,0-1.986,1.107,6.523,6.523,0,0,0-.831,3.213,3.291,3.291,0,0,0,.321,1.863,1.368,1.368,0,0,0,1.21.68,2.052,2.052,0,0,0,1.777-.837,5.066,5.066,0,0,0,.923-2.505Zm9.14,1.183h-3.814L204.523,15h-2l1.729-9.953h6.3l-.294,1.661h-4.293l-.451,2.57h3.828Zm9.83-4.225h-2.953L214.489,15h-2l1.436-8.292H211l.294-1.661h7.875Zm7.882,5.4,2.4-7.062H231.2L227.505,15h-2.017l-.526-6.631L222.358,15h-2.017l-.588-9.953h1.955l.2,7.027,2.68-7.027h1.7Zm9.475.841h-3.473L231.736,15h-2.208l5.318-9.953H236.7L238.593,15h-2.044Zm-2.652-1.661h2.4l-.561-3.705Zm10.274.068H242.23L241.594,15h-2l1.729-9.953,3.295.007a3.753,3.753,0,0,1,2.546.779A2.465,2.465,0,0,1,247.951,8a3.127,3.127,0,0,1-2.187,2.851l1.4,4.04V15h-2.133ZM242.517,9.7l1.49.014a2.088,2.088,0,0,0,1.309-.427,1.691,1.691,0,0,0,.619-1.125,1.289,1.289,0,0,0-.212-1.039,1.262,1.262,0,0,0-.978-.4l-1.709-.007Zm12.38.991h-3.814l-.465,2.666H255.1L254.815,15h-6.487l1.729-9.953h6.474l-.294,1.661h-4.464l-.417,2.372h3.828Z" transform="translate(668 1260.834)" fill="#12263f"/>
    <path id="Trazado_913438" data-name="Trazado 913438" d="M32.761,5.047V11.6a3.356,3.356,0,0,1-1.022,2.584,3.94,3.94,0,0,1-2.792.95,3.984,3.984,0,0,1-2.769-.923,3.3,3.3,0,0,1-1.046-2.536V5.047h2.051v6.569a1.9,1.9,0,0,0,.468,1.425,1.8,1.8,0,0,0,1.3.448q1.729,0,1.757-1.818V5.047Zm5.558,7.909a.637.637,0,0,0-.359-.571,4.077,4.077,0,0,0-1.152-.373q-2.639-.554-2.639-2.242a2.032,2.032,0,0,1,.817-1.644,3.3,3.3,0,0,1,2.136-.66,3.547,3.547,0,0,1,2.252.663,2.09,2.09,0,0,1,.844,1.723H38.243a.956.956,0,0,0-.273-.7,1.157,1.157,0,0,0-.854-.277,1.182,1.182,0,0,0-.772.226.712.712,0,0,0-.273.574.609.609,0,0,0,.311.53,3.2,3.2,0,0,0,1.049.349,8.571,8.571,0,0,1,1.244.332,2.044,2.044,0,0,1,1.565,1.989,1.929,1.929,0,0,1-.868,1.637,3.745,3.745,0,0,1-2.242.625,3.912,3.912,0,0,1-1.651-.332,2.77,2.77,0,0,1-1.131-.909,2.113,2.113,0,0,1-.41-1.248H35.81a1.031,1.031,0,0,0,.39.807,1.546,1.546,0,0,0,.971.28,1.43,1.43,0,0,0,.858-.215A.67.67,0,0,0,38.319,12.956ZM45.8,15a2.194,2.194,0,0,1-.2-.663,2.39,2.39,0,0,1-1.866.8,2.626,2.626,0,0,1-1.8-.629,2.023,2.023,0,0,1-.714-1.586,2.09,2.09,0,0,1,.872-1.8,4.3,4.3,0,0,1,2.519-.636h.909v-.424a1.219,1.219,0,0,0-.263-.82,1.035,1.035,0,0,0-.831-.308,1.177,1.177,0,0,0-.783.239.813.813,0,0,0-.284.656H41.381a1.984,1.984,0,0,1,.4-1.189A2.621,2.621,0,0,1,42.9,7.778a4.086,4.086,0,0,1,1.627-.311,3.228,3.228,0,0,1,2.17.687,2.4,2.4,0,0,1,.8,1.931v3.206a3.536,3.536,0,0,0,.294,1.593V15Zm-1.634-1.374a1.7,1.7,0,0,0,.807-.195,1.28,1.28,0,0,0,.547-.523V11.637h-.738q-1.483,0-1.579,1.025l-.007.116a.791.791,0,0,0,.26.608A1.009,1.009,0,0,0,44.163,13.626ZM55.682,11.37a4.479,4.479,0,0,1-.759,2.772,2.513,2.513,0,0,1-2.119.995,2.309,2.309,0,0,1-1.921-.923L50.794,15H49.017V4.5h1.976V8.267a2.25,2.25,0,0,1,1.8-.8,2.534,2.534,0,0,1,2.123.995,4.485,4.485,0,0,1,.769,2.8Zm-1.976-.144a2.942,2.942,0,0,0-.355-1.637,1.2,1.2,0,0,0-1.06-.516,1.3,1.3,0,0,0-1.3.772v2.919a1.321,1.321,0,0,0,1.313.779,1.22,1.22,0,0,0,1.258-.943A4.866,4.866,0,0,0,53.706,11.227ZM58.984,15H57V7.6h1.982Zm-2.1-9.311a.973.973,0,0,1,.3-.731,1.281,1.281,0,0,1,1.617,0,.967.967,0,0,1,.3.731.97.97,0,0,1-.3.738,1.267,1.267,0,0,1-1.606,0A.97.97,0,0,1,56.885,5.689ZM62.7,15H60.713V4.5H62.7Zm3.712,0H64.425V7.6h1.982Zm-2.1-9.311a.973.973,0,0,1,.3-.731,1.281,1.281,0,0,1,1.617,0,.967.967,0,0,1,.3.731.97.97,0,0,1-.3.738,1.267,1.267,0,0,1-1.606,0A.97.97,0,0,1,64.309,5.689Zm3.418,5.558A4.457,4.457,0,0,1,68.5,8.492a2.517,2.517,0,0,1,2.123-1.025,2.265,2.265,0,0,1,1.784.807V4.5h1.982V15H72.608l-.1-.786a2.325,2.325,0,0,1-1.9.923,2.511,2.511,0,0,1-2.1-1.029A4.6,4.6,0,0,1,67.727,11.247Zm1.976.144a2.912,2.912,0,0,0,.362,1.593,1.181,1.181,0,0,0,1.053.554,1.322,1.322,0,0,0,1.292-.772V9.846a1.3,1.3,0,0,0-1.278-.772Q69.7,9.073,69.7,11.391ZM80.209,15a2.194,2.194,0,0,1-.2-.663,2.39,2.39,0,0,1-1.866.8,2.626,2.626,0,0,1-1.8-.629,2.023,2.023,0,0,1-.714-1.586,2.09,2.09,0,0,1,.872-1.8,4.3,4.3,0,0,1,2.519-.636h.909v-.424a1.219,1.219,0,0,0-.263-.82,1.035,1.035,0,0,0-.831-.308,1.177,1.177,0,0,0-.783.239.813.813,0,0,0-.284.656H75.793a1.985,1.985,0,0,1,.4-1.189,2.621,2.621,0,0,1,1.121-.858,4.086,4.086,0,0,1,1.627-.311,3.228,3.228,0,0,1,2.17.687,2.4,2.4,0,0,1,.8,1.931v3.206a3.536,3.536,0,0,0,.294,1.593V15Zm-1.634-1.374a1.7,1.7,0,0,0,.807-.195,1.28,1.28,0,0,0,.547-.523V11.637h-.738q-1.483,0-1.579,1.025l-.007.116a.791.791,0,0,0,.26.608A1.009,1.009,0,0,0,78.575,13.626Zm4.546-2.379A4.457,4.457,0,0,1,83.9,8.492,2.517,2.517,0,0,1,86.02,7.467a2.265,2.265,0,0,1,1.784.807V4.5h1.982V15H88l-.1-.786a2.325,2.325,0,0,1-1.9.923,2.511,2.511,0,0,1-2.1-1.029A4.6,4.6,0,0,1,83.121,11.247Zm1.976.144a2.912,2.912,0,0,0,.362,1.593,1.181,1.181,0,0,0,1.053.554,1.322,1.322,0,0,0,1.292-.772V9.846a1.3,1.3,0,0,0-1.278-.772Q85.1,9.073,85.1,11.391Z" transform="translate(660.924 1401.306)" fill="#fff"/>
    <path id="Trazado_913439" data-name="Trazado 913439" d="M33.732,10.933H29.794V15H27.743V5.047h6.48V6.708h-4.43v2.57h3.938ZM37.368,15H35.386V7.6h1.982Zm-2.1-9.311a.973.973,0,0,1,.3-.731,1.281,1.281,0,0,1,1.617,0,.967.967,0,0,1,.3.731.97.97,0,0,1-.3.738,1.267,1.267,0,0,1-1.606,0A.97.97,0,0,1,35.27,5.689ZM43.281,15a2.194,2.194,0,0,1-.2-.663,2.39,2.39,0,0,1-1.866.8,2.626,2.626,0,0,1-1.8-.629,2.023,2.023,0,0,1-.714-1.586,2.09,2.09,0,0,1,.872-1.8,4.3,4.3,0,0,1,2.519-.636H43v-.424a1.219,1.219,0,0,0-.263-.82,1.035,1.035,0,0,0-.831-.308,1.177,1.177,0,0,0-.783.239.813.813,0,0,0-.284.656H38.865a1.984,1.984,0,0,1,.4-1.189,2.621,2.621,0,0,1,1.121-.858,4.086,4.086,0,0,1,1.627-.311,3.228,3.228,0,0,1,2.17.687,2.4,2.4,0,0,1,.8,1.931v3.206a3.536,3.536,0,0,0,.294,1.593V15Zm-1.634-1.374a1.7,1.7,0,0,0,.807-.195A1.28,1.28,0,0,0,43,12.908V11.637h-.738q-1.483,0-1.579,1.025l-.007.116a.791.791,0,0,0,.26.608A1.009,1.009,0,0,0,41.648,13.626ZM53.166,11.37a4.479,4.479,0,0,1-.759,2.772,2.513,2.513,0,0,1-2.119.995,2.309,2.309,0,0,1-1.921-.923L48.279,15H46.5V4.5h1.976V8.267a2.25,2.25,0,0,1,1.8-.8,2.534,2.534,0,0,1,2.123.995,4.485,4.485,0,0,1,.769,2.8Zm-1.976-.144a2.942,2.942,0,0,0-.355-1.637,1.2,1.2,0,0,0-1.06-.516,1.3,1.3,0,0,0-1.3.772v2.919a1.321,1.321,0,0,0,1.313.779,1.22,1.22,0,0,0,1.258-.943A4.866,4.866,0,0,0,51.191,11.227ZM56.468,15H54.486V7.6h1.982Zm-2.1-9.311a.973.973,0,0,1,.3-.731,1.281,1.281,0,0,1,1.617,0,.967.967,0,0,1,.3.731.97.97,0,0,1-.3.738,1.267,1.267,0,0,1-1.606,0A.97.97,0,0,1,54.369,5.689ZM60.18,15H58.2V4.5H60.18Zm3.712,0H61.909V7.6h1.982Zm-2.1-9.311a.973.973,0,0,1,.3-.731,1.281,1.281,0,0,1,1.617,0,.967.967,0,0,1,.3.731.97.97,0,0,1-.3.738,1.267,1.267,0,0,1-1.606,0A.97.97,0,0,1,61.793,5.689Zm3.418,5.558a4.457,4.457,0,0,1,.776-2.755A2.517,2.517,0,0,1,68.11,7.467a2.265,2.265,0,0,1,1.784.807V4.5h1.982V15H70.092l-.1-.786a2.325,2.325,0,0,1-1.9.923A2.511,2.511,0,0,1,66,14.108,4.6,4.6,0,0,1,65.211,11.247Zm1.976.144a2.912,2.912,0,0,0,.362,1.593,1.181,1.181,0,0,0,1.053.554,1.322,1.322,0,0,0,1.292-.772V9.846a1.3,1.3,0,0,0-1.278-.772Q67.187,9.073,67.187,11.391ZM77.694,15a2.194,2.194,0,0,1-.2-.663,2.39,2.39,0,0,1-1.866.8,2.626,2.626,0,0,1-1.8-.629,2.023,2.023,0,0,1-.714-1.586,2.09,2.09,0,0,1,.872-1.8,4.3,4.3,0,0,1,2.519-.636h.909v-.424a1.219,1.219,0,0,0-.263-.82,1.035,1.035,0,0,0-.831-.308,1.177,1.177,0,0,0-.783.239.813.813,0,0,0-.284.656H73.278a1.985,1.985,0,0,1,.4-1.189A2.621,2.621,0,0,1,74.8,7.778a4.086,4.086,0,0,1,1.627-.311,3.228,3.228,0,0,1,2.17.687,2.4,2.4,0,0,1,.8,1.931v3.206a3.536,3.536,0,0,0,.294,1.593V15ZM76.06,13.626a1.7,1.7,0,0,0,.807-.195,1.28,1.28,0,0,0,.547-.523V11.637h-.738q-1.483,0-1.579,1.025l-.007.116a.791.791,0,0,0,.26.608A1.009,1.009,0,0,0,76.06,13.626Zm4.546-2.379a4.457,4.457,0,0,1,.776-2.755A2.517,2.517,0,0,1,83.5,7.467a2.265,2.265,0,0,1,1.784.807V4.5h1.982V15H85.487l-.1-.786a2.325,2.325,0,0,1-1.9.923,2.511,2.511,0,0,1-2.1-1.029A4.6,4.6,0,0,1,80.606,11.247Zm1.976.144a2.912,2.912,0,0,0,.362,1.593A1.181,1.181,0,0,0,84,13.537a1.322,1.322,0,0,0,1.292-.772V9.846a1.3,1.3,0,0,0-1.278-.772Q82.581,9.073,82.581,11.391Z" transform="translate(810 1401.306)" fill="#fff"/>
    <path id="Trazado_913440" data-name="Trazado 913440" d="M31.448,12.389a1.052,1.052,0,0,0-.41-.892,5.38,5.38,0,0,0-1.477-.656,10.467,10.467,0,0,1-1.688-.68,2.759,2.759,0,0,1-1.7-2.468,2.4,2.4,0,0,1,.455-1.439,2.965,2.965,0,0,1,1.306-.988,4.914,4.914,0,0,1,1.911-.355,4.473,4.473,0,0,1,1.9.386,3.026,3.026,0,0,1,1.3,1.09,2.853,2.853,0,0,1,.461,1.6H31.455a1.342,1.342,0,0,0-.431-1.063,1.77,1.77,0,0,0-1.21-.379,1.891,1.891,0,0,0-1.169.318,1,1,0,0,0-.417.837.96.96,0,0,0,.489.813,5.522,5.522,0,0,0,1.439.615,6.217,6.217,0,0,1,2.55,1.306,2.6,2.6,0,0,1,.8,1.941,2.4,2.4,0,0,1-.978,2.027,4.279,4.279,0,0,1-2.632.735,5.082,5.082,0,0,1-2.092-.42,3.31,3.31,0,0,1-1.439-1.152,2.95,2.95,0,0,1-.5-1.7h2.058q0,1.647,1.969,1.647a1.915,1.915,0,0,0,1.142-.3A.967.967,0,0,0,31.448,12.389Zm6.72,2.748a3.631,3.631,0,0,1-2.649-1A3.548,3.548,0,0,1,34.5,11.479v-.191A4.468,4.468,0,0,1,34.928,9.3a3.161,3.161,0,0,1,1.22-1.354,3.425,3.425,0,0,1,1.8-.475,3.07,3.07,0,0,1,2.389.957,3.889,3.889,0,0,1,.872,2.714v.807H36.5a1.835,1.835,0,0,0,.578,1.162,1.746,1.746,0,0,0,1.22.438,2.132,2.132,0,0,0,1.784-.827l.971,1.087a2.966,2.966,0,0,1-1.2.981A3.947,3.947,0,0,1,38.168,15.137Zm-.226-6.07a1.237,1.237,0,0,0-.954.4,2.048,2.048,0,0,0-.468,1.135h2.748V10.44a1.46,1.46,0,0,0-.355-1.015A1.277,1.277,0,0,0,37.943,9.066Zm4.1,2.181a4.335,4.335,0,0,1,.81-2.741,2.625,2.625,0,0,1,2.184-1.039,2.3,2.3,0,0,1,1.894.834l.082-.7H48.8v7.15a3.161,3.161,0,0,1-.441,1.688,2.832,2.832,0,0,1-1.241,1.094,4.362,4.362,0,0,1-1.873.376,4.056,4.056,0,0,1-1.586-.325A2.815,2.815,0,0,1,42.5,16.75l.875-1.2a2.314,2.314,0,0,0,1.791.827,1.694,1.694,0,0,0,1.224-.42,1.577,1.577,0,0,0,.438-1.193v-.4a2.285,2.285,0,0,1-1.8.772,2.618,2.618,0,0,1-2.157-1.042,4.334,4.334,0,0,1-.824-2.765Zm1.976.144a2.692,2.692,0,0,0,.4,1.576,1.284,1.284,0,0,0,1.107.571,1.372,1.372,0,0,0,1.292-.677V9.75a1.369,1.369,0,0,0-1.278-.677,1.292,1.292,0,0,0-1.118.581A3.034,3.034,0,0,0,44.02,11.391Zm10.732,2.857a2.477,2.477,0,0,1-2.023.889,2.337,2.337,0,0,1-1.815-.684,2.918,2.918,0,0,1-.639-2V7.6H52.25v4.778q0,1.155,1.053,1.155a1.427,1.427,0,0,0,1.381-.7V7.6h1.982V15H54.807Zm7.561-4.792A5.367,5.367,0,0,0,61.6,9.4a1.447,1.447,0,0,0-1.47.759V15H58.156V7.6h1.866l.055.882a1.831,1.831,0,0,1,1.647-1.019,2.07,2.07,0,0,1,.615.089ZM65.348,15H63.365V7.6h1.982Zm-2.1-9.311a.973.973,0,0,1,.3-.731,1.281,1.281,0,0,1,1.617,0,.967.967,0,0,1,.3.731.97.97,0,0,1-.3.738,1.267,1.267,0,0,1-1.606,0A.97.97,0,0,1,63.249,5.689Zm3.418,5.558a4.457,4.457,0,0,1,.776-2.755,2.517,2.517,0,0,1,2.123-1.025,2.265,2.265,0,0,1,1.784.807V4.5h1.982V15H71.548l-.1-.786a2.325,2.325,0,0,1-1.9.923,2.511,2.511,0,0,1-2.1-1.029A4.6,4.6,0,0,1,66.667,11.247Zm1.976.144a2.912,2.912,0,0,0,.362,1.593,1.181,1.181,0,0,0,1.053.554,1.322,1.322,0,0,0,1.292-.772V9.846a1.3,1.3,0,0,0-1.278-.772Q68.643,9.073,68.643,11.391ZM79.15,15a2.194,2.194,0,0,1-.2-.663,2.39,2.39,0,0,1-1.866.8,2.626,2.626,0,0,1-1.8-.629,2.023,2.023,0,0,1-.714-1.586,2.09,2.09,0,0,1,.872-1.8,4.3,4.3,0,0,1,2.519-.636h.909v-.424a1.219,1.219,0,0,0-.263-.82,1.035,1.035,0,0,0-.831-.308,1.177,1.177,0,0,0-.783.239.813.813,0,0,0-.284.656H74.734a1.985,1.985,0,0,1,.4-1.189,2.621,2.621,0,0,1,1.121-.858,4.086,4.086,0,0,1,1.627-.311,3.228,3.228,0,0,1,2.17.687,2.4,2.4,0,0,1,.8,1.931v3.206a3.536,3.536,0,0,0,.294,1.593V15Zm-1.634-1.374a1.7,1.7,0,0,0,.807-.195,1.28,1.28,0,0,0,.547-.523V11.637h-.738q-1.483,0-1.579,1.025l-.007.116a.791.791,0,0,0,.26.608A1.009,1.009,0,0,0,77.516,13.626Zm4.546-2.379a4.457,4.457,0,0,1,.776-2.755A2.517,2.517,0,0,1,84.96,7.467a2.265,2.265,0,0,1,1.784.807V4.5h1.982V15H86.943l-.1-.786a2.325,2.325,0,0,1-1.9.923,2.511,2.511,0,0,1-2.1-1.029A4.6,4.6,0,0,1,82.062,11.247Zm1.976.144a2.912,2.912,0,0,0,.362,1.593,1.181,1.181,0,0,0,1.053.554,1.322,1.322,0,0,0,1.292-.772V9.846a1.3,1.3,0,0,0-1.278-.772Q84.037,9.073,84.037,11.391Z" transform="translate(974.142 1401.306)" fill="#fff"/>
    <path id="Trazado_913441" data-name="Trazado 913441" d="M14.136,5.047l2.557,7.219,2.543-7.219h2.693V15H19.872V12.279l.205-4.7L17.39,15H15.982L13.3,7.59l.205,4.689V15H11.457V5.047ZM27.877,15a2.194,2.194,0,0,1-.2-.663,2.39,2.39,0,0,1-1.866.8,2.626,2.626,0,0,1-1.8-.629,2.023,2.023,0,0,1-.714-1.586,2.09,2.09,0,0,1,.872-1.8,4.3,4.3,0,0,1,2.519-.636H27.6v-.424a1.219,1.219,0,0,0-.263-.82A1.035,1.035,0,0,0,26.5,8.93a1.177,1.177,0,0,0-.783.239.813.813,0,0,0-.284.656H23.461a1.984,1.984,0,0,1,.4-1.189,2.621,2.621,0,0,1,1.121-.858,4.086,4.086,0,0,1,1.627-.311,3.228,3.228,0,0,1,2.17.687,2.4,2.4,0,0,1,.8,1.931v3.206a3.536,3.536,0,0,0,.294,1.593V15Zm-1.634-1.374a1.7,1.7,0,0,0,.807-.195,1.28,1.28,0,0,0,.547-.523V11.637h-.738q-1.483,0-1.579,1.025l-.007.116a.791.791,0,0,0,.26.608A1.009,1.009,0,0,0,26.243,13.626ZM32.915,7.6l.062.854A2.582,2.582,0,0,1,35.1,7.467a2.146,2.146,0,0,1,1.75.69,3.221,3.221,0,0,1,.588,2.064V15H35.465V10.27a1.282,1.282,0,0,0-.273-.913,1.224,1.224,0,0,0-.909-.284,1.359,1.359,0,0,0-1.251.711V15H31.055V7.6ZM41.3,5.785V7.6h1.265V9.053H41.3v3.691a.881.881,0,0,0,.157.588.79.79,0,0,0,.6.178,3.15,3.15,0,0,0,.581-.048v1.5a4.067,4.067,0,0,1-1.2.178,1.886,1.886,0,0,1-2.119-2.1V9.053h-1.08V7.6h1.08V5.785Zm5.77,9.352a3.631,3.631,0,0,1-2.649-1A3.548,3.548,0,0,1,43.4,11.479v-.191A4.468,4.468,0,0,1,43.832,9.3a3.161,3.161,0,0,1,1.22-1.354,3.425,3.425,0,0,1,1.8-.475,3.07,3.07,0,0,1,2.389.957,3.889,3.889,0,0,1,.872,2.714v.807H45.4a1.835,1.835,0,0,0,.578,1.162,1.746,1.746,0,0,0,1.22.438,2.132,2.132,0,0,0,1.784-.827l.971,1.087a2.966,2.966,0,0,1-1.2.981A3.947,3.947,0,0,1,47.072,15.137Zm-.226-6.07a1.237,1.237,0,0,0-.954.4,2.048,2.048,0,0,0-.468,1.135h2.748V10.44a1.46,1.46,0,0,0-.355-1.015A1.277,1.277,0,0,0,46.846,9.066ZM53.053,7.6l.062.854a2.582,2.582,0,0,1,2.126-.991,2.146,2.146,0,0,1,1.75.69,3.221,3.221,0,0,1,.588,2.064V15H55.6V10.27a1.282,1.282,0,0,0-.273-.913,1.224,1.224,0,0,0-.909-.284,1.359,1.359,0,0,0-1.251.711V15H51.194V7.6ZM61.161,15H59.178V7.6h1.982Zm-2.1-9.311a.973.973,0,0,1,.3-.731,1.281,1.281,0,0,1,1.617,0,.967.967,0,0,1,.3.731.97.97,0,0,1-.3.738,1.267,1.267,0,0,1-1.606,0A.97.97,0,0,1,59.062,5.689ZM69.453,11.37a4.479,4.479,0,0,1-.759,2.772,2.513,2.513,0,0,1-2.119.995,2.309,2.309,0,0,1-1.921-.923L64.565,15H62.788V4.5h1.976V8.267a2.25,2.25,0,0,1,1.8-.8,2.534,2.534,0,0,1,2.123.995,4.485,4.485,0,0,1,.769,2.8Zm-1.976-.144a2.942,2.942,0,0,0-.355-1.637,1.2,1.2,0,0,0-1.06-.516,1.3,1.3,0,0,0-1.3.772v2.919a1.321,1.321,0,0,0,1.313.779,1.22,1.22,0,0,0,1.258-.943A4.866,4.866,0,0,0,67.477,11.227ZM72.755,15H70.772V7.6h1.982Zm-2.1-9.311a.973.973,0,0,1,.3-.731,1.281,1.281,0,0,1,1.617,0,.967.967,0,0,1,.3.731.97.97,0,0,1-.3.738,1.267,1.267,0,0,1-1.606,0A.97.97,0,0,1,70.656,5.689ZM76.467,15H74.484V4.5h1.982Zm3.712,0H78.2V7.6h1.982Zm-2.1-9.311a.973.973,0,0,1,.3-.731,1.281,1.281,0,0,1,1.617,0,.967.967,0,0,1,.3.731.97.97,0,0,1-.3.738,1.267,1.267,0,0,1-1.606,0A.97.97,0,0,1,78.08,5.689ZM81.5,11.247a4.457,4.457,0,0,1,.776-2.755A2.517,2.517,0,0,1,84.4,7.467a2.265,2.265,0,0,1,1.784.807V4.5h1.982V15H86.379l-.1-.786a2.325,2.325,0,0,1-1.9.923,2.511,2.511,0,0,1-2.1-1.029A4.6,4.6,0,0,1,81.5,11.247Zm1.976.144a2.912,2.912,0,0,0,.362,1.593,1.181,1.181,0,0,0,1.053.554,1.322,1.322,0,0,0,1.292-.772V9.846A1.3,1.3,0,0,0,84.9,9.073Q83.473,9.073,83.473,11.391ZM93.98,15a2.194,2.194,0,0,1-.2-.663,2.39,2.39,0,0,1-1.866.8,2.626,2.626,0,0,1-1.8-.629,2.023,2.023,0,0,1-.714-1.586,2.09,2.09,0,0,1,.872-1.8,4.3,4.3,0,0,1,2.519-.636H93.7v-.424a1.219,1.219,0,0,0-.263-.82,1.035,1.035,0,0,0-.831-.308,1.177,1.177,0,0,0-.783.239.813.813,0,0,0-.284.656H89.564a1.985,1.985,0,0,1,.4-1.189,2.621,2.621,0,0,1,1.121-.858,4.086,4.086,0,0,1,1.627-.311,3.228,3.228,0,0,1,2.17.687,2.4,2.4,0,0,1,.8,1.931v3.206a3.536,3.536,0,0,0,.294,1.593V15Zm-1.634-1.374a1.7,1.7,0,0,0,.807-.195,1.28,1.28,0,0,0,.547-.523V11.637h-.738q-1.483,0-1.579,1.025l-.007.116a.791.791,0,0,0,.26.608A1.009,1.009,0,0,0,92.346,13.626Zm4.546-2.379a4.457,4.457,0,0,1,.776-2.755,2.517,2.517,0,0,1,2.123-1.025,2.265,2.265,0,0,1,1.784.807V4.5h1.982V15h-1.784l-.1-.786a2.325,2.325,0,0,1-1.9.923,2.511,2.511,0,0,1-2.1-1.029A4.6,4.6,0,0,1,96.892,11.247Zm1.976.144a2.912,2.912,0,0,0,.362,1.593,1.181,1.181,0,0,0,1.053.554,1.322,1.322,0,0,0,1.292-.772V9.846a1.3,1.3,0,0,0-1.278-.772Q98.868,9.073,98.868,11.391Z" transform="translate(1132 1401.306)" fill="#fff"/>
    <path id="Trazado_913442" data-name="Trazado 913442" d="M21.967,11.493V15H19.916V5.047H23.8a4.492,4.492,0,0,1,1.972.41A3.022,3.022,0,0,1,27.08,6.623a3.25,3.25,0,0,1,.458,1.719,2.858,2.858,0,0,1-1,2.307,4.171,4.171,0,0,1-2.772.844Zm0-1.661H23.8a1.8,1.8,0,0,0,1.241-.383,1.392,1.392,0,0,0,.427-1.094,1.642,1.642,0,0,0-.431-1.183,1.609,1.609,0,0,0-1.189-.465h-1.88Zm6.453,1.4a4.387,4.387,0,0,1,.424-1.962,3.1,3.1,0,0,1,1.22-1.333,3.56,3.56,0,0,1,1.849-.472,3.368,3.368,0,0,1,2.444.916,3.676,3.676,0,0,1,1.056,2.488l.014.506a3.866,3.866,0,0,1-.95,2.731,3.683,3.683,0,0,1-5.1,0,3.934,3.934,0,0,1-.954-2.789Zm1.976.144a2.757,2.757,0,0,0,.4,1.61,1.426,1.426,0,0,0,2.256.007,3.017,3.017,0,0,0,.4-1.76,2.73,2.73,0,0,0-.4-1.6,1.312,1.312,0,0,0-1.135-.567,1.29,1.29,0,0,0-1.121.564A3.068,3.068,0,0,0,30.4,11.377ZM40.8,9.456a5.367,5.367,0,0,0-.711-.055,1.447,1.447,0,0,0-1.47.759V15H36.644V7.6H38.51l.055.882a1.831,1.831,0,0,1,1.647-1.019,2.07,2.07,0,0,1,.615.089Zm3.657-3.671V7.6h1.265V9.053H44.457v3.691a.881.881,0,0,0,.157.588.79.79,0,0,0,.6.178,3.15,3.15,0,0,0,.581-.048v1.5a4.067,4.067,0,0,1-1.2.178,1.886,1.886,0,0,1-2.119-2.1V9.053H41.4V7.6h1.08V5.785ZM51.109,15a2.194,2.194,0,0,1-.2-.663,2.39,2.39,0,0,1-1.866.8,2.626,2.626,0,0,1-1.8-.629,2.023,2.023,0,0,1-.714-1.586,2.09,2.09,0,0,1,.872-1.8,4.3,4.3,0,0,1,2.519-.636h.909v-.424a1.219,1.219,0,0,0-.263-.82,1.035,1.035,0,0,0-.831-.308,1.177,1.177,0,0,0-.783.239.813.813,0,0,0-.284.656H46.693a1.984,1.984,0,0,1,.4-1.189,2.621,2.621,0,0,1,1.121-.858,4.086,4.086,0,0,1,1.627-.311,3.228,3.228,0,0,1,2.17.687,2.4,2.4,0,0,1,.8,1.931v3.206a3.536,3.536,0,0,0,.294,1.593V15Zm-1.634-1.374a1.7,1.7,0,0,0,.807-.195,1.28,1.28,0,0,0,.547-.523V11.637H50.09q-1.483,0-1.579,1.025l-.007.116a.791.791,0,0,0,.26.608A1.009,1.009,0,0,0,49.475,13.626ZM60.993,11.37a4.479,4.479,0,0,1-.759,2.772,2.513,2.513,0,0,1-2.119.995,2.309,2.309,0,0,1-1.921-.923L56.106,15H54.328V4.5H56.3V8.267a2.25,2.25,0,0,1,1.8-.8,2.534,2.534,0,0,1,2.123.995,4.485,4.485,0,0,1,.769,2.8Zm-1.976-.144a2.942,2.942,0,0,0-.355-1.637,1.2,1.2,0,0,0-1.06-.516,1.3,1.3,0,0,0-1.3.772v2.919a1.321,1.321,0,0,0,1.313.779,1.22,1.22,0,0,0,1.258-.943A4.866,4.866,0,0,0,59.018,11.227ZM64.3,15H62.313V7.6H64.3ZM62.2,5.689a.973.973,0,0,1,.3-.731,1.281,1.281,0,0,1,1.617,0,.967.967,0,0,1,.3.731.97.97,0,0,1-.3.738,1.267,1.267,0,0,1-1.606,0A.97.97,0,0,1,62.2,5.689ZM68.007,15H66.025V4.5h1.982Zm3.712,0H69.737V7.6h1.982Zm-2.1-9.311a.973.973,0,0,1,.3-.731,1.281,1.281,0,0,1,1.617,0,.967.967,0,0,1,.3.731.97.97,0,0,1-.3.738,1.267,1.267,0,0,1-1.606,0A.97.97,0,0,1,69.62,5.689Zm3.418,5.558a4.457,4.457,0,0,1,.776-2.755,2.517,2.517,0,0,1,2.123-1.025,2.265,2.265,0,0,1,1.784.807V4.5H79.7V15H77.919l-.1-.786a2.325,2.325,0,0,1-1.9.923,2.511,2.511,0,0,1-2.1-1.029A4.6,4.6,0,0,1,73.038,11.247Zm1.976.144a2.912,2.912,0,0,0,.362,1.593,1.181,1.181,0,0,0,1.053.554,1.322,1.322,0,0,0,1.292-.772V9.846a1.3,1.3,0,0,0-1.278-.772Q75.014,9.073,75.014,11.391ZM85.521,15a2.194,2.194,0,0,1-.2-.663,2.39,2.39,0,0,1-1.866.8,2.626,2.626,0,0,1-1.8-.629,2.023,2.023,0,0,1-.714-1.586,2.09,2.09,0,0,1,.872-1.8,4.3,4.3,0,0,1,2.519-.636h.909v-.424a1.219,1.219,0,0,0-.263-.82,1.035,1.035,0,0,0-.831-.308,1.177,1.177,0,0,0-.783.239.813.813,0,0,0-.284.656H81.1a1.985,1.985,0,0,1,.4-1.189,2.621,2.621,0,0,1,1.121-.858,4.086,4.086,0,0,1,1.627-.311,3.228,3.228,0,0,1,2.17.687,2.4,2.4,0,0,1,.8,1.931v3.206a3.536,3.536,0,0,0,.294,1.593V15Zm-1.634-1.374a1.7,1.7,0,0,0,.807-.195,1.28,1.28,0,0,0,.547-.523V11.637H84.5q-1.483,0-1.579,1.025l-.007.116a.791.791,0,0,0,.26.608A1.009,1.009,0,0,0,83.887,13.626Zm4.546-2.379a4.457,4.457,0,0,1,.776-2.755,2.517,2.517,0,0,1,2.123-1.025,2.265,2.265,0,0,1,1.784.807V4.5H95.1V15H93.314l-.1-.786a2.325,2.325,0,0,1-1.9.923,2.511,2.511,0,0,1-2.1-1.029A4.6,4.6,0,0,1,88.433,11.247Zm1.976.144a2.912,2.912,0,0,0,.362,1.593,1.181,1.181,0,0,0,1.053.554,1.322,1.322,0,0,0,1.292-.772V9.846a1.3,1.3,0,0,0-1.278-.772Q90.408,9.073,90.408,11.391Z" transform="translate(1287.725 1401.306)" fill="#fff"/>
    <rect id="Rectángulo_409673" data-name="Rectángulo 409673" width="148.717" height="311" transform="translate(1271.283 1443.908)" fill="#f2f2f2"/>
    <rect id="Rectángulo_409680" data-name="Rectángulo 409680" width="149" height="311" transform="translate(645.283 1443.908)" fill="#f2f2f2"/>
    <rect id="Rectángulo_409676" data-name="Rectángulo 409676" width="148.717" height="311" transform="translate(957.283 1443.908)" fill="#f2f2f2"/>
    <rect id="Rectángulo_409678" data-name="Rectángulo 409678" width="148.717" height="311" transform="translate(331.283 1443.908)" fill="#f2f2f2"/>
    <rect id="Rectángulo_409674" data-name="Rectángulo 409674" width="148.717" height="311" transform="translate(1114.283 1443.908)" fill="#f2f2f2"/>
    <rect id="Rectángulo_409679" data-name="Rectángulo 409679" width="148.717" height="311" transform="translate(488.283 1443.908)" fill="#f2f2f2"/>
    <rect id="Rectángulo_409675" data-name="Rectángulo 409675" width="148.717" height="311" transform="translate(800.283 1443.908)" fill="#f2f2f2"/>
    <rect id="Rectángulo_409677" data-name="Rectángulo 409677" width="143" height="311" transform="translate(180 1443.908)" fill="#f2f2f2"/>
    <text id="Completitud_funcional_Corrección_funcional_Pertinencia_funcional" data-name="Completitud funcional

Corrección funcional

Pertinencia funcional" transform="translate(201.551 1457.33)" fill="#12263f" font-size="14" font-family="Roboto-Regular, Roboto"><tspan x="0" y="15">Completitud </tspan><tspan x="0" y="35">funcional</tspan><tspan x="0" y="55"></tspan><tspan x="0" y="75">Corrección </tspan><tspan x="0" y="95">funcional</tspan><tspan x="0" y="115"></tspan><tspan x="0" y="135">Pertinencia </tspan><tspan x="0" y="155">funcional</tspan></text>
    <text id="Comportamiento_temporal_Utilización_de_recursos_Capacidad" data-name="Comportamiento temporal

Utilización de recursos

Capacidad" transform="translate(350.5 1457.33)" fill="#12263f" font-size="14" font-family="Roboto-Regular, Roboto"><tspan x="0" y="15">Comportamiento </tspan><tspan x="0" y="35">temporal</tspan><tspan x="0" y="55"></tspan><tspan x="0" y="75">Utilización de </tspan><tspan x="0" y="95">recursos</tspan><tspan x="0" y="115"></tspan><tspan x="0" y="135">Capacidad</tspan></text>
    <text id="Coexistencia_Interoperabilidad" data-name="Coexistencia

Interoperabilidad" transform="translate(511.917 1457.33)" fill="#12263f" font-size="14" font-family="Roboto-Regular, Roboto"><tspan x="0" y="15">Coexistencia</tspan><tspan x="0" y="35"></tspan><tspan x="0" y="55">Interoperabilidad</tspan></text>
    <text id="Inteligibilidad_Aprendizaje_Operabilidad_Protección_frente_a_errores_de_usuario_Estética_Accesibilidad" data-name="Inteligibilidad

Aprendizaje

Operabilidad

Protección frente a errores de usuario

Estética

Accesibilidad" transform="translate(664.051 1457.33)" fill="#12263f" font-size="14" font-family="Roboto-Regular, Roboto"><tspan x="0" y="15">Inteligibilidad</tspan><tspan x="0" y="35"></tspan><tspan x="0" y="55">Aprendizaje</tspan><tspan x="0" y="75"></tspan><tspan x="0" y="95">Operabilidad</tspan><tspan x="0" y="115"></tspan><tspan x="0" y="135">Protección frente </tspan><tspan x="0" y="155">a errores de </tspan><tspan x="0" y="175">usuario</tspan><tspan x="0" y="195"></tspan><tspan x="0" y="215">Estética</tspan><tspan x="0" y="235"></tspan><tspan x="0" y="255">Accesibilidad</tspan></text>
    <text id="Madurez_Disponibilidad_Tolerancia_a_fallos_Capacidad_de_recuperación_" data-name="Madurez

Disponibilidad

Tolerancia a fallos

Capacidad de recuperación
" transform="translate(822.142 1457.33)" fill="#12263f" font-size="14" font-family="Roboto-Regular, Roboto"><tspan x="0" y="15">Madurez</tspan><tspan x="0" y="35"></tspan><tspan x="0" y="55">Disponibilidad</tspan><tspan x="0" y="75"></tspan><tspan x="0" y="95">Tolerancia a </tspan><tspan x="0" y="115">fallos</tspan><tspan x="0" y="135"></tspan><tspan x="0" y="155">Capacidad de </tspan><tspan x="0" y="175">recuperación</tspan><tspan x="0" y="195"></tspan></text>
    <text id="Confidencialidad_Integridad_No_repudio_Autenticidad_Responsabilidad_" data-name="Confidencialidad

Integridad

No repudio

Autenticidad

Responsabilidad
" transform="translate(979.142 1457.33)" fill="#12263f" font-size="14" font-family="Roboto-Regular, Roboto"><tspan x="0" y="15">Confidencialidad</tspan><tspan x="0" y="35"></tspan><tspan x="0" y="55">Integridad</tspan><tspan x="0" y="75"></tspan><tspan x="0" y="95">No repudio</tspan><tspan x="0" y="115"></tspan><tspan x="0" y="135">Autenticidad</tspan><tspan x="0" y="155"></tspan><tspan x="0" y="175">Responsabilidad</tspan><tspan x="0" y="195"></tspan></text>
    <text id="Modularidad_Reusabilidad_Analizabilidad_Capacidad_de_ser_modificado_Capacidad_de_ser_probado" data-name="Modularidad

Reusabilidad

Analizabilidad

Capacidad de ser modificado

Capacidad de ser probado" transform="translate(1139.471 1457.33)" fill="#12263f" font-size="14" font-family="Roboto-Regular, Roboto"><tspan x="0" y="15">Modularidad</tspan><tspan x="0" y="35"></tspan><tspan x="0" y="55">Reusabilidad</tspan><tspan x="0" y="75"></tspan><tspan x="0" y="95">Analizabilidad</tspan><tspan x="0" y="115"></tspan><tspan x="0" y="135">Capacidad de ser </tspan><tspan x="0" y="155">modificado</tspan><tspan x="0" y="175"></tspan><tspan x="0" y="195">Capacidad de ser </tspan><tspan x="0" y="215">probado</tspan></text>
    <text id="Adaptabilidad_Facilidad_de_instalación_Capacidad_de_ser_reemplazado_" data-name="Adaptabilidad

Facilidad de instalación

Capacidad de ser reemplazado
" transform="translate(1293.275 1457.33)" fill="#12263f" font-size="14" font-family="Roboto-Regular, Roboto"><tspan x="0" y="15">Adaptabilidad</tspan><tspan x="0" y="35"></tspan><tspan x="0" y="55">Facilidad de </tspan><tspan x="0" y="75">instalación</tspan><tspan x="0" y="95"></tspan><tspan x="0" y="115">Capacidad de ser </tspan><tspan x="0" y="135">reemplazado</tspan><tspan x="0" y="155"></tspan></text>
    <line id="Línea_204" data-name="Línea 204" y2="38" transform="translate(799.551 1303.806)" fill="none" stroke="#707070" stroke-width="2"/>
    <line id="Línea_206" data-name="Línea 206" y2="32" transform="translate(246.551 1342.806)" fill="none" stroke="#707070" stroke-linecap="round" stroke-width="2"/>
    <line id="Línea_207" data-name="Línea 207" y2="32" transform="translate(405.5 1342.806)" fill="none" stroke="#707070" stroke-linecap="round" stroke-width="2"/>
    <line id="Línea_208" data-name="Línea 208" y2="32" transform="translate(562.642 1342.806)" fill="none" stroke="#707070" stroke-linecap="round" stroke-width="2"/>
    <line id="Línea_209" data-name="Línea 209" y2="32" transform="translate(715.924 1342.806)" fill="none" stroke="#707070" stroke-linecap="round" stroke-width="2"/>
    <line id="Línea_210" data-name="Línea 210" y2="32" transform="translate(874.641 1342.806)" fill="none" stroke="#707070" stroke-linecap="round" stroke-width="2"/>
    <line id="Línea_211" data-name="Línea 211" y2="32" transform="translate(1031.783 1342.806)" fill="none" stroke="#707070" stroke-linecap="round" stroke-width="2"/>
    <line id="Línea_212" data-name="Línea 212" y2="32" transform="translate(1188.783 1342.806)" fill="none" stroke="#707070" stroke-linecap="round" stroke-width="2"/>
    <line id="Línea_213" data-name="Línea 213" y2="32" transform="translate(1345.5 1342.806)" fill="none" stroke="#707070" stroke-linecap="round" stroke-width="2"/>
    <line id="Línea_205" data-name="Línea 205" x2="1099" transform="translate(246.551 1341.806)" fill="none" stroke="#707070" stroke-linecap="round" stroke-width="2"/>
    <path id="circle-check-solid" d="M4.735,9.471A4.735,4.735,0,1,0,0,4.735,4.735,4.735,0,0,0,4.735,9.471Zm2.09-5.6L4.458,6.234a.442.442,0,0,1-.627,0L2.647,5.05a.443.443,0,0,1,.627-.627l.869.869L6.2,3.237a.443.443,0,0,1,.627.627Z" transform="translate(189.08 1461.41)" fill="#2c86a7"/>
    <path id="circle-check-solid-2" data-name="circle-check-solid" d="M4.735,9.471A4.735,4.735,0,1,0,0,4.735,4.735,4.735,0,0,0,4.735,9.471Zm2.09-5.6L4.458,6.234a.442.442,0,0,1-.627,0L2.647,5.05a.443.443,0,0,1,.627-.627l.869.869L6.2,3.237a.443.443,0,0,1,.627.627Z" transform="translate(337.08 1461.41)" fill="#2c86a7"/>
    <path id="circle-check-solid-3" data-name="circle-check-solid" d="M4.735,9.471A4.735,4.735,0,1,0,0,4.735,4.735,4.735,0,0,0,4.735,9.471Zm2.09-5.6L4.458,6.234a.442.442,0,0,1-.627,0L2.647,5.05a.443.443,0,0,1,.627-.627l.869.869L6.2,3.237a.443.443,0,0,1,.627.627Z" transform="translate(498.631 1461.41)" fill="#2c86a7"/>
    <path id="circle-check-solid-4" data-name="circle-check-solid" d="M4.735,9.471A4.735,4.735,0,1,0,0,4.735,4.735,4.735,0,0,0,4.735,9.471Zm2.09-5.6L4.458,6.234a.442.442,0,0,1-.627,0L2.647,5.05a.443.443,0,0,1,.627-.627l.869.869L6.2,3.237a.443.443,0,0,1,.627.627Z" transform="translate(651.7 1461.41)" fill="#2c86a7"/>
    <path id="circle-check-solid-5" data-name="circle-check-solid" d="M4.735,9.471A4.735,4.735,0,1,0,0,4.735,4.735,4.735,0,0,0,4.735,9.471Zm2.09-5.6L4.458,6.234a.442.442,0,0,1-.627,0L2.647,5.05a.443.443,0,0,1,.627-.627l.869.869L6.2,3.237a.443.443,0,0,1,.627.627Z" transform="translate(810 1461.41)" fill="#2c86a7"/>
    <path id="circle-check-solid-6" data-name="circle-check-solid" d="M4.735,9.471A4.735,4.735,0,1,0,0,4.735,4.735,4.735,0,0,0,4.735,9.471Zm2.09-5.6L4.458,6.234a.442.442,0,0,1-.627,0L2.647,5.05a.443.443,0,0,1,.627-.627l.869.869L6.2,3.237a.443.443,0,0,1,.627.627Z" transform="translate(964.671 1460.41)" fill="#2c86a7"/>
    <path id="circle-check-solid-7" data-name="circle-check-solid" d="M4.735,9.471A4.735,4.735,0,1,0,0,4.735,4.735,4.735,0,0,0,4.735,9.471Zm2.09-5.6L4.458,6.234a.442.442,0,0,1-.627,0L2.647,5.05a.443.443,0,0,1,.627-.627l.869.869L6.2,3.237a.443.443,0,0,1,.627.627Z" transform="translate(1125 1460.41)" fill="#2c86a7"/>
    <path id="circle-check-solid-8" data-name="circle-check-solid" d="M4.735,9.471A4.735,4.735,0,1,0,0,4.735,4.735,4.735,0,0,0,4.735,9.471Zm2.09-5.6L4.458,6.234a.442.442,0,0,1-.627,0L2.647,5.05a.443.443,0,0,1,.627-.627l.869.869L6.2,3.237a.443.443,0,0,1,.627.627Z" transform="translate(1280 1460.41)" fill="#2c86a7"/>
    <path id="circle-check-solid-9" data-name="circle-check-solid" d="M4.735,9.471A4.735,4.735,0,1,0,0,4.735,4.735,4.735,0,0,0,4.735,9.471Zm2.09-5.6L4.458,6.234a.442.442,0,0,1-.627,0L2.647,5.05a.443.443,0,0,1,.627-.627l.869.869L6.2,3.237a.443.443,0,0,1,.627.627Z" transform="translate(1280 1501.41)" fill="#2c86a7"/>
    <path id="circle-check-solid-10" data-name="circle-check-solid" d="M4.735,9.471A4.735,4.735,0,1,0,0,4.735,4.735,4.735,0,0,0,4.735,9.471Zm2.09-5.6L4.458,6.234a.442.442,0,0,1-.627,0L2.647,5.05a.443.443,0,0,1,.627-.627l.869.869L6.2,3.237a.443.443,0,0,1,.627.627Z" transform="translate(1280 1561.095)" fill="#2c86a7"/>
    <path id="circle-check-solid-11" data-name="circle-check-solid" d="M4.735,9.471A4.735,4.735,0,1,0,0,4.735,4.735,4.735,0,0,0,4.735,9.471Zm2.09-5.6L4.458,6.234a.442.442,0,0,1-.627,0L2.647,5.05a.443.443,0,0,1,.627-.627l.869.869L6.2,3.237a.443.443,0,0,1,.627.627Z" transform="translate(1125 1501.41)" fill="#2c86a7"/>
    <path id="circle-check-solid-12" data-name="circle-check-solid" d="M4.735,9.471A4.735,4.735,0,1,0,0,4.735,4.735,4.735,0,0,0,4.735,9.471Zm2.09-5.6L4.458,6.234a.442.442,0,0,1-.627,0L2.647,5.05a.443.443,0,0,1,.627-.627l.869.869L6.2,3.237a.443.443,0,0,1,.627.627Z" transform="translate(1125 1542.41)" fill="#2c86a7"/>
    <path id="circle-check-solid-13" data-name="circle-check-solid" d="M4.735,9.471A4.735,4.735,0,1,0,0,4.735,4.735,4.735,0,0,0,4.735,9.471Zm2.09-5.6L4.458,6.234a.442.442,0,0,1-.627,0L2.647,5.05a.443.443,0,0,1,.627-.627l.869.869L6.2,3.237a.443.443,0,0,1,.627.627Z" transform="translate(1125 1581.095)" fill="#2c86a7"/>
    <path id="circle-check-solid-14" data-name="circle-check-solid" d="M4.735,9.471A4.735,4.735,0,1,0,0,4.735,4.735,4.735,0,0,0,4.735,9.471Zm2.09-5.6L4.458,6.234a.442.442,0,0,1-.627,0L2.647,5.05a.443.443,0,0,1,.627-.627l.869.869L6.2,3.237a.443.443,0,0,1,.627.627Z" transform="translate(1125 1640.095)" fill="#2c86a7"/>
    <path id="circle-check-solid-15" data-name="circle-check-solid" d="M4.735,9.471A4.735,4.735,0,1,0,0,4.735,4.735,4.735,0,0,0,4.735,9.471Zm2.09-5.6L4.458,6.234a.442.442,0,0,1-.627,0L2.647,5.05a.443.443,0,0,1,.627-.627l.869.869L6.2,3.237a.443.443,0,0,1,.627.627Z" transform="translate(964.671 1501.41)" fill="#2c86a7"/>
    <path id="circle-check-solid-16" data-name="circle-check-solid" d="M4.735,9.471A4.735,4.735,0,1,0,0,4.735,4.735,4.735,0,0,0,4.735,9.471Zm2.09-5.6L4.458,6.234a.442.442,0,0,1-.627,0L2.647,5.05a.443.443,0,0,1,.627-.627l.869.869L6.2,3.237a.443.443,0,0,1,.627.627Z" transform="translate(964.671 1541.41)" fill="#2c86a7"/>
    <path id="circle-check-solid-17" data-name="circle-check-solid" d="M4.735,9.471A4.735,4.735,0,1,0,0,4.735,4.735,4.735,0,0,0,4.735,9.471Zm2.09-5.6L4.458,6.234a.442.442,0,0,1-.627,0L2.647,5.05a.443.443,0,0,1,.627-.627l.869.869L6.2,3.237a.443.443,0,0,1,.627.627Z" transform="translate(964.671 1581.095)" fill="#2c86a7"/>
    <path id="circle-check-solid-18" data-name="circle-check-solid" d="M4.735,9.471A4.735,4.735,0,1,0,0,4.735,4.735,4.735,0,0,0,4.735,9.471Zm2.09-5.6L4.458,6.234a.442.442,0,0,1-.627,0L2.647,5.05a.443.443,0,0,1,.627-.627l.869.869L6.2,3.237a.443.443,0,0,1,.627.627Z" transform="translate(964.671 1620.779)" fill="#2c86a7"/>
    <path id="circle-check-solid-19" data-name="circle-check-solid" d="M4.735,9.471A4.735,4.735,0,1,0,0,4.735,4.735,4.735,0,0,0,4.735,9.471Zm2.09-5.6L4.458,6.234a.442.442,0,0,1-.627,0L2.647,5.05a.443.443,0,0,1,.627-.627l.869.869L6.2,3.237a.443.443,0,0,1,.627.627Z" transform="translate(810 1501.41)" fill="#2c86a7"/>
    <path id="circle-check-solid-20" data-name="circle-check-solid" d="M4.735,9.471A4.735,4.735,0,1,0,0,4.735,4.735,4.735,0,0,0,4.735,9.471Zm2.09-5.6L4.458,6.234a.442.442,0,0,1-.627,0L2.647,5.05a.443.443,0,0,1,.627-.627l.869.869L6.2,3.237a.443.443,0,0,1,.627.627Z" transform="translate(810 1541.41)" fill="#2c86a7"/>
    <path id="circle-check-solid-21" data-name="circle-check-solid" d="M4.735,9.471A4.735,4.735,0,1,0,0,4.735,4.735,4.735,0,0,0,4.735,9.471Zm2.09-5.6L4.458,6.234a.442.442,0,0,1-.627,0L2.647,5.05a.443.443,0,0,1,.627-.627l.869.869L6.2,3.237a.443.443,0,0,1,.627.627Z" transform="translate(810 1600.41)" fill="#2c86a7"/>
    <path id="circle-check-solid-22" data-name="circle-check-solid" d="M4.735,9.471A4.735,4.735,0,1,0,0,4.735,4.735,4.735,0,0,0,4.735,9.471Zm2.09-5.6L4.458,6.234a.442.442,0,0,1-.627,0L2.647,5.05a.443.443,0,0,1,.627-.627l.869.869L6.2,3.237a.443.443,0,0,1,.627.627Z" transform="translate(651.7 1501.41)" fill="#2c86a7"/>
    <path id="circle-check-solid-23" data-name="circle-check-solid" d="M4.735,9.471A4.735,4.735,0,1,0,0,4.735,4.735,4.735,0,0,0,4.735,9.471Zm2.09-5.6L4.458,6.234a.442.442,0,0,1-.627,0L2.647,5.05a.443.443,0,0,1,.627-.627l.869.869L6.2,3.237a.443.443,0,0,1,.627.627Z" transform="translate(651.7 1541.41)" fill="#2c86a7"/>
    <path id="circle-check-solid-24" data-name="circle-check-solid" d="M4.735,9.471A4.735,4.735,0,1,0,0,4.735,4.735,4.735,0,0,0,4.735,9.471Zm2.09-5.6L4.458,6.234a.442.442,0,0,1-.627,0L2.647,5.05a.443.443,0,0,1,.627-.627l.869.869L6.2,3.237a.443.443,0,0,1,.627.627Z" transform="translate(651.7 1581.095)" fill="#2c86a7"/>
    <path id="circle-check-solid-25" data-name="circle-check-solid" d="M4.489,8.978A4.489,4.489,0,1,0,0,4.489,4.489,4.489,0,0,0,4.489,8.978ZM6.47,3.665,4.226,5.909a.419.419,0,0,1-.594,0L2.509,4.787A.42.42,0,0,1,3.1,4.192l.824.824L5.874,3.068a.42.42,0,1,1,.594.594Z" transform="translate(651.946 1661.342)" fill="#2c86a7"/>
    <path id="circle-check-solid-26" data-name="circle-check-solid" d="M4.489,8.978A4.489,4.489,0,1,0,0,4.489,4.489,4.489,0,0,0,4.489,8.978ZM6.47,3.665,4.226,5.909a.419.419,0,0,1-.594,0L2.509,4.787A.42.42,0,0,1,3.1,4.192l.824.824L5.874,3.068a.42.42,0,1,1,.594.594Z" transform="translate(651.946 1700.848)" fill="#2c86a7"/>
    <path id="circle-check-solid-27" data-name="circle-check-solid" d="M4.735,9.471A4.735,4.735,0,1,0,0,4.735,4.735,4.735,0,0,0,4.735,9.471Zm2.09-5.6L4.458,6.234a.442.442,0,0,1-.627,0L2.647,5.05a.443.443,0,0,1,.627-.627l.869.869L6.2,3.237a.443.443,0,0,1,.627.627Z" transform="translate(498.631 1501.41)" fill="#2c86a7"/>
    <path id="circle-check-solid-28" data-name="circle-check-solid" d="M4.735,9.471A4.735,4.735,0,1,0,0,4.735,4.735,4.735,0,0,0,4.735,9.471Zm2.09-5.6L4.458,6.234a.442.442,0,0,1-.627,0L2.647,5.05a.443.443,0,0,1,.627-.627l.869.869L6.2,3.237a.443.443,0,0,1,.627.627Z" transform="translate(189.08 1521.095)" fill="#2c86a7"/>
    <path id="circle-check-solid-29" data-name="circle-check-solid" d="M4.735,9.471A4.735,4.735,0,1,0,0,4.735,4.735,4.735,0,0,0,4.735,9.471Zm2.09-5.6L4.458,6.234a.442.442,0,0,1-.627,0L2.647,5.05a.443.443,0,0,1,.627-.627l.869.869L6.2,3.237a.443.443,0,0,1,.627.627Z" transform="translate(337.08 1521.095)" fill="#2c86a7"/>
    <path id="circle-check-solid-30" data-name="circle-check-solid" d="M4.735,9.471A4.735,4.735,0,1,0,0,4.735,4.735,4.735,0,0,0,4.735,9.471Zm2.09-5.6L4.458,6.234a.442.442,0,0,1-.627,0L2.647,5.05a.443.443,0,0,1,.627-.627l.869.869L6.2,3.237a.443.443,0,0,1,.627.627Z" transform="translate(189.08 1580.779)" fill="#2c86a7"/>
    <path id="circle-check-solid-31" data-name="circle-check-solid" d="M4.735,9.471A4.735,4.735,0,1,0,0,4.735,4.735,4.735,0,0,0,4.735,9.471Zm2.09-5.6L4.458,6.234a.442.442,0,0,1-.627,0L2.647,5.05a.443.443,0,0,1,.627-.627l.869.869L6.2,3.237a.443.443,0,0,1,.627.627Z" transform="translate(337.08 1580.779)" fill="#2c86a7"/>
  </g>
</svg>
