<?xml version="1.0" encoding="utf-8"?>
<!-- Generator: Adobe Illustrator 28.0.0, SVG Export Plug-In . SVG Version: 6.00 Build 0)  -->
<svg version="1.1" id="Capa_1" xmlns="http://www.w3.org/2000/svg" xmlns:xlink="http://www.w3.org/1999/xlink" x="0px" y="0px"
	 viewBox="0 0 820.1 406.8" style="enable-background:new 0 0 820.1 406.8;" xml:space="preserve">
<style type="text/css">
	.st0{fill:#2C86A7;}
	.st1{fill:#B2E6F9;}
	.st2{fill:#FFFFFF;}
	.st3{font-family:'Roboto-Bold';}
	.st4{font-size:16px;}
	.st5{fill:#34495D;}
	.st6{font-size:14px;}
	.st7{fill:#F2F2F2;}
	.st8{font-family:'Roboto-Regular';}
	.st9{fill:none;stroke:#707070;}
</style>
<g id="Grupo_1117403" transform="translate(-390 -1778.421)">
	<rect id="Rectángulo_409691" x="390" y="1778.4" class="st0" width="820" height="53.1"/>
	<rect id="Rectángulo_409692" x="390" y="1831.6" class="st1" width="820" height="39.1"/>
	<rect id="Rectángulo_409708" x="390" y="2146.1" class="st1" width="820" height="39.1"/>
	<text transform="matrix(1 0 0 1 561.859 1815.495)" class="st2 st3 st4">Calidad de Producto de Datos</text>
	<text transform="matrix(1 0 0 1 401.9559 1857.495)" class="st5 st3 st6">Calidad de Datos Inherente</text>
	<text transform="matrix(1 0 0 1 761.812 2172.144)" class="st5 st3 st6">Calidad de Datos Dependiente del Sistema</text>
	<rect id="Rectángulo_409709" x="390.1" y="1871" class="st7" width="820" height="275"/>
	<rect id="Rectángulo_409693" x="430.1" y="1897" class="st0" width="148.7" height="34"/>
	<rect id="Rectángulo_409698" x="640.1" y="1925" class="st0" width="148.7" height="34"/>
	<rect id="Rectángulo_409702" x="840.1" y="1942" class="st0" width="148.7" height="34"/>
	<rect id="Rectángulo_409705" x="1032.1" y="1942" class="st0" width="148.7" height="34"/>
	<rect id="Rectángulo_409703" x="840.1" y="1988" class="st0" width="148.7" height="34"/>
	<rect id="Rectángulo_409706" x="1032.1" y="1988" class="st0" width="148.7" height="34"/>
	<rect id="Rectángulo_409704" x="840.1" y="2033" class="st0" width="148.7" height="34"/>
	<rect id="Rectángulo_409707" x="1032.1" y="2032" class="st0" width="148.7" height="34"/>
	<rect id="Rectángulo_409699" x="640.1" y="1971.5" class="st0" width="148.7" height="34"/>
	<rect id="Rectángulo_409700" x="640.1" y="2018.5" class="st0" width="148.7" height="34"/>
	<rect id="Rectángulo_409701" x="640.1" y="2065" class="st0" width="148.7" height="34"/>
	<rect id="Rectángulo_409694" x="430.1" y="1943.5" class="st0" width="148.7" height="34"/>
	<rect id="Rectángulo_409695" x="430.1" y="1988.5" class="st0" width="148.7" height="34"/>
	<rect id="Rectángulo_409696" x="430.1" y="2033" class="st0" width="148.7" height="34"/>
	<rect id="Rectángulo_409697" x="430.1" y="2077.5" class="st0" width="148.7" height="34"/>
	<text transform="matrix(1 0 0 1 471.0526 1922.495)" class="st2 st8 st6">Exactitud</text>
	<text transform="matrix(1 0 0 1 667.6747 1948.1396)" class="st2 st8 st6">Accesibilidad</text>
	<text transform="matrix(1 0 0 1 885.6228 1966)" class="st2 st8 st6">Precisión</text>
	<text transform="matrix(1 0 0 1 1058.5261 1966)" class="st2 st8 st6">Disponibilidad</text>
	<text transform="matrix(1 0 0 1 460.4901 1965.9999)" class="st2 st8 st6">Completitud</text>
	<text transform="matrix(1 0 0 1 667.8635 1994.995)" class="st2 st8 st6">Conformidad</text>
	<text transform="matrix(1 0 0 1 875.546 2012.1392)" class="st2 st8 st6">Trazabilidad</text>
	<text transform="matrix(1 0 0 1 1066.2245 2011.9941)" class="st2 st8 st6">Portabilidad</text>
	<text transform="matrix(1 0 0 1 453.4074 2011.995)" class="st2 st8 st6">Consistencia</text>
	<text transform="matrix(1 0 0 1 659.1799 2041.495)" class="st2 st8 st6">Confidencialidad</text>
	<text transform="matrix(1 0 0 1 856.6682 2056)" class="st2 st8 st6">Comprensibilidad</text>
	<text transform="matrix(1 0 0 1 1059.681 2052.4895)" class="st2 st8 st6">Recuperabilidad</text>
	<text transform="matrix(1 0 0 1 454.2209 2056.0007)" class="st2 st8 st6">Credibilidad</text>
	<text transform="matrix(1 0 0 1 680.374 2087.9951)" class="st2 st8 st6">Eficiencia</text>
	<text transform="matrix(1 0 0 1 454.2208 2098.9905)" class="st2 st8 st6">Actualidad</text>
	<line id="Línea_214" class="st9" x1="611.6" y1="1870.5" x2="611.6" y2="2146.5"/>
	<line id="Línea_215" class="st9" x1="820.1" y1="1870.5" x2="820.1" y2="2146.5"/>
	<line id="Línea_216" class="st9" x1="1007.1" y1="1870.5" x2="1007.1" y2="2146.5"/>
</g>
</svg>
