<?xml version="1.0" encoding="utf-8"?>
<!-- Generator: Adobe Illustrator 28.0.0, SVG Export Plug-In . SVG Version: 6.00 Build 0)  -->
<svg version="1.1" id="Capa_1" xmlns="http://www.w3.org/2000/svg" xmlns:xlink="http://www.w3.org/1999/xlink" x="0px" y="0px"
	 viewBox="0 0 1240 520.1" style="enable-background:new 0 0 1240 520.1;" xml:space="preserve">
<style type="text/css">
	.st0{fill:#2C86A7;}
	.st1{fill:#B2E6F9;}
	.st2{fill:#FFFFFF;}
	.st3{font-family:'Roboto-Bold';}
	.st4{font-size:14px;}
	.st5{fill:#12263F;}
	.st6{font-family:'Roboto-BoldItalic';}
	.st7{fill:#F2F2F2;}
	.st8{font-family:'Roboto-Regular';}
	.st9{fill:none;stroke:#707070;stroke-width:2;}
	.st10{fill:none;stroke:#707070;stroke-width:2;stroke-linecap:round;}
</style>
<g id="Grupo_1118316" transform="translate(-180 -1234.76)">
	<rect id="Rectángulo_401217" x="180" y="1374.8" class="st0" width="143" height="69.1"/>
	<rect id="Rectángulo_409683" x="331" y="1374.8" class="st0" width="149" height="69.1"/>
	<rect id="Rectángulo_409684" x="488" y="1374.8" class="st0" width="149" height="69.1"/>
	<rect id="Rectángulo_409685" x="645.3" y="1374.8" class="st0" width="149" height="69.1"/>
	<rect id="Rectángulo_409690" x="627" y="1234.8" class="st1" width="346" height="69.1"/>
	<rect id="Rectángulo_409686" x="800.3" y="1374.8" class="st0" width="149" height="69.1"/>
	<rect id="Rectángulo_409687" x="957.3" y="1374.8" class="st0" width="149" height="69.1"/>
	<rect id="Rectángulo_409688" x="1114.3" y="1374.8" class="st0" width="149" height="69.1"/>
	<rect id="Rectángulo_409689" x="1271" y="1374.8" class="st0" width="149" height="69.1"/>
	<text transform="matrix(1 0 0 1 199.2295 1405.8058)" class="st2 st3 st4">Adecuación </text>
	<text transform="matrix(1 0 0 1 205.7815 1425.8058)" class="st2 st3 st4">Funcional</text>
	<text transform="matrix(1 0 0 1 350.0754 1405.3055)" class="st2 st3 st4">Eficiencia de </text>
	<text transform="matrix(1 0 0 1 352.8334 1425.3055)" class="st2 st3 st4">Desempeño</text>
	<text transform="matrix(1 0 0 1 512.7303 1414.8209)" class="st2 st3 st4">Compatibilidad</text>
	<text transform="matrix(1 0 0 1 682.9638 1275.9745)" class="st5 st6 st4">CALIDAD DEL PRODUCTO SOFTWARE</text>
	<text transform="matrix(1 0 0 1 677.71 1414.8207)" class="st2 st3 st4">Usabilidad</text>
	<text transform="matrix(1 0 0 1 839.8184 1414.8207)" class="st2 st3 st4">Fiabilidad</text>
	<text transform="matrix(1 0 0 1 996.8469 1417.6625)" class="st2 st3 st4">Seguridad</text>
	<text transform="matrix(1 0 0 1 1134.4698 1415.3055)" class="st2 st3 st4">Mantenibilidad</text>
	<text transform="matrix(1 0 0 1 1304.9192 1416.4454)" class="st2 st3 st4">Portabilidad</text>
	<rect id="Rectángulo_409673" x="1271.3" y="1443.9" class="st7" width="148.7" height="311"/>
	<rect id="Rectángulo_409680" x="645.3" y="1443.9" class="st7" width="149" height="311"/>
	<rect id="Rectángulo_409676" x="957.3" y="1443.9" class="st7" width="148.7" height="311"/>
	<rect id="Rectángulo_409678" x="331.3" y="1443.9" class="st7" width="148.7" height="311"/>
	<rect id="Rectángulo_409674" x="1114.3" y="1443.9" class="st7" width="148.7" height="311"/>
	<rect id="Rectángulo_409679" x="488.3" y="1443.9" class="st7" width="148.7" height="311"/>
	<rect id="Rectángulo_409675" x="800.3" y="1443.9" class="st7" width="148.7" height="311"/>
	<rect id="Rectángulo_409677" x="180" y="1443.9" class="st7" width="143" height="311"/>
	<text transform="matrix(1 0 0 1 350.5 1472.33)" class="st5 st8 st4">Comportamiento </text>
	<text transform="matrix(1 0 0 1 350.5 1492.33)" class="st5 st8 st4">temporal</text>
	<text transform="matrix(1 0 0 1 350.5 1532.33)" class="st5 st8 st4">Utilización de </text>
	<text transform="matrix(1 0 0 1 350.5 1552.33)" class="st5 st8 st4">recursos</text>
	<text transform="matrix(1 0 0 1 350.5 1592.33)" class="st5 st8 st4">Capacidad</text>
	<text transform="matrix(1 0 0 1 511.917 1472.33)" class="st5 st8 st4">Coexistencia</text>
	<text transform="matrix(1 0 0 1 511.917 1512.33)" class="st5 st8 st4">Interoperabilidad</text>
	<text transform="matrix(1 0 0 1 664.051 1472.33)" class="st5 st8 st4">Inteligibilidad</text>
	<text transform="matrix(1 0 0 1 664.051 1512.33)" class="st5 st8 st4">Aprendizaje</text>
	<text transform="matrix(1 0 0 1 664.051 1552.33)" class="st5 st8 st4">Operabilidad</text>
	<text transform="matrix(1 0 0 1 664.051 1592.33)" class="st5 st8 st4">Protección frente </text>
	<text transform="matrix(1 0 0 1 664.051 1612.33)" class="st5 st8 st4">a errores de </text>
	<text transform="matrix(1 0 0 1 664.051 1632.33)" class="st5 st8 st4">usuario</text>
	<text transform="matrix(1 0 0 1 664.051 1672.33)" class="st5 st8 st4">Estética</text>
	<text transform="matrix(1 0 0 1 664.051 1712.33)" class="st5 st8 st4">Accesibilidad</text>
	<text transform="matrix(1 0 0 1 822.142 1472.33)" class="st5 st8 st4">Madurez</text>
	<text transform="matrix(1 0 0 1 822.142 1512.33)" class="st5 st8 st4">Disponibilidad</text>
	<text transform="matrix(1 0 0 1 822.142 1552.33)" class="st5 st8 st4">Tolerancia a </text>
	<text transform="matrix(1 0 0 1 822.142 1572.33)" class="st5 st8 st4">fallos</text>
	<text transform="matrix(1 0 0 1 822.142 1612.33)" class="st5 st8 st4">Capacidad de </text>
	<text transform="matrix(1 0 0 1 822.142 1632.33)" class="st5 st8 st4">recuperación</text>
	<text transform="matrix(1 0 0 1 979.142 1472.33)" class="st5 st8 st4">Confidencialidad</text>
	<text transform="matrix(1 0 0 1 979.142 1512.33)" class="st5 st8 st4">Integridad</text>
	<text transform="matrix(1 0 0 1 979.142 1552.33)" class="st5 st8 st4">No repudio</text>
	<text transform="matrix(1 0 0 1 979.142 1592.33)" class="st5 st8 st4">Autenticidad</text>
	<text transform="matrix(1 0 0 1 979.142 1632.33)" class="st5 st8 st4">Responsabilidad</text>
	<text transform="matrix(1 0 0 1 1139.4709 1472.33)" class="st5 st8 st4">Modularidad</text>
	<text transform="matrix(1 0 0 1 1139.4709 1512.33)" class="st5 st8 st4">Reusabilidad</text>
	<text transform="matrix(1 0 0 1 1139.4709 1552.33)" class="st5 st8 st4">Analizabilidad</text>
	<text transform="matrix(1 0 0 1 1139.4709 1592.33)" class="st5 st8 st4">Capacidad de ser </text>
	<text transform="matrix(1 0 0 1 1139.4709 1612.33)" class="st5 st8 st4">modificado</text>
	<text transform="matrix(1 0 0 1 1139.4709 1652.33)" class="st5 st8 st4">Capacidad de ser </text>
	<text transform="matrix(1 0 0 1 1139.4709 1672.33)" class="st5 st8 st4">probado</text>
	<text transform="matrix(1 0 0 1 1293.275 1472.33)" class="st5 st8 st4">Adaptabilidad</text>
	<text transform="matrix(1 0 0 1 1293.275 1512.33)" class="st5 st8 st4">Facilidad de </text>
	<text transform="matrix(1 0 0 1 1293.275 1532.33)" class="st5 st8 st4">instalación</text>
	<text transform="matrix(1 0 0 1 1293.275 1572.33)" class="st5 st8 st4">Capacidad de ser </text>
	<text transform="matrix(1 0 0 1 1293.275 1592.33)" class="st5 st8 st4">reemplazado</text>
	<line id="Línea_204" class="st9" x1="799.6" y1="1303.8" x2="799.6" y2="1341.8"/>
	<line id="Línea_206" class="st10" x1="246.6" y1="1342.8" x2="246.6" y2="1374.8"/>
	<line id="Línea_207" class="st10" x1="405.5" y1="1342.8" x2="405.5" y2="1374.8"/>
	<line id="Línea_208" class="st10" x1="562.6" y1="1342.8" x2="562.6" y2="1374.8"/>
	<line id="Línea_209" class="st10" x1="715.9" y1="1342.8" x2="715.9" y2="1374.8"/>
	<line id="Línea_210" class="st10" x1="874.6" y1="1342.8" x2="874.6" y2="1374.8"/>
	<line id="Línea_211" class="st10" x1="1031.8" y1="1342.8" x2="1031.8" y2="1374.8"/>
	<line id="Línea_212" class="st10" x1="1188.8" y1="1342.8" x2="1188.8" y2="1374.8"/>
	<line id="Línea_213" class="st10" x1="1345.5" y1="1342.8" x2="1345.5" y2="1374.8"/>
	<line id="Línea_205" class="st10" x1="246.6" y1="1341.8" x2="1345.6" y2="1341.8"/>
	<path id="circle-check-solid" class="st0" d="M193.8,1470.9c2.6,0,4.7-2.1,4.7-4.7c0-2.6-2.1-4.7-4.7-4.7c-2.6,0-4.7,2.1-4.7,4.7
		C189.1,1468.8,191.2,1470.9,193.8,1470.9C193.8,1470.9,193.8,1470.9,193.8,1470.9z M195.9,1465.3l-2.4,2.4c-0.2,0.2-0.5,0.2-0.6,0
		c0,0,0,0,0,0l-1.2-1.2c-0.2-0.2-0.2-0.5,0-0.6s0.5-0.2,0.6,0l0,0l0.9,0.9l2.1-2.1c0.2-0.2,0.5-0.2,0.6,0
		C196.1,1464.8,196.1,1465.1,195.9,1465.3L195.9,1465.3z"/>
	<path id="circle-check-solid-2" class="st0" d="M341.8,1470.9c2.6,0,4.7-2.1,4.7-4.7c0-2.6-2.1-4.7-4.7-4.7c-2.6,0-4.7,2.1-4.7,4.7
		C337.1,1468.8,339.2,1470.9,341.8,1470.9C341.8,1470.9,341.8,1470.9,341.8,1470.9z M343.9,1465.3l-2.4,2.4c-0.2,0.2-0.5,0.2-0.6,0
		c0,0,0,0,0,0l-1.2-1.2c-0.2-0.2-0.2-0.5,0-0.6c0.2-0.2,0.5-0.2,0.6,0l0,0l0.9,0.9l2.1-2.1c0.2-0.2,0.5-0.2,0.6,0
		C344.1,1464.8,344.1,1465.1,343.9,1465.3L343.9,1465.3z"/>
	<path id="circle-check-solid-3" class="st0" d="M503.4,1470.9c2.6,0,4.7-2.1,4.7-4.7c0-2.6-2.1-4.7-4.7-4.7c-2.6,0-4.7,2.1-4.7,4.7
		C498.6,1468.8,500.7,1470.9,503.4,1470.9C503.4,1470.9,503.4,1470.9,503.4,1470.9z M505.5,1465.3l-2.4,2.4c-0.2,0.2-0.5,0.2-0.6,0
		c0,0,0,0,0,0l-1.2-1.2c-0.2-0.2-0.2-0.5,0-0.6c0.2-0.2,0.5-0.2,0.6,0l0,0l0.9,0.9l2.1-2.1c0.2-0.2,0.5-0.2,0.6,0
		C505.6,1464.8,505.6,1465.1,505.5,1465.3L505.5,1465.3z"/>
	<path id="circle-check-solid-4" class="st0" d="M656.4,1470.9c2.6,0,4.7-2.1,4.7-4.7c0-2.6-2.1-4.7-4.7-4.7c-2.6,0-4.7,2.1-4.7,4.7
		C651.7,1468.8,653.8,1470.9,656.4,1470.9C656.4,1470.9,656.4,1470.9,656.4,1470.9z M658.5,1465.3l-2.4,2.4c-0.2,0.2-0.5,0.2-0.6,0
		c0,0,0,0,0,0l-1.2-1.2c-0.2-0.2-0.2-0.5,0-0.6c0.2-0.2,0.5-0.2,0.6,0l0,0l0.9,0.9l2.1-2.1c0.2-0.2,0.5-0.2,0.6,0
		C658.7,1464.8,658.7,1465.1,658.5,1465.3L658.5,1465.3z"/>
	<path id="circle-check-solid-5" class="st0" d="M814.7,1470.9c2.6,0,4.7-2.1,4.7-4.7c0-2.6-2.1-4.7-4.7-4.7c-2.6,0-4.7,2.1-4.7,4.7
		C810,1468.8,812.1,1470.9,814.7,1470.9C814.7,1470.9,814.7,1470.9,814.7,1470.9z M816.8,1465.3l-2.4,2.4c-0.2,0.2-0.5,0.2-0.6,0
		c0,0,0,0,0,0l-1.2-1.2c-0.2-0.2-0.2-0.5,0-0.6c0.2-0.2,0.5-0.2,0.6,0l0,0l0.9,0.9l2.1-2.1c0.2-0.2,0.5-0.2,0.6,0
		C817,1464.8,817,1465.1,816.8,1465.3L816.8,1465.3z"/>
	<path id="circle-check-solid-6" class="st0" d="M969.4,1469.9c2.6,0,4.7-2.1,4.7-4.7c0-2.6-2.1-4.7-4.7-4.7c-2.6,0-4.7,2.1-4.7,4.7
		C964.7,1467.8,966.8,1469.9,969.4,1469.9C969.4,1469.9,969.4,1469.9,969.4,1469.9z M971.5,1464.3l-2.4,2.4c-0.2,0.2-0.5,0.2-0.6,0
		c0,0,0,0,0,0l-1.2-1.2c-0.2-0.2-0.2-0.5,0-0.6c0.2-0.2,0.5-0.2,0.6,0l0,0l0.9,0.9l2.1-2.1c0.2-0.2,0.5-0.2,0.6,0
		C971.7,1463.8,971.7,1464.1,971.5,1464.3L971.5,1464.3z"/>
	<path id="circle-check-solid-7" class="st0" d="M1129.7,1469.9c2.6,0,4.7-2.1,4.7-4.7c0-2.6-2.1-4.7-4.7-4.7
		c-2.6,0-4.7,2.1-4.7,4.7C1125,1467.8,1127.1,1469.9,1129.7,1469.9C1129.7,1469.9,1129.7,1469.9,1129.7,1469.9z M1131.8,1464.3
		l-2.4,2.4c-0.2,0.2-0.5,0.2-0.6,0c0,0,0,0,0,0l-1.2-1.2c-0.2-0.2-0.2-0.5,0-0.6c0.2-0.2,0.5-0.2,0.6,0l0,0l0.9,0.9l2.1-2.1
		c0.2-0.2,0.5-0.2,0.6,0C1132,1463.8,1132,1464.1,1131.8,1464.3L1131.8,1464.3z"/>
	<path id="circle-check-solid-8" class="st0" d="M1284.7,1469.9c2.6,0,4.7-2.1,4.7-4.7c0-2.6-2.1-4.7-4.7-4.7
		c-2.6,0-4.7,2.1-4.7,4.7C1280,1467.8,1282.1,1469.9,1284.7,1469.9C1284.7,1469.9,1284.7,1469.9,1284.7,1469.9z M1286.8,1464.3
		l-2.4,2.4c-0.2,0.2-0.5,0.2-0.6,0c0,0,0,0,0,0l-1.2-1.2c-0.2-0.2-0.2-0.5,0-0.6c0.2-0.2,0.5-0.2,0.6,0l0,0l0.9,0.9l2.1-2.1
		c0.2-0.2,0.5-0.2,0.6,0C1287,1463.8,1287,1464.1,1286.8,1464.3L1286.8,1464.3z"/>
	<path id="circle-check-solid-9" class="st0" d="M1284.7,1510.9c2.6,0,4.7-2.1,4.7-4.7c0-2.6-2.1-4.7-4.7-4.7
		c-2.6,0-4.7,2.1-4.7,4.7C1280,1508.8,1282.1,1510.9,1284.7,1510.9C1284.7,1510.9,1284.7,1510.9,1284.7,1510.9z M1286.8,1505.3
		l-2.4,2.4c-0.2,0.2-0.5,0.2-0.6,0c0,0,0,0,0,0l-1.2-1.2c-0.2-0.2-0.2-0.5,0-0.6c0.2-0.2,0.5-0.2,0.6,0l0,0l0.9,0.9l2.1-2.1
		c0.2-0.2,0.5-0.2,0.6,0C1287,1504.8,1287,1505.1,1286.8,1505.3L1286.8,1505.3z"/>
	<path id="circle-check-solid-10" class="st0" d="M1284.7,1570.6c2.6,0,4.7-2.1,4.7-4.7c0-2.6-2.1-4.7-4.7-4.7
		c-2.6,0-4.7,2.1-4.7,4.7C1280,1568.4,1282.1,1570.6,1284.7,1570.6C1284.7,1570.6,1284.7,1570.6,1284.7,1570.6z M1286.8,1565
		l-2.4,2.4c-0.2,0.2-0.5,0.2-0.6,0c0,0,0,0,0,0l-1.2-1.2c-0.2-0.2-0.2-0.5,0-0.6c0.2-0.2,0.5-0.2,0.6,0l0,0l0.9,0.9l2.1-2.1
		c0.2-0.2,0.5-0.2,0.6,0C1287,1564.5,1287,1564.8,1286.8,1565L1286.8,1565z"/>
	<path id="circle-check-solid-11" class="st0" d="M1129.7,1510.9c2.6,0,4.7-2.1,4.7-4.7c0-2.6-2.1-4.7-4.7-4.7
		c-2.6,0-4.7,2.1-4.7,4.7C1125,1508.8,1127.1,1510.9,1129.7,1510.9C1129.7,1510.9,1129.7,1510.9,1129.7,1510.9z M1131.8,1505.3
		l-2.4,2.4c-0.2,0.2-0.5,0.2-0.6,0c0,0,0,0,0,0l-1.2-1.2c-0.2-0.2-0.2-0.5,0-0.6c0.2-0.2,0.5-0.2,0.6,0l0,0l0.9,0.9l2.1-2.1
		c0.2-0.2,0.5-0.2,0.6,0C1132,1504.8,1132,1505.1,1131.8,1505.3L1131.8,1505.3z"/>
	<path id="circle-check-solid-12" class="st0" d="M1129.7,1551.9c2.6,0,4.7-2.1,4.7-4.7c0-2.6-2.1-4.7-4.7-4.7
		c-2.6,0-4.7,2.1-4.7,4.7C1125,1549.8,1127.1,1551.9,1129.7,1551.9C1129.7,1551.9,1129.7,1551.9,1129.7,1551.9z M1131.8,1546.3
		l-2.4,2.4c-0.2,0.2-0.5,0.2-0.6,0c0,0,0,0,0,0l-1.2-1.2c-0.2-0.2-0.2-0.5,0-0.6c0.2-0.2,0.5-0.2,0.6,0l0,0l0.9,0.9l2.1-2.1
		c0.2-0.2,0.5-0.2,0.6,0C1132,1545.8,1132,1546.1,1131.8,1546.3L1131.8,1546.3z"/>
	<path id="circle-check-solid-13" class="st0" d="M1129.7,1590.6c2.6,0,4.7-2.1,4.7-4.7c0-2.6-2.1-4.7-4.7-4.7
		c-2.6,0-4.7,2.1-4.7,4.7C1125,1588.4,1127.1,1590.6,1129.7,1590.6C1129.7,1590.6,1129.7,1590.6,1129.7,1590.6z M1131.8,1585
		l-2.4,2.4c-0.2,0.2-0.5,0.2-0.6,0c0,0,0,0,0,0l-1.2-1.2c-0.2-0.2-0.2-0.5,0-0.6c0.2-0.2,0.5-0.2,0.6,0l0,0l0.9,0.9l2.1-2.1
		c0.2-0.2,0.5-0.2,0.6,0C1132,1584.5,1132,1584.8,1131.8,1585L1131.8,1585z"/>
	<path id="circle-check-solid-14" class="st0" d="M1129.7,1649.6c2.6,0,4.7-2.1,4.7-4.7c0-2.6-2.1-4.7-4.7-4.7
		c-2.6,0-4.7,2.1-4.7,4.7C1125,1647.4,1127.1,1649.6,1129.7,1649.6C1129.7,1649.6,1129.7,1649.6,1129.7,1649.6z M1131.8,1644
		l-2.4,2.4c-0.2,0.2-0.5,0.2-0.6,0c0,0,0,0,0,0l-1.2-1.2c-0.2-0.2-0.2-0.5,0-0.6c0.2-0.2,0.5-0.2,0.6,0l0,0l0.9,0.9l2.1-2.1
		c0.2-0.2,0.5-0.2,0.6,0C1132,1643.5,1132,1643.8,1131.8,1644L1131.8,1644z"/>
	<path id="circle-check-solid-15" class="st0" d="M969.4,1510.9c2.6,0,4.7-2.1,4.7-4.7c0-2.6-2.1-4.7-4.7-4.7
		c-2.6,0-4.7,2.1-4.7,4.7C964.7,1508.8,966.8,1510.9,969.4,1510.9C969.4,1510.9,969.4,1510.9,969.4,1510.9z M971.5,1505.3l-2.4,2.4
		c-0.2,0.2-0.5,0.2-0.6,0c0,0,0,0,0,0l-1.2-1.2c-0.2-0.2-0.2-0.5,0-0.6c0.2-0.2,0.5-0.2,0.6,0l0,0l0.9,0.9l2.1-2.1
		c0.2-0.2,0.5-0.2,0.6,0C971.7,1504.8,971.7,1505.1,971.5,1505.3L971.5,1505.3z"/>
	<path id="circle-check-solid-16" class="st0" d="M969.4,1550.9c2.6,0,4.7-2.1,4.7-4.7c0-2.6-2.1-4.7-4.7-4.7
		c-2.6,0-4.7,2.1-4.7,4.7C964.7,1548.8,966.8,1550.9,969.4,1550.9C969.4,1550.9,969.4,1550.9,969.4,1550.9z M971.5,1545.3l-2.4,2.4
		c-0.2,0.2-0.5,0.2-0.6,0c0,0,0,0,0,0l-1.2-1.2c-0.2-0.2-0.2-0.5,0-0.6c0.2-0.2,0.5-0.2,0.6,0l0,0l0.9,0.9l2.1-2.1
		c0.2-0.2,0.5-0.2,0.6,0C971.7,1544.8,971.7,1545.1,971.5,1545.3L971.5,1545.3z"/>
	<path id="circle-check-solid-17" class="st0" d="M969.4,1590.6c2.6,0,4.7-2.1,4.7-4.7c0-2.6-2.1-4.7-4.7-4.7
		c-2.6,0-4.7,2.1-4.7,4.7C964.7,1588.4,966.8,1590.6,969.4,1590.6C969.4,1590.6,969.4,1590.6,969.4,1590.6z M971.5,1585l-2.4,2.4
		c-0.2,0.2-0.5,0.2-0.6,0c0,0,0,0,0,0l-1.2-1.2c-0.2-0.2-0.2-0.5,0-0.6c0.2-0.2,0.5-0.2,0.6,0l0,0l0.9,0.9l2.1-2.1
		c0.2-0.2,0.5-0.2,0.6,0C971.7,1584.5,971.7,1584.8,971.5,1585L971.5,1585z"/>
	<path id="circle-check-solid-18" class="st0" d="M969.4,1630.2c2.6,0,4.7-2.1,4.7-4.7c0-2.6-2.1-4.7-4.7-4.7
		c-2.6,0-4.7,2.1-4.7,4.7C964.7,1628.1,966.8,1630.2,969.4,1630.2C969.4,1630.2,969.4,1630.2,969.4,1630.2z M971.5,1624.7l-2.4,2.4
		c-0.2,0.2-0.5,0.2-0.6,0c0,0,0,0,0,0l-1.2-1.2c-0.2-0.2-0.2-0.5,0-0.6c0.2-0.2,0.5-0.2,0.6,0l0,0l0.9,0.9l2.1-2.1
		c0.2-0.2,0.5-0.2,0.6,0C971.7,1624.2,971.7,1624.5,971.5,1624.7L971.5,1624.7z"/>
	<path id="circle-check-solid-19" class="st0" d="M814.7,1510.9c2.6,0,4.7-2.1,4.7-4.7c0-2.6-2.1-4.7-4.7-4.7
		c-2.6,0-4.7,2.1-4.7,4.7C810,1508.8,812.1,1510.9,814.7,1510.9C814.7,1510.9,814.7,1510.9,814.7,1510.9z M816.8,1505.3l-2.4,2.4
		c-0.2,0.2-0.5,0.2-0.6,0c0,0,0,0,0,0l-1.2-1.2c-0.2-0.2-0.2-0.5,0-0.6c0.2-0.2,0.5-0.2,0.6,0l0,0l0.9,0.9l2.1-2.1
		c0.2-0.2,0.5-0.2,0.6,0C817,1504.8,817,1505.1,816.8,1505.3L816.8,1505.3z"/>
	<path id="circle-check-solid-20" class="st0" d="M814.7,1550.9c2.6,0,4.7-2.1,4.7-4.7c0-2.6-2.1-4.7-4.7-4.7
		c-2.6,0-4.7,2.1-4.7,4.7C810,1548.8,812.1,1550.9,814.7,1550.9C814.7,1550.9,814.7,1550.9,814.7,1550.9z M816.8,1545.3l-2.4,2.4
		c-0.2,0.2-0.5,0.2-0.6,0c0,0,0,0,0,0l-1.2-1.2c-0.2-0.2-0.2-0.5,0-0.6c0.2-0.2,0.5-0.2,0.6,0l0,0l0.9,0.9l2.1-2.1
		c0.2-0.2,0.5-0.2,0.6,0C817,1544.8,817,1545.1,816.8,1545.3L816.8,1545.3z"/>
	<path id="circle-check-solid-21" class="st0" d="M814.7,1609.9c2.6,0,4.7-2.1,4.7-4.7c0-2.6-2.1-4.7-4.7-4.7
		c-2.6,0-4.7,2.1-4.7,4.7C810,1607.8,812.1,1609.9,814.7,1609.9C814.7,1609.9,814.7,1609.9,814.7,1609.9z M816.8,1604.3l-2.4,2.4
		c-0.2,0.2-0.5,0.2-0.6,0c0,0,0,0,0,0l-1.2-1.2c-0.2-0.2-0.2-0.5,0-0.6c0.2-0.2,0.5-0.2,0.6,0l0,0l0.9,0.9l2.1-2.1
		c0.2-0.2,0.5-0.2,0.6,0C817,1603.8,817,1604.1,816.8,1604.3L816.8,1604.3z"/>
	<path id="circle-check-solid-22" class="st0" d="M656.4,1510.9c2.6,0,4.7-2.1,4.7-4.7c0-2.6-2.1-4.7-4.7-4.7
		c-2.6,0-4.7,2.1-4.7,4.7C651.7,1508.8,653.8,1510.9,656.4,1510.9C656.4,1510.9,656.4,1510.9,656.4,1510.9z M658.5,1505.3l-2.4,2.4
		c-0.2,0.2-0.5,0.2-0.6,0c0,0,0,0,0,0l-1.2-1.2c-0.2-0.2-0.2-0.5,0-0.6c0.2-0.2,0.5-0.2,0.6,0l0,0l0.9,0.9l2.1-2.1
		c0.2-0.2,0.5-0.2,0.6,0C658.7,1504.8,658.7,1505.1,658.5,1505.3L658.5,1505.3z"/>
	<path id="circle-check-solid-23" class="st0" d="M656.4,1550.9c2.6,0,4.7-2.1,4.7-4.7c0-2.6-2.1-4.7-4.7-4.7
		c-2.6,0-4.7,2.1-4.7,4.7C651.7,1548.8,653.8,1550.9,656.4,1550.9C656.4,1550.9,656.4,1550.9,656.4,1550.9z M658.5,1545.3l-2.4,2.4
		c-0.2,0.2-0.5,0.2-0.6,0c0,0,0,0,0,0l-1.2-1.2c-0.2-0.2-0.2-0.5,0-0.6c0.2-0.2,0.5-0.2,0.6,0l0,0l0.9,0.9l2.1-2.1
		c0.2-0.2,0.5-0.2,0.6,0C658.7,1544.8,658.7,1545.1,658.5,1545.3L658.5,1545.3z"/>
	<path id="circle-check-solid-24" class="st0" d="M656.4,1590.6c2.6,0,4.7-2.1,4.7-4.7c0-2.6-2.1-4.7-4.7-4.7
		c-2.6,0-4.7,2.1-4.7,4.7C651.7,1588.4,653.8,1590.6,656.4,1590.6C656.4,1590.6,656.4,1590.6,656.4,1590.6z M658.5,1585l-2.4,2.4
		c-0.2,0.2-0.5,0.2-0.6,0c0,0,0,0,0,0l-1.2-1.2c-0.2-0.2-0.2-0.5,0-0.6c0.2-0.2,0.5-0.2,0.6,0l0,0l0.9,0.9l2.1-2.1
		c0.2-0.2,0.5-0.2,0.6,0C658.7,1584.5,658.7,1584.8,658.5,1585L658.5,1585z"/>
	<path id="circle-check-solid-25" class="st0" d="M656.4,1670.3c2.5,0,4.5-2,4.5-4.5c0-2.5-2-4.5-4.5-4.5c-2.5,0-4.5,2-4.5,4.5
		C651.9,1668.3,654,1670.3,656.4,1670.3L656.4,1670.3z M658.4,1665l-2.2,2.2c-0.2,0.2-0.4,0.2-0.6,0c0,0,0,0,0,0l-1.1-1.1
		c-0.2-0.2-0.1-0.4,0-0.6c0.2-0.1,0.4-0.1,0.6,0l0.8,0.8l2-1.9c0.2-0.2,0.4-0.2,0.6,0C658.6,1664.6,658.6,1664.8,658.4,1665
		L658.4,1665z"/>
	<path id="circle-check-solid-26" class="st0" d="M656.4,1709.8c2.5,0,4.5-2,4.5-4.5c0-2.5-2-4.5-4.5-4.5c-2.5,0-4.5,2-4.5,4.5
		C651.9,1707.8,654,1709.8,656.4,1709.8L656.4,1709.8z M658.4,1704.5l-2.2,2.2c-0.2,0.2-0.4,0.2-0.6,0c0,0,0,0,0,0l-1.1-1.1
		c-0.2-0.2-0.1-0.4,0-0.6c0.2-0.1,0.4-0.1,0.6,0l0.8,0.8l2-1.9c0.2-0.2,0.4-0.2,0.6,0C658.6,1704.1,658.6,1704.3,658.4,1704.5
		L658.4,1704.5z"/>
	<path id="circle-check-solid-27" class="st0" d="M503.4,1510.9c2.6,0,4.7-2.1,4.7-4.7c0-2.6-2.1-4.7-4.7-4.7
		c-2.6,0-4.7,2.1-4.7,4.7C498.6,1508.8,500.7,1510.9,503.4,1510.9C503.4,1510.9,503.4,1510.9,503.4,1510.9z M505.5,1505.3l-2.4,2.4
		c-0.2,0.2-0.5,0.2-0.6,0c0,0,0,0,0,0l-1.2-1.2c-0.2-0.2-0.2-0.5,0-0.6c0.2-0.2,0.5-0.2,0.6,0l0,0l0.9,0.9l2.1-2.1
		c0.2-0.2,0.5-0.2,0.6,0C505.6,1504.8,505.6,1505.1,505.5,1505.3L505.5,1505.3z"/>
	<path id="circle-check-solid-28" class="st0" d="M193.8,1530.6c2.6,0,4.7-2.1,4.7-4.7c0-2.6-2.1-4.7-4.7-4.7
		c-2.6,0-4.7,2.1-4.7,4.7C189.1,1528.4,191.2,1530.6,193.8,1530.6C193.8,1530.6,193.8,1530.6,193.8,1530.6z M195.9,1525l-2.4,2.4
		c-0.2,0.2-0.5,0.2-0.6,0c0,0,0,0,0,0l-1.2-1.2c-0.2-0.2-0.2-0.5,0-0.6s0.5-0.2,0.6,0l0,0l0.9,0.9l2.1-2.1c0.2-0.2,0.5-0.2,0.6,0
		C196.1,1524.5,196.1,1524.8,195.9,1525L195.9,1525z"/>
	<path id="circle-check-solid-29" class="st0" d="M341.8,1530.6c2.6,0,4.7-2.1,4.7-4.7c0-2.6-2.1-4.7-4.7-4.7
		c-2.6,0-4.7,2.1-4.7,4.7C337.1,1528.4,339.2,1530.6,341.8,1530.6C341.8,1530.6,341.8,1530.6,341.8,1530.6z M343.9,1525l-2.4,2.4
		c-0.2,0.2-0.5,0.2-0.6,0c0,0,0,0,0,0l-1.2-1.2c-0.2-0.2-0.2-0.5,0-0.6c0.2-0.2,0.5-0.2,0.6,0l0,0l0.9,0.9l2.1-2.1
		c0.2-0.2,0.5-0.2,0.6,0C344.1,1524.5,344.1,1524.8,343.9,1525L343.9,1525z"/>
	<path id="circle-check-solid-30" class="st0" d="M193.8,1590.2c2.6,0,4.7-2.1,4.7-4.7c0-2.6-2.1-4.7-4.7-4.7
		c-2.6,0-4.7,2.1-4.7,4.7C189.1,1588.1,191.2,1590.2,193.8,1590.2C193.8,1590.2,193.8,1590.2,193.8,1590.2z M195.9,1584.7l-2.4,2.4
		c-0.2,0.2-0.5,0.2-0.6,0c0,0,0,0,0,0l-1.2-1.2c-0.2-0.2-0.2-0.5,0-0.6s0.5-0.2,0.6,0l0,0l0.9,0.9l2.1-2.1c0.2-0.2,0.5-0.2,0.6,0
		C196.1,1584.2,196.1,1584.5,195.9,1584.7L195.9,1584.7z"/>
	<path id="circle-check-solid-31" class="st0" d="M341.8,1590.2c2.6,0,4.7-2.1,4.7-4.7c0-2.6-2.1-4.7-4.7-4.7
		c-2.6,0-4.7,2.1-4.7,4.7C337.1,1588.1,339.2,1590.2,341.8,1590.2C341.8,1590.2,341.8,1590.2,341.8,1590.2z M343.9,1584.7l-2.4,2.4
		c-0.2,0.2-0.5,0.2-0.6,0c0,0,0,0,0,0l-1.2-1.2c-0.2-0.2-0.2-0.5,0-0.6c0.2-0.2,0.5-0.2,0.6,0l0,0l0.9,0.9l2.1-2.1
		c0.2-0.2,0.5-0.2,0.6,0C344.1,1584.2,344.1,1584.5,343.9,1584.7L343.9,1584.7z"/>
	<text transform="matrix(1 0 0 1 206.4658 1469.9904)" class="st5 st8 st4">Completitud </text>
	<text transform="matrix(1 0 0 1 206.4658 1489.9904)" class="st5 st8 st4">funcional</text>
	<text transform="matrix(1 0 0 1 206.4658 1529.9904)" class="st5 st8 st4">Corrección </text>
	<text transform="matrix(1 0 0 1 206.4658 1549.9904)" class="st5 st8 st4">funcional</text>
	<text transform="matrix(1 0 0 1 206.4658 1589.9904)" class="st5 st8 st4">Pertinencia </text>
	<text transform="matrix(1 0 0 1 206.8745 1612.8322)" class="st5 st8 st4">funcional</text>
</g>
</svg>
