<svg xmlns="http://www.w3.org/2000/svg" width="69.999" height="69.999" viewBox="0 0 69.999 69.999">
  <g id="Grupo_1118399" data-name="Grupo 1118399" transform="translate(-608.912 -2351.922)">
    <circle id="Elipse_12944" data-name="Elipse 12944" cx="34.999" cy="34.999" r="34.999" transform="translate(608.912 2351.922)" fill="#41c0f0"/>
    <g id="Layer_x0020_1" transform="translate(623.494 2339.843)">
      <path id="Trazado_912962" data-name="Trazado 912962" d="M23.97,51.209a.548.548,0,0,1-.407-.191l-1.77-2.081a.575.575,0,0,1,0-.718l1.77-2.081a.552.552,0,0,1,.837.718l-1.483,1.722L24.4,50.3A.564.564,0,0,1,23.97,51.209ZM37.7,61.185H1.148c-.024,0-.072.024-.072.048a4.258,4.258,0,0,0,4.234,4.234H35.5a4.242,4.242,0,0,0,4.234-4.234.051.051,0,0,0-.048-.048Zm-.55-1.1V41.114a7.745,7.745,0,0,0-3.828-6.65V53.984a3.068,3.068,0,0,1-3.062,3.062H10.55a3.063,3.063,0,0,1-3.038-3.062V34.464a7.716,7.716,0,0,0-3.852,6.65v18.97ZM32.247,33.6V30.038a1.976,1.976,0,0,0-1.986-1.962H10.55a1.971,1.971,0,0,0-1.962,1.962V53.984a1.971,1.971,0,0,0,1.962,1.962H30.262a1.976,1.976,0,0,0,1.986-1.962Zm1.077-.359a8.773,8.773,0,0,1,4.928,7.87v18.97h1.435a1.164,1.164,0,0,1,1.148,1.148,5.329,5.329,0,0,1-5.311,5.311H5.311A5.329,5.329,0,0,1,0,61.233a1.149,1.149,0,0,1,1.148-1.148H2.584V41.114A8.835,8.835,0,0,1,7.512,33.22V30.038A3.042,3.042,0,0,1,10.55,27H30.262a3.048,3.048,0,0,1,3.062,3.038ZM22.965,63.864h-5.1a.55.55,0,0,1,0-1.1h5.1A.55.55,0,0,1,22.965,63.864ZM14.88,39.7a4.282,4.282,0,1,1,4.306-4.282A4.278,4.278,0,0,1,14.88,39.7Zm0-7.488a3.206,3.206,0,1,0,3.206,3.206A3.206,3.206,0,0,0,14.88,32.215Zm0,20.693A4.294,4.294,0,1,1,19.186,48.6,4.3,4.3,0,0,1,14.88,52.908Zm0-7.488A3.194,3.194,0,1,0,18.085,48.6,3.2,3.2,0,0,0,14.88,45.42Zm-.622,4.737c-.359,0-.766-.526-1.148-.909-.5-.5.263-1.268.789-.766l.359.359,1.627-1.627c.5-.5,1.268.263.766.789l-2.009,2.009A.543.543,0,0,1,14.258,50.157Zm11.22,1.124a.534.534,0,0,1-.526-.67l.933-4.186a.552.552,0,0,1,1.077.239L26,50.851A.584.584,0,0,1,25.477,51.281Zm0-13.205a.534.534,0,0,1-.526-.67l.933-4.186a.552.552,0,0,1,1.077.239L26,37.645A.555.555,0,0,1,25.477,38.076Zm-9.33-.861c-.359,0-.861-.622-1.268-1.029-.407.407-.885,1.029-1.268,1.029a.534.534,0,0,1-.383-.909l.885-.885c-.574-.574-1.387-1.148-.885-1.651.526-.526,1.077.311,1.651.885.574-.574,1.148-1.411,1.651-.885.526.5-.287,1.077-.885,1.651.6.574,1.411,1.124.885,1.651A.543.543,0,0,1,16.148,37.215ZM27.917,38a.55.55,0,0,1-.407-.909l1.459-1.722L27.511,33.65a.535.535,0,1,1,.813-.694l1.77,2.081a.491.491,0,0,1,0,.694l-1.77,2.081A.548.548,0,0,1,27.917,38ZM23.97,38a.548.548,0,0,1-.407-.191l-1.77-2.081a.542.542,0,0,1,0-.694l1.77-2.081a.544.544,0,0,1,.837.694l-1.483,1.722L24.4,37.1A.564.564,0,0,1,23.97,38Zm3.947,13.205a.55.55,0,0,1-.407-.909l1.459-1.722-1.459-1.722a.542.542,0,0,1,.813-.718l1.77,2.081a.52.52,0,0,1,0,.718l-1.77,2.081A.548.548,0,0,1,27.917,51.209Z" transform="translate(0 0)" fill="#114d74" fill-rule="evenodd"/>
    </g>
  </g>
</svg>
