<svg xmlns="http://www.w3.org/2000/svg" width="1239.051" height="250" viewBox="0 0 1239.051 250">
  <g id="Grupo_1118056" data-name="Grupo 1118056" transform="translate(8474.051 2687)">
    <text id="Evaluación_con_ISO_IEC_25000_Funcionalidad_Fiabilidad_Usabilidad_Identificación_de_fortalezas_y_mejoras" data-name="Evaluación con ISO/IEC 25000
Funcionalidad, Fiabilidad, Usabilidad
Identificación de fortalezas y mejoras" transform="translate(-8423.051 -2582.585)" fill="#12263f" font-size="16" font-family="Roboto-Regular, Roboto"><tspan x="0" y="17">Evaluación con ISO/IEC 25000</tspan><tspan x="0" y="52">Funcionalidad, Fiabilidad, Usabilidad</tspan><tspan x="0" y="87">Identificación de fortalezas y mejoras</tspan></text>
    <rect id="Rectángulo_405226" data-name="Rectángulo 405226" width="439.718" height="45" transform="translate(-8073.769 -2658.585)" fill="#41c0f0"/>
    <rect id="Rectángulo_410373" data-name="Rectángulo 410373" width="383.718" height="45" transform="translate(-8474.051 -2658.585)" fill="#41c0f0"/>
    <g id="Rectángulo_405224" data-name="Rectángulo 405224" transform="translate(-8073.769 -2658.585)" fill="none" stroke="#114d74" stroke-width="2">
      <rect width="439.718" height="209" stroke="none"/>
      <rect x="1" y="1" width="437.718" height="207" fill="none"/>
    </g>
    <g id="Rectángulo_410372" data-name="Rectángulo 410372" transform="translate(-8474.051 -2658.585)" fill="none" stroke="#114d74" stroke-width="2">
      <rect width="383.718" height="209" stroke="none"/>
      <rect x="1" y="1" width="381.718" height="207" fill="none"/>
    </g>
    <path id="Trazado_903760" data-name="Trazado 903760" d="M-5107.722-4812.2h436.4" transform="translate(-2966.047 2238.617)" fill="none" stroke="#114d74" stroke-width="2"/>
    <path id="Trazado_903763" data-name="Trazado 903763" d="M-5107.722-4812.2h436.4" transform="translate(-2966.047 2278.617)" fill="none" stroke="#114d74" stroke-width="2"/>
    <path id="Trazado_912572" data-name="Trazado 912572" d="M-5107.722-4812.2h436.4" transform="translate(-2966.047 2318.617)" fill="none" stroke="#114d74" stroke-width="2"/>
    <text id="_Funcionalidad" data-name=" Funcionalidad" transform="translate(-8059 -2606.787)" fill="#12263f" font-size="16" font-family="Roboto-Regular, Roboto"><tspan x="0" y="17" xml:space="preserve"> Funcionalidad</tspan></text>
    <text id="Alta_cobertura" data-name="Alta cobertura" transform="translate(-7905 -2606.787)" fill="#12263f" font-size="16" font-family="Roboto-Regular, Roboto"><tspan x="0" y="17">Alta cobertura</tspan></text>
    <text id="Alta_cobertura-2" data-name="Alta cobertura" transform="translate(-7754 -2606.787)" fill="#12263f" font-size="16" font-family="Roboto-Regular, Roboto"><tspan x="0" y="17">Alta cobertura</tspan></text>
    <text id="_Fiabilidad" data-name=" Fiabilidad" transform="translate(-8059 -2564.585)" fill="#12263f" font-size="16" font-family="Roboto-Regular, Roboto"><tspan x="0" y="17" xml:space="preserve"> Fiabilidad</tspan></text>
    <text id="Muy_estable" data-name="Muy estable" transform="translate(-7905 -2564.585)" fill="#12263f" font-size="16" font-family="Roboto-Regular, Roboto"><tspan x="0" y="17">Muy estable</tspan></text>
    <text id="Muy_estable-2" data-name="Muy estable" transform="translate(-7754 -2564.585)" fill="#12263f" font-size="16" font-family="Roboto-Regular, Roboto"><tspan x="0" y="17">Muy estable</tspan></text>
    <text id="Shiguella_s.p" data-name="Shiguella s.p" transform="translate(-8059 -2524.585)" fill="#12263f" font-size="16" font-family="Roboto-Regular, Roboto"><tspan x="0" y="17">Shiguella s.p</tspan></text>
    <text id="_Intuitiva" data-name=" Intuitiva" transform="translate(-7905 -2524.585)" fill="#12263f" font-size="16" font-family="Roboto-Regular, Roboto"><tspan x="0" y="17" xml:space="preserve"> Intuitiva</tspan></text>
    <text id="_Intuitiva-2" data-name=" Intuitiva" transform="translate(-7754 -2524.585)" fill="#12263f" font-size="16" font-family="Roboto-Regular, Roboto"><tspan x="0" y="17" xml:space="preserve"> Intuitiva</tspan></text>
    <text id="Eficiencia" transform="translate(-8059 -2484.585)" fill="#12263f" font-size="16" font-family="Roboto-Regular, Roboto"><tspan x="0" y="17">Eficiencia</tspan></text>
    <text id="Óptimo" transform="translate(-7905 -2484.585)" fill="#12263f" font-size="16" font-family="Roboto-Regular, Roboto"><tspan x="0" y="17">Óptimo</tspan></text>
    <text id="Óptimo-2" data-name="Óptimo" transform="translate(-7754 -2484.585)" fill="#12263f" font-size="16" font-family="Roboto-Regular, Roboto"><tspan x="0" y="17">Óptimo</tspan></text>
    <path id="Trazado_903769" data-name="Trazado 903769" d="M-5020.007-4853v209" transform="translate(-2905.044 2194.414)" fill="none" stroke="#114d74" stroke-width="2"/>
    <path id="Trazado_912573" data-name="Trazado 912573" d="M-5020.007-4853v209" transform="translate(-2754.044 2194.414)" fill="none" stroke="#114d74" stroke-width="2"/>
    <path id="Trazado_903770" data-name="Trazado 903770" d="M-5107.722-4812.2h436.4" transform="translate(-2966.047 2198.617)" fill="none" stroke="#114d74" stroke-width="2"/>
    <text id="Atributo" transform="translate(-8030.051 -2646.787)" fill="#fff" font-size="18" font-family="Roboto-Black, Roboto" font-weight="800"><tspan x="4.145" y="19">Atributo</tspan></text>
    <text id="Adobe" transform="translate(-7881 -2646.787)" fill="#fff" font-size="18" font-family="Roboto-Black, Roboto" font-weight="800"><tspan x="5.802" y="19">Adobe</tspan></text>
    <text id="Corel" transform="translate(-7736.132 -2646.787)" fill="#fff" font-size="18" font-family="Roboto-Black, Roboto" font-weight="800"><tspan x="10.271" y="19">Corel</tspan></text>
    <text id="Caso:_Ministerio_de_Salud_del_Perú" data-name="Caso: Ministerio de Salud del Perú" transform="translate(-8453.018 -2645.585)" fill="#fff" font-size="16" font-family="Roboto-Bold, Roboto" font-weight="700"><tspan x="0" y="17">Caso: Ministerio de Salud del Perú</tspan></text>
    <circle id="Elipse_12827" data-name="Elipse 12827" cx="3" cy="3" r="3" transform="translate(-8433 -2576)" fill="#049767"/>
    <circle id="Elipse_12828" data-name="Elipse 12828" cx="3" cy="3" r="3" transform="translate(-8433 -2541)" fill="#049767"/>
    <circle id="Elipse_12829" data-name="Elipse 12829" cx="3" cy="3" r="3" transform="translate(-8433 -2506)" fill="#049767"/>
    <g id="Grupo_1118021" data-name="Grupo 1118021" transform="translate(-8655.051 -6686)">
      <path id="Trazado_912574" data-name="Trazado 912574" d="M0,104.81,98.525,0,206.908,101.372,98.525,195.735Z" transform="matrix(0.999, 0.035, -0.035, 0.999, 1134.626, 4030.246)" fill="#d8f2fc" stroke="#41c0f0" stroke-width="2"/>
      <g id="Elipse_12830" data-name="Elipse 12830" transform="translate(1134.051 4037)" fill="none" stroke="#707070" stroke-width="1">
        <circle cx="97" cy="97" r="97" stroke="none"/>
        <circle cx="97" cy="97" r="96.5" fill="none"/>
      </g>
      <path id="Rectángulo_410374" data-name="Rectángulo 410374" d="M9,0H95a0,0,0,0,1,0,0V26a9,9,0,0,1-9,9H0a0,0,0,0,1,0,0V9A9,9,0,0,1,9,0Z" transform="translate(1187.051 3999)" fill="#41c0f0"/>
      <text id="Perfil_de_métricas" data-name="Perfil de métricas" transform="translate(1199.051 4014)" fill="#12263f" font-size="9" font-family="Roboto-Medium, Roboto" font-weight="500"><tspan x="0" y="0">Perfil de métricas</tspan></text>
      <text id="Fiabilidad" transform="translate(1216.051 4027)" fill="#12263f" font-size="9" font-family="Roboto-Regular, Roboto"><tspan x="0" y="0">Fiabilidad</tspan></text>
      <path id="Rectángulo_410375" data-name="Rectángulo 410375" d="M9,0H68a0,0,0,0,1,0,0V11a9,9,0,0,1-9,9H0a0,0,0,0,1,0,0V9A9,9,0,0,1,9,0Z" transform="translate(1058.051 4125)" fill="#41c0f0"/>
      <path id="Rectángulo_410376" data-name="Rectángulo 410376" d="M9,0H82a0,0,0,0,1,0,0V11a9,9,0,0,1-9,9H0a0,0,0,0,1,0,0V9A9,9,0,0,1,9,0Z" transform="translate(1338.051 4126)" fill="#41c0f0"/>
      <path id="Rectángulo_410377" data-name="Rectángulo 410377" d="M9,0H83a0,0,0,0,1,0,0V10a9,9,0,0,1-9,9H0a0,0,0,0,1,0,0V9A9,9,0,0,1,9,0Z" transform="translate(1183.051 4230)" fill="#41c0f0"/>
      <text id="Usabilidad" transform="translate(1066.051 4138)" fill="#12263f" font-size="9" font-family="Roboto-Regular, Roboto"><tspan x="0" y="0">Usabilidad</tspan></text>
      <text id="Funcionalidad" transform="translate(1346.051 4139)" fill="#12263f" font-size="9" font-family="Roboto-Regular, Roboto"><tspan x="0" y="0">Funcionalidad</tspan></text>
      <text id="Eficiencia-2" data-name="Eficiencia" transform="translate(1203.051 4242)" fill="#12263f" font-size="9" font-family="Roboto-Regular, Roboto"><tspan x="0" y="0">Eficiencia</tspan></text>
      <g id="Elipse_12831" data-name="Elipse 12831" transform="translate(1152.051 4055)" fill="none" stroke="#707070" stroke-width="1">
        <circle cx="79" cy="79" r="79" stroke="none"/>
        <circle cx="79" cy="79" r="78.5" fill="none"/>
      </g>
      <g id="Elipse_12832" data-name="Elipse 12832" transform="translate(1169.051 4072)" fill="none" stroke="#707070" stroke-width="1">
        <ellipse cx="62" cy="61.5" rx="62" ry="61.5" stroke="none"/>
        <ellipse cx="62" cy="61.5" rx="61.5" ry="61" fill="none"/>
      </g>
      <g id="Elipse_12833" data-name="Elipse 12833" transform="translate(1190.051 4093)" fill="none" stroke="#707070" stroke-width="1">
        <circle cx="40.5" cy="40.5" r="40.5" stroke="none"/>
        <circle cx="40.5" cy="40.5" r="40" fill="none"/>
      </g>
      <line id="Línea_217" data-name="Línea 217" y2="202" transform="translate(1232.051 4033)" fill="none" stroke="#707070" stroke-width="1"/>
      <line id="Línea_218" data-name="Línea 218" x1="194" y1="1" transform="translate(1134.051 4134)" fill="none" stroke="#707070" stroke-width="1"/>
    </g>
  </g>
</svg>
