<svg xmlns="http://www.w3.org/2000/svg" width="65.999" height="65.999" viewBox="0 0 65.999 65.999">
  <g id="Grupo_1118395" data-name="Grupo 1118395" transform="translate(-192.052 -895.985)">
    <g id="Grupo_1118394" data-name="Grupo 1118394">
      <circle id="Elipse_12939" data-name="Elipse 12939" cx="32.999" cy="32.999" r="32.999" transform="translate(192.052 895.985)" fill="#41c0f0"/>
      <g id="Grupo_1118234" data-name="Grupo 1118234" transform="translate(202.982 905.37)">
        <g id="Grupo_1118169" data-name="Grupo 1118169">
          <g id="Grupo_1118142" data-name="Grupo 1118142">
            <g id="Grupo_1118141" data-name="Grupo 1118141">
              <g id="Grupo_1118140" data-name="Grupo 1118140">
                <g id="Grupo_1118139" data-name="Grupo 1118139">
                  <path id="Trazado_912893" data-name="Trazado 912893" d="M37.721,39.776H5.82A3.824,3.824,0,0,1,2,35.957V13.876a3.825,3.825,0,0,1,3.82-3.82H32.3a.5.5,0,0,1,.491.4.268.268,0,0,0,.072.143l1.008,1a.5.5,0,0,1,.074.618,7.991,7.991,0,0,0-.781,1.675.5.5,0,0,1-.475.342H31.36a.369.369,0,0,0-.36.36v2.58a.371.371,0,0,0,.36.37H32.5a.5.5,0,0,1,.489.4,7.138,7.138,0,0,0,.7,1.925.5.5,0,0,1-.089.593l-.729.721a.351.351,0,0,0-.106.254.346.346,0,0,0,.1.252L34.7,23.524a.375.375,0,0,0,.521,0l.62-.62a.5.5,0,0,1,.617-.071,7.572,7.572,0,0,0,2.026.882.5.5,0,0,1,.37.482v.83a.361.361,0,0,0,.36.36H41.03a.5.5,0,0,1,.5.5v10.07a3.818,3.818,0,0,1-3.81,3.819ZM5.82,11.056A2.824,2.824,0,0,0,3,13.877v22.08a2.823,2.823,0,0,0,2.82,2.819h31.9a2.818,2.818,0,0,0,2.81-2.819v-9.57H39.211a1.362,1.362,0,0,1-1.36-1.36V24.57a8.511,8.511,0,0,1-1.58-.687l-.347.347a1.4,1.4,0,0,1-1.937,0L32.166,22.4a1.357,1.357,0,0,1,.007-1.932l.466-.46a8.122,8.122,0,0,1-.534-1.461H31.36A1.367,1.367,0,0,1,30,17.176V14.6a1.362,1.362,0,0,1,1.36-1.36h.978a8.949,8.949,0,0,1,.555-1.2l-.733-.727a1.243,1.243,0,0,1-.2-.256H5.82Z" fill="#114d74"/>
                </g>
              </g>
            </g>
          </g>
          <g id="Grupo_1118147" data-name="Grupo 1118147">
            <g id="Grupo_1118146" data-name="Grupo 1118146">
              <g id="Grupo_1118145" data-name="Grupo 1118145">
                <g id="Grupo_1118144" data-name="Grupo 1118144">
                  <g id="Grupo_1118143" data-name="Grupo 1118143">
                    <path id="Trazado_912894" data-name="Trazado 912894" d="M26.341,44.176a.5.5,0,0,1-.5-.5v-3.9H17.7v3.9a.5.5,0,0,1-1,0v-4.4a.5.5,0,0,1,.5-.5h9.141a.5.5,0,0,1,.5.5v4.4a.5.5,0,0,1-.5.5Z" fill="#114d74"/>
                  </g>
                </g>
              </g>
            </g>
          </g>
          <g id="Grupo_1118151" data-name="Grupo 1118151">
            <g id="Grupo_1118150" data-name="Grupo 1118150">
              <g id="Grupo_1118149" data-name="Grupo 1118149">
                <g id="Grupo_1118148" data-name="Grupo 1118148">
                  <path id="Trazado_912895" data-name="Trazado 912895" d="M37.723,39.773H5.817A3.816,3.816,0,0,1,2,35.96V33.714a.5.5,0,0,1,.5-.5h38.53a.5.5,0,0,1,.5.5V35.96A3.816,3.816,0,0,1,37.723,39.773ZM3,34.214V35.96a2.816,2.816,0,0,0,2.812,2.813H37.723a2.816,2.816,0,0,0,2.813-2.812V34.214Z" fill="#114d74"/>
                </g>
              </g>
            </g>
          </g>
          <g id="Grupo_1118164" data-name="Grupo 1118164">
            <g id="Grupo_1118155" data-name="Grupo 1118155">
              <g id="Grupo_1118154" data-name="Grupo 1118154">
                <g id="Grupo_1118153" data-name="Grupo 1118153">
                  <g id="Grupo_1118152" data-name="Grupo 1118152">
                    <path id="Trazado_912896" data-name="Trazado 912896" d="M17.509,36.994H16.4a.5.5,0,0,1,0-1h1.111a.5.5,0,0,1,0,1Z" fill="#114d74"/>
                  </g>
                </g>
              </g>
            </g>
            <g id="Grupo_1118159" data-name="Grupo 1118159">
              <g id="Grupo_1118158" data-name="Grupo 1118158">
                <g id="Grupo_1118157" data-name="Grupo 1118157">
                  <g id="Grupo_1118156" data-name="Grupo 1118156">
                    <path id="Trazado_912897" data-name="Trazado 912897" d="M22.326,36.994H21.214a.5.5,0,1,1,0-1h1.112a.5.5,0,1,1,0,1Z" fill="#114d74"/>
                  </g>
                </g>
              </g>
            </g>
            <g id="Grupo_1118163" data-name="Grupo 1118163">
              <g id="Grupo_1118162" data-name="Grupo 1118162">
                <g id="Grupo_1118161" data-name="Grupo 1118161">
                  <g id="Grupo_1118160" data-name="Grupo 1118160">
                    <path id="Trazado_912898" data-name="Trazado 912898" d="M27.144,36.994H26.031a.5.5,0,0,1,0-1h1.112a.5.5,0,0,1,0,1Z" fill="#114d74"/>
                  </g>
                </g>
              </g>
            </g>
          </g>
          <g id="Grupo_1118168" data-name="Grupo 1118168">
            <g id="Grupo_1118167" data-name="Grupo 1118167">
              <g id="Grupo_1118166" data-name="Grupo 1118166">
                <g id="Grupo_1118165" data-name="Grupo 1118165">
                  <path id="Trazado_912899" data-name="Trazado 912899" d="M29.554,47.614H14.21a2.216,2.216,0,1,1,0-4.433H29.554a2.216,2.216,0,0,1,0,4.433ZM14.21,44.181a1.216,1.216,0,1,0,0,2.433H29.554a1.216,1.216,0,0,0,0-2.433Z" fill="#114d74"/>
                </g>
              </g>
            </g>
          </g>
        </g>
        <g id="Grupo_1118174" data-name="Grupo 1118174">
          <g id="Grupo_1118173" data-name="Grupo 1118173">
            <g id="Grupo_1118172" data-name="Grupo 1118172">
              <g id="Grupo_1118171" data-name="Grupo 1118171">
                <g id="Grupo_1118170" data-name="Grupo 1118170">
                  <path id="Trazado_912900" data-name="Trazado 912900" d="M12.352,21.1H7.61a1.5,1.5,0,0,1-1.491-1.5V14.867A1.493,1.493,0,0,1,7.61,13.375h4.742a1.493,1.493,0,0,1,1.492,1.492V19.6A1.5,1.5,0,0,1,12.352,21.1ZM7.61,14.375a.492.492,0,0,0-.491.492V19.6a.5.5,0,0,0,.491.5h4.742a.492.492,0,0,0,.492-.5V14.867a.493.493,0,0,0-.492-.492Z" fill="#114d74"/>
                </g>
              </g>
            </g>
          </g>
        </g>
        <g id="Grupo_1118183" data-name="Grupo 1118183">
          <g id="Grupo_1118178" data-name="Grupo 1118178">
            <g id="Grupo_1118177" data-name="Grupo 1118177">
              <g id="Grupo_1118176" data-name="Grupo 1118176">
                <g id="Grupo_1118175" data-name="Grupo 1118175">
                  <path id="Trazado_912901" data-name="Trazado 912901" d="M28.312,15.848H18.131a.5.5,0,0,1,0-1H28.312a.5.5,0,0,1,0,1Z" fill="#114d74"/>
                </g>
              </g>
            </g>
          </g>
          <g id="Grupo_1118182" data-name="Grupo 1118182">
            <g id="Grupo_1118181" data-name="Grupo 1118181">
              <g id="Grupo_1118180" data-name="Grupo 1118180">
                <g id="Grupo_1118179" data-name="Grupo 1118179">
                  <path id="Trazado_912902" data-name="Trazado 912902" d="M26.02,19.626H18.131a.5.5,0,1,1,0-1H26.02a.5.5,0,0,1,0,1Z" fill="#114d74"/>
                </g>
              </g>
            </g>
          </g>
        </g>
        <g id="Grupo_1118192" data-name="Grupo 1118192">
          <g id="Grupo_1118187" data-name="Grupo 1118187">
            <g id="Grupo_1118186" data-name="Grupo 1118186">
              <g id="Grupo_1118185" data-name="Grupo 1118185">
                <g id="Grupo_1118184" data-name="Grupo 1118184">
                  <path id="Trazado_912903" data-name="Trazado 912903" d="M28.312,25.653H18.131a.5.5,0,0,1,0-1H28.312a.5.5,0,0,1,0,1Z" fill="#114d74"/>
                </g>
              </g>
            </g>
          </g>
          <g id="Grupo_1118191" data-name="Grupo 1118191">
            <g id="Grupo_1118190" data-name="Grupo 1118190">
              <g id="Grupo_1118189" data-name="Grupo 1118189">
                <g id="Grupo_1118188" data-name="Grupo 1118188">
                  <path id="Trazado_912904" data-name="Trazado 912904" d="M26.02,29.431H18.131a.5.5,0,1,1,0-1H26.02a.5.5,0,0,1,0,1Z" fill="#114d74"/>
                </g>
              </g>
            </g>
          </g>
        </g>
        <g id="Grupo_1118196" data-name="Grupo 1118196">
          <g id="Grupo_1118195" data-name="Grupo 1118195">
            <g id="Grupo_1118194" data-name="Grupo 1118194">
              <g id="Grupo_1118193" data-name="Grupo 1118193">
                <path id="Trazado_912905" data-name="Trazado 912905" d="M12.352,30.9H7.61a1.5,1.5,0,0,1-1.491-1.5V24.67A1.493,1.493,0,0,1,7.61,23.179h4.742a1.493,1.493,0,0,1,1.492,1.491V29.4a1.5,1.5,0,0,1-1.492,1.5ZM7.61,24.179a.492.492,0,0,0-.491.491V29.4a.5.5,0,0,0,.491.5h4.742a.492.492,0,0,0,.492-.5V24.67a.492.492,0,0,0-.492-.491Z" fill="#114d74"/>
              </g>
            </g>
          </g>
        </g>
        <g id="Grupo_1118200" data-name="Grupo 1118200">
          <g id="Grupo_1118199" data-name="Grupo 1118199">
            <g id="Grupo_1118198" data-name="Grupo 1118198">
              <g id="Grupo_1118197" data-name="Grupo 1118197">
                <path id="Trazado_912906" data-name="Trazado 912906" d="M9.519,18.456a.5.5,0,0,1-.354-.146l-.719-.718a.5.5,0,0,1,.707-.707l.365.364,1.365-1.366a.5.5,0,1,1,.707.707l-1.719,1.72a.5.5,0,0,1-.354.146Z" fill="#114d74"/>
              </g>
            </g>
          </g>
        </g>
        <g id="Grupo_1118209" data-name="Grupo 1118209">
          <g id="Grupo_1118204" data-name="Grupo 1118204">
            <g id="Grupo_1118203" data-name="Grupo 1118203">
              <g id="Grupo_1118202" data-name="Grupo 1118202">
                <g id="Grupo_1118201" data-name="Grupo 1118201">
                  <path id="Trazado_912907" data-name="Trazado 912907" d="M10.94,28.5a.5.5,0,0,1-.354-.146L8.67,26.436a.5.5,0,0,1,.707-.707l1.917,1.918a.5.5,0,0,1-.354.854Z" fill="#114d74"/>
                </g>
              </g>
            </g>
          </g>
          <g id="Grupo_1118208" data-name="Grupo 1118208">
            <g id="Grupo_1118207" data-name="Grupo 1118207">
              <g id="Grupo_1118206" data-name="Grupo 1118206">
                <g id="Grupo_1118205" data-name="Grupo 1118205">
                  <path id="Trazado_912908" data-name="Trazado 912908" d="M9.023,28.5a.5.5,0,0,1-.354-.854l1.916-1.917a.5.5,0,0,1,.707.707L9.377,28.354A.5.5,0,0,1,9.023,28.5Z" fill="#114d74"/>
                </g>
              </g>
            </g>
          </g>
        </g>
        <g id="Grupo_1118233" data-name="Grupo 1118233">
          <g id="Grupo_1118213" data-name="Grupo 1118213">
            <g id="Grupo_1118212" data-name="Grupo 1118212">
              <g id="Grupo_1118211" data-name="Grupo 1118211">
                <g id="Grupo_1118210" data-name="Grupo 1118210">
                  <path id="Trazado_912909" data-name="Trazado 912909" d="M41.791,26.386h-2.58a1.362,1.362,0,0,1-1.36-1.36V24.57a8.511,8.511,0,0,1-1.58-.687l-.347.347a1.372,1.372,0,0,1-1.937,0L32.166,22.4a1.357,1.357,0,0,1,.007-1.932l.466-.46a8.122,8.122,0,0,1-.534-1.461H31.36A1.367,1.367,0,0,1,30,17.176V14.6a1.362,1.362,0,0,1,1.36-1.36h.978a8.949,8.949,0,0,1,.555-1.2l-.733-.727a1.276,1.276,0,0,1-.35-.66,1.339,1.339,0,0,1,.339-1.271l1.84-1.83a1.369,1.369,0,0,1,1.936,0l.849.856a9.016,9.016,0,0,1,1.078-.425V6.756a1.367,1.367,0,0,1,1.36-1.37h2.58a1.371,1.371,0,0,1,1.369,1.37V7.983a8.466,8.466,0,0,1,1.081.423l.844-.852a1.408,1.408,0,0,1,1.934,0l1.824,1.814a1.375,1.375,0,0,1,0,1.938l-.734.727a8.613,8.613,0,0,1,.554,1.2h.977A1.361,1.361,0,0,1,51,14.6v2.58a1.366,1.366,0,0,1-1.359,1.37H48.9A9.143,9.143,0,0,1,48.375,20l.469.47a1.357,1.357,0,0,1,0,1.932L47.014,24.23a1.407,1.407,0,0,1-1.932,0l-.341-.336a8.851,8.851,0,0,1-1.581.68v.457a1.366,1.366,0,0,1-1.369,1.36Zm-5.6-3.63a.5.5,0,0,1,.264.075,7.572,7.572,0,0,0,2.026.882.5.5,0,0,1,.37.482v.83a.361.361,0,0,0,.36.36h2.58a.361.361,0,0,0,.369-.36V24.2a.5.5,0,0,1,.368-.482,7.924,7.924,0,0,0,2.032-.875.5.5,0,0,1,.61.071l.62.61a.361.361,0,0,0,.511.008l1.835-1.835a.357.357,0,0,0,.006-.507l-.726-.727a.5.5,0,0,1-.092-.58,8.252,8.252,0,0,0,.7-1.941.5.5,0,0,1,.488-.392h1.13a.361.361,0,0,0,.359-.37V14.6a.361.361,0,0,0-.359-.36h-1.33a.5.5,0,0,1-.475-.342,7.563,7.563,0,0,0-.777-1.669.5.5,0,0,1,.07-.624l1.01-1a.37.37,0,0,0,0-.521L46.308,8.26a.362.362,0,0,0-.509-.006L44.7,9.368a.5.5,0,0,1-.592.089,7.5,7.5,0,0,0-1.577-.618.5.5,0,0,1-.367-.482v-1.6a.37.37,0,0,0-.369-.37h-2.58a.371.371,0,0,0-.36.37v1.6a.5.5,0,0,1-.367.482,8.151,8.151,0,0,0-1.582.621.5.5,0,0,1-.586-.092l-1.1-1.11a.37.37,0,0,0-.521,0l-1.831,1.821a.351.351,0,0,0-.08.343.327.327,0,0,0,.081.18l1.008,1a.5.5,0,0,1,.074.618,7.991,7.991,0,0,0-.781,1.675.5.5,0,0,1-.475.342H31.36a.369.369,0,0,0-.36.36v2.58a.371.371,0,0,0,.36.37H32.5a.5.5,0,0,1,.489.4,7.138,7.138,0,0,0,.7,1.925.5.5,0,0,1-.089.593l-.729.721a.351.351,0,0,0-.106.254.346.346,0,0,0,.1.252L34.7,23.524a.369.369,0,0,0,.521,0l.62-.62a.5.5,0,0,1,.354-.146Z" fill="#114d74"/>
                </g>
              </g>
            </g>
          </g>
          <g id="Grupo_1118228" data-name="Grupo 1118228">
            <g id="Grupo_1118227" data-name="Grupo 1118227">
              <g id="Grupo_1118222" data-name="Grupo 1118222">
                <g id="Grupo_1118217" data-name="Grupo 1118217">
                  <g id="Grupo_1118216" data-name="Grupo 1118216">
                    <g id="Grupo_1118215" data-name="Grupo 1118215">
                      <g id="Grupo_1118214" data-name="Grupo 1118214">
                        <path id="Trazado_912910" data-name="Trazado 912910" d="M39.025,16.163a.5.5,0,0,1-.282-.087L37.1,14.951a.5.5,0,0,1,0-.826L38.743,13a.5.5,0,1,1,.564.826l-1.042.712,1.042.712a.5.5,0,0,1-.282.913Z" fill="#114d74"/>
                      </g>
                    </g>
                  </g>
                </g>
                <g id="Grupo_1118221" data-name="Grupo 1118221">
                  <g id="Grupo_1118220" data-name="Grupo 1118220">
                    <g id="Grupo_1118219" data-name="Grupo 1118219">
                      <g id="Grupo_1118218" data-name="Grupo 1118218">
                        <path id="Trazado_912911" data-name="Trazado 912911" d="M41.981,18.864a.5.5,0,0,1-.282-.913l1.042-.712L41.7,16.527a.5.5,0,0,1,.564-.826l1.646,1.125a.5.5,0,0,1,0,.826l-1.646,1.125A.5.5,0,0,1,41.981,18.864Z" fill="#114d74"/>
                      </g>
                    </g>
                  </g>
                </g>
              </g>
              <g id="Grupo_1118226" data-name="Grupo 1118226">
                <g id="Grupo_1118225" data-name="Grupo 1118225">
                  <g id="Grupo_1118224" data-name="Grupo 1118224">
                    <g id="Grupo_1118223" data-name="Grupo 1118223">
                      <path id="Trazado_912912" data-name="Trazado 912912" d="M39.57,19.089a.5.5,0,0,1-.473-.663l1.866-5.4a.5.5,0,1,1,.945.326l-1.866,5.4A.5.5,0,0,1,39.57,19.089Z" fill="#114d74"/>
                    </g>
                  </g>
                </g>
              </g>
            </g>
          </g>
          <g id="Grupo_1118232" data-name="Grupo 1118232">
            <g id="Grupo_1118231" data-name="Grupo 1118231">
              <g id="Grupo_1118230" data-name="Grupo 1118230">
                <g id="Grupo_1118229" data-name="Grupo 1118229">
                  <path id="Trazado_912913" data-name="Trazado 912913" d="M40.5,21.806a5.922,5.922,0,0,1-1.857-11.545A6.189,6.189,0,0,1,40.5,9.966a5.918,5.918,0,0,1,.577,11.808,5.055,5.055,0,0,1-.577.032Zm0-10.84a5.177,5.177,0,0,0-1.549.246A4.922,4.922,0,0,0,40.5,20.806a4.041,4.041,0,0,0,.474-.027,4.918,4.918,0,0,0-.474-9.812Z" fill="#114d74"/>
                </g>
              </g>
            </g>
          </g>
        </g>
      </g>
    </g>
  </g>
</svg>
