<svg xmlns="http://www.w3.org/2000/svg" width="69.999" height="69.999" viewBox="0 0 69.999 69.999">
  <g id="Grupo_1118400" data-name="Grupo 1118400" transform="translate(-608.912 -2433.107)">
    <circle id="Elipse_12945" data-name="Elipse 12945" cx="34.999" cy="34.999" r="34.999" transform="translate(608.912 2433.107)" fill="#41c0f0"/>
    <g id="Grupo_1118238" data-name="Grupo 1118238" transform="translate(623.494 2446.961)">
      <path id="Trazado_912963" data-name="Trazado 912963" d="M134.458,347.771h15.319a.6.6,0,1,0,0-1.2H134.458a.6.6,0,1,0,0,1.2Zm0,0" transform="translate(-123.216 -318.554)" fill="#114d74"/>
      <path id="Trazado_912964" data-name="Trazado 912964" d="M148.173,383.247a.6.6,0,0,0-.6-.6H134.458a.6.6,0,1,0,0,1.2h13.116A.6.6,0,0,0,148.173,383.247Zm0,0" transform="translate(-123.215 -351.76)" fill="#114d74"/>
      <path id="Trazado_912965" data-name="Trazado 912965" d="M146.879,418.727h-12.42a.6.6,0,1,0,0,1.2h12.42a.6.6,0,0,0,0-1.2Zm0,0" transform="translate(-123.216 -384.969)" fill="#114d74"/>
      <path id="Trazado_912966" data-name="Trazado 912966" d="M145.868,454.8h-11.41a.6.6,0,1,0,0,1.2h11.41a.6.6,0,0,0,0-1.2Zm0,0" transform="translate(-123.216 -418.175)" fill="#114d74"/>
      <path id="Trazado_912967" data-name="Trazado 912967" d="M38.79,36.451V34.308a6.549,6.549,0,0,0-3.181-5.619.24.24,0,0,1,0-.411,6.527,6.527,0,0,0,3.078-4.448,20.084,20.084,0,0,0,.105-3.313,2.208,2.208,0,0,0,1.923-2.15,2.245,2.245,0,0,0-2.253-2.241H35.492V6.643A1.344,1.344,0,0,0,34.147,5.3H31.553V1.846A1.345,1.345,0,0,0,30.207.5H22.316a.612.612,0,0,0-.614.52A.6.6,0,0,0,22.3,1.7h7.913a.148.148,0,0,1,.148.148V5.3H9.263A1.347,1.347,0,0,0,7.919,6.643V36.312a3.326,3.326,0,0,1-3.254,3.316A3.469,3.469,0,0,1,1.2,36.16c0-36.194,0-34.209,0-34.315,0-.293-.782-.08,18.679-.148a.615.615,0,0,0,.623-.579A.6.6,0,0,0,19.9.5H1.346A1.348,1.348,0,0,0,0,1.845c0,.009,0,34.3,0,34.316a4.671,4.671,0,0,0,4.665,4.665c41.11,0-7.316,0,33.844.017a2.205,2.205,0,0,0,.282-4.392Zm-1.2-2.142v2.124h-.219A10.144,10.144,0,0,0,35.493,34.7h0a.6.6,0,0,0-.7.974,9.7,9.7,0,0,1,.93.756H28.493a11.031,11.031,0,0,1,2.316-1.59,2.967,2.967,0,0,1,2.08-.208.6.6,0,1,0,.316-1.155,4.146,4.146,0,0,0-2.932.292,12.992,12.992,0,0,0-3.418,2.565V34.308a5.362,5.362,0,0,1,2.913-4.77,1.183,1.183,0,0,0,.5-.488l1.332.71V30.6a.6.6,0,0,0,1.2,0v-.8c.06-.03.767-.409,1.388-.74h0a1.182,1.182,0,0,0,.495.48,5.365,5.365,0,0,1,2.915,4.771Zm-5.335-5.58a.055.055,0,0,1-.052,0c-2.37-1.262-4.282-1.916-5.091-4.42H37.334c-.8,2.461-2.732,3.171-5.076,4.42Zm5.316-5.616h-10.7c-.033-.381-.014-.472-.019-2.576H37.593c-.006,2.112.013,2.2-.019,2.576Zm.934-5.789a1.008,1.008,0,1,1,0,2.016c-13.691,0-12.717.058-13.05-.123a1.009,1.009,0,0,1,.481-1.894Zm-12.26,8.055H24.722V20.168a2.191,2.191,0,0,0,.937.349c.024,1.945-.18,3.173.59,4.861Zm-1.526-8.884V12.474H26.93v3.651A3.51,3.51,0,0,0,24.722,16.493Zm3.4-.368V9.6h2.207v6.521Zm-4.157,23.5H7.662a4.507,4.507,0,0,0,1.454-3.314l0-29.818H34.147a.148.148,0,0,1,.148.148v9.482H31.53V9.361a.979.979,0,0,0-1-.954h-2.6a.979.979,0,0,0-1,.954v1.916h-2.4a.979.979,0,0,0-1,.955v1.916h-2.4a.98.98,0,0,0-1,.954v1.713H17.77a1.054,1.054,0,0,0-1.053,1.053v1.715H14.471a1.16,1.16,0,0,0-1.158,1.159v5.235a.6.6,0,0,0,.6.6H26.957A6.628,6.628,0,0,0,29.2,28.484a6.556,6.556,0,0,0-3.544,5.825v2.142a2.207,2.207,0,0,0-1.689,3.176Zm-.445-24.283V25.377H21.318V15.344Zm-3.4,2.667v7.366H17.914V18.011Zm-3.4,2.768v4.6H14.509v-4.6ZM38.509,39.646c-.131,0,1.525,0-12.763-.019a1.009,1.009,0,0,1,0-1.979H38.7a1.008,1.008,0,0,1-.191,2Zm0,0" fill="#114d74"/>
    </g>
  </g>
</svg>
