<svg xmlns="http://www.w3.org/2000/svg" width="70.177" height="66.546" viewBox="0 0 70.177 66.546">
  <g id="Grupo_1118237" data-name="Grupo 1118237" transform="translate(-3.971 -17.01)">
    <path id="Trazado_912943" data-name="Trazado 912943" d="M27.626,194.287h58.59a2.912,2.912,0,0,0,2.9-2.9V158.757a2.915,2.915,0,0,0-2.9-2.9H27.626a2.915,2.915,0,0,0-2.9,2.9v32.626a2.912,2.912,0,0,0,2.9,2.9Z" transform="translate(-17.861 -119.512)" fill="#4b4359" fill-rule="evenodd"/>
    <path id="Trazado_912944" data-name="Trazado 912944" d="M27.626,194.287H83.189a2.912,2.912,0,0,0,2.9-2.9V158.757a2.915,2.915,0,0,0-2.9-2.9H27.626a2.915,2.915,0,0,0-2.9,2.9v32.626a2.912,2.912,0,0,0,2.9,2.9Z" transform="translate(-17.861 -119.512)" fill="#574e66" fill-rule="evenodd"/>
    <path id="Trazado_912945" data-name="Trazado 912945" d="M55.477,186.608h55.835v29.871H55.477Z" transform="translate(-44.335 -145.986)" fill="#96d3ff"/>
    <path id="Trazado_912946" data-name="Trazado 912946" d="M13.98,439.862H74.535a3.984,3.984,0,0,0,3.974-3.97v-3.974H10.01v3.974A3.983,3.983,0,0,0,13.98,439.862Z" transform="translate(-5.198 -357.143)" fill="#e1dae7" fill-rule="evenodd"/>
    <path id="Trazado_912947" data-name="Trazado 912947" d="M13.98,439.862H71.509a3.983,3.983,0,0,0,3.97-3.97v-3.974H10.01v3.974A3.983,3.983,0,0,0,13.98,439.862Z" transform="translate(-5.198 -357.143)" fill="#ebe6ef" fill-rule="evenodd"/>
    <path id="Trazado_912948" data-name="Trazado 912948" d="M194.181,435.892h13.793a1.993,1.993,0,0,0,1.985-1.989v-1.985H192.192V433.9A2,2,0,0,0,194.181,435.892Z" transform="translate(-162.016 -357.143)" fill="#40374f" fill-rule="evenodd"/>
    <path id="Trazado_912949" data-name="Trazado 912949" d="M194.181,435.892h10.45a1.993,1.993,0,0,0,1.985-1.989v-1.985H192.192V433.9A2,2,0,0,0,194.181,435.892Z" transform="translate(-162.016 -357.143)" fill="#4b4359" fill-rule="evenodd"/>
    <path id="Trazado_912950" data-name="Trazado 912950" d="M432.967,186.608h3.28v29.871h-3.28Z" transform="translate(-369.269 -145.986)" fill="#74c3fc"/>
    <g id="Grupo_1118236" data-name="Grupo 1118236" transform="translate(19.998 17.851)">
      <path id="Trazado_912951" data-name="Trazado 912951" d="M120.67,71.524h34.962a1.583,1.583,0,0,0,1.579-1.579V31.183l-8.134-8.134H120.67a1.584,1.584,0,0,0-1.583,1.579V69.945A1.584,1.584,0,0,0,120.67,71.524Z" transform="translate(-119.087 -23.049)" fill="#e1dae7" fill-rule="evenodd"/>
      <path id="Trazado_912952" data-name="Trazado 912952" d="M120.67,71.524h31.517a1.583,1.583,0,0,0,1.579-1.579V27.738l-4.688-4.689H120.67a1.584,1.584,0,0,0-1.583,1.579V69.945A1.584,1.584,0,0,0,120.67,71.524Z" transform="translate(-119.087 -23.049)" fill="#ebe6ef" fill-rule="evenodd"/>
      <path id="Trazado_912953" data-name="Trazado 912953" d="M334.491,23.049V29.6a1.583,1.583,0,0,0,1.579,1.579h6.555l-8.134-8.134Z" transform="translate(-304.502 -23.049)" fill="#d8cfe0" fill-rule="evenodd"/>
      <path id="Trazado_912954" data-name="Trazado 912954" d="M206.831,93.245a6.779,6.779,0,0,1,1.468.608l1.058-.608a.639.639,0,0,1,.777.1l.663.663.663.663a.639.639,0,0,1,.1.777l-.612,1.054a6.7,6.7,0,0,1,.612,1.472l1.176.312a.642.642,0,0,1,.478.624v1.875a.639.639,0,0,1-.478.624l-1.176.316a6.59,6.59,0,0,1-.612,1.468l.612,1.054a.646.646,0,0,1-.1.781l-.663.659-.663.663a.634.634,0,0,1-.777.1l-1.058-.608a6.763,6.763,0,0,1-1.468.608l-.316,1.176a.63.63,0,0,1-.62.478h-1.875a.635.635,0,0,1-.624-.478l-.316-1.176a6.775,6.775,0,0,1-1.468-.608l-1.054.608a.64.64,0,0,1-.781-.1l-.663-.663-.659-.659a.64.64,0,0,1-.1-.781l.608-1.054a6.767,6.767,0,0,1-.608-1.468l-1.176-.316a.635.635,0,0,1-.478-.624V98.912a.638.638,0,0,1,.478-.624l1.176-.312a6.767,6.767,0,0,1,.608-1.468l-.608-1.058a.634.634,0,0,1,.1-.777l.659-.663.663-.663a.645.645,0,0,1,.781-.1l1.054.608a6.761,6.761,0,0,1,1.468-.608l.316-1.176a.639.639,0,0,1,.624-.478H205.9a.642.642,0,0,1,.624.478l.312,1.176Z" transform="translate(-185.894 -82.048)" fill="#ffc738" fill-rule="evenodd"/>
      <path id="Trazado_912955" data-name="Trazado 912955" d="M246.285,93.245a6.777,6.777,0,0,1,1.468.608l1.058-.608a.639.639,0,0,1,.777.1l.663.663.663.663a.639.639,0,0,1,.1.777l-.612,1.054a6.7,6.7,0,0,1,.612,1.472l1.176.312a.642.642,0,0,1,.478.624v1.875a.639.639,0,0,1-.478.624l-1.176.316a6.591,6.591,0,0,1-.612,1.468l.612,1.054a.646.646,0,0,1-.1.781l-.663.659-.663.663a.634.634,0,0,1-.777.1l-1.058-.608a6.764,6.764,0,0,1-1.468.608l-.316,1.176a.63.63,0,0,1-.62.478h-1.875a.634.634,0,0,1-.624-.478l-.316-1.176a6.6,6.6,0,0,0,0-13.209l.316-1.176a.639.639,0,0,1,.624-.478h1.875a.642.642,0,0,1,.624.478l.312,1.176Z" transform="translate(-225.349 -82.049)" fill="#ffb122" fill-rule="evenodd"/>
      <path id="Trazado_912956" data-name="Trazado 912956" d="M229,123.91a3.919,3.919,0,1,1,0,5.545A3.923,3.923,0,0,1,229,123.91Z" transform="translate(-212.709 -108.882)" fill="#f28d00" fill-rule="evenodd"/>
      <path id="Trazado_912957" data-name="Trazado 912957" d="M229,125.038a3.918,3.918,0,0,1,1.583-.963,3.918,3.918,0,0,1,1.587,6.508,3.914,3.914,0,0,1-1.587.963,3.872,3.872,0,0,1-1.583-.963A3.921,3.921,0,0,1,229,125.038Z" transform="translate(-212.709 -110.01)" fill="#ff9b0d" fill-rule="evenodd"/>
    </g>
    <path id="Trazado_912958" data-name="Trazado 912958" d="M205.236,242.1a.836.836,0,0,1,1.022-.588.827.827,0,0,1,.588,1.018L205.1,249.04a.833.833,0,1,1-1.61-.43l1.744-6.512Zm-4.846-.316a.834.834,0,0,1,1.18,1.18l-2.6,2.609,2.6,2.609a.834.834,0,1,1-1.18,1.18l-3.2-3.2a.831.831,0,0,1,0-1.18Zm8.379,1.18a.834.834,0,0,1,1.18-1.18l3.2,3.2a.839.839,0,0,1,0,1.18l-3.2,3.2a.834.834,0,1,1-1.18-1.18l2.609-2.609Z" transform="translate(-166.109 -193.22)" fill="#08a88a"/>
    <path id="Trazado_912959" data-name="Trazado 912959" d="M152.834,313.653a.835.835,0,1,1,0-1.669H180.12a.835.835,0,1,1,0,1.669Zm0,3.169a.837.837,0,0,1,0-1.673H180.12a.837.837,0,1,1,0,1.673Z" transform="translate(-127.417 -253.906)" fill="#574e66"/>
    <path id="Trazado_912960" data-name="Trazado 912960" d="M24.576,62.079a.84.84,0,0,1,.841-.837H52.7a.837.837,0,1,1,0,1.673H25.417A.838.838,0,0,1,24.576,62.079Zm0-3.169a.84.84,0,0,1,.841-.837H52.7a.839.839,0,0,1,0,1.677H25.417A.841.841,0,0,1,24.576,58.91Zm18.083-3.95,2.6-2.613-2.6-2.6a.836.836,0,0,1,1.184-1.18l3.193,3.2a.824.824,0,0,1,0,1.18l-3.193,3.2a.836.836,0,0,1-1.184-1.18Zm-2.51-6.674a.833.833,0,0,1,.588,1.022L39,55.82a.837.837,0,0,1-.809.62.822.822,0,0,1-.217-.028.837.837,0,0,1-.592-1.022l1.744-6.512A.833.833,0,0,1,40.149,48.286Zm-4.684,1.456-2.609,2.6,2.609,2.613a.838.838,0,0,1,0,1.18.838.838,0,0,1-1.184,0l-3.2-3.2a.856.856,0,0,1-.245-.592.871.871,0,0,1,.245-.592l3.2-3.2a.837.837,0,0,1,1.184,1.184Zm1.417-16.272a3.082,3.082,0,0,1,4.361,0,3.084,3.084,0,1,1-4.361,0Zm2.182,6.934A4.753,4.753,0,1,0,35.7,39.016a4.724,4.724,0,0,0,3.366,1.389Zm-7.427-5.541,1.034-.28a.844.844,0,0,0,.592-.58,5.973,5.973,0,0,1,.533-1.29.831.831,0,0,0-.008-.825l-.533-.923,1.117-1.121.927.537a.831.831,0,0,0,.825,0,5.966,5.966,0,0,1,1.291-.533.833.833,0,0,0,.576-.588l.28-1.034h1.579l.276,1.034a.818.818,0,0,0,.58.588,6.046,6.046,0,0,1,1.29.533.824.824,0,0,0,.821,0l.931-.533,1.117,1.117-.533.923a.827.827,0,0,0-.008.833A5.7,5.7,0,0,1,44.861,34a.831.831,0,0,0,.588.58l1.038.28v1.579l-1.038.28a.833.833,0,0,0-.588.576,5.87,5.87,0,0,1-.537,1.287.827.827,0,0,0,.008.833l.533.923-1.117,1.117-.931-.533A.824.824,0,0,0,42,40.918a5.852,5.852,0,0,1-1.29.533.851.851,0,0,0-.58.592l-.276,1.03H38.27l-.28-1.03a.838.838,0,0,0-.576-.592,5.776,5.776,0,0,1-1.291-.533.841.841,0,0,0-.825.008l-.927.533-1.117-1.117.533-.927a.832.832,0,0,0,.008-.825,5.934,5.934,0,0,1-.533-1.29.844.844,0,0,0-.592-.58l-1.034-.276Zm-.572,3.157.73.193c.095.26.2.513.312.762l-.371.655a1.47,1.47,0,0,0,.233,1.788l1.318,1.326a1.5,1.5,0,0,0,1.8.237l.659-.379a7.079,7.079,0,0,0,.754.312l.193.734a1.484,1.484,0,0,0,1.437,1.1h1.871a1.468,1.468,0,0,0,1.429-1.1l.2-.734a7.514,7.514,0,0,0,.762-.312l.663.383a1.47,1.47,0,0,0,1.784-.241l1.326-1.326a1.462,1.462,0,0,0,.233-1.788l-.383-.655a6.667,6.667,0,0,0,.32-.758l.738-.2a1.47,1.47,0,0,0,1.089-1.433V34.714a1.479,1.479,0,0,0-1.1-1.429l-.73-.2a6.948,6.948,0,0,0-.32-.754l.387-.663a1.464,1.464,0,0,0-.237-1.784l-1.326-1.322a1.473,1.473,0,0,0-1.784-.237l-.663.379a6.166,6.166,0,0,0-.762-.312l-.189-.742a1.479,1.479,0,0,0-1.437-1.093H38.124a1.488,1.488,0,0,0-1.437,1.1l-.193.738a6.3,6.3,0,0,0-.754.312l-.659-.379a1.477,1.477,0,0,0-1.792.237l-1.322,1.322a1.472,1.472,0,0,0-.233,1.788l.371.659c-.114.249-.217.5-.312.758l-.722.193a1.479,1.479,0,0,0-1.105,1.433v1.875a1.462,1.462,0,0,0,1.1,1.433ZM72.475,78.749a3.137,3.137,0,0,1-3.138,3.134H8.782a3.136,3.136,0,0,1-3.134-3.134V75.612H29.343V76.76a2.826,2.826,0,0,0,2.818,2.826h13.8A2.827,2.827,0,0,0,48.78,76.76V75.612H72.475ZM31.009,75.612H47.1V76.76a1.146,1.146,0,0,1-1.144,1.148h-13.8a1.153,1.153,0,0,1-1.152-1.148V75.612ZM7.7,71.871V39.245a2.07,2.07,0,0,1,2.068-2.068h9.4v2.609H11.142a.838.838,0,0,0-.841.837V70.493a.838.838,0,0,0,.841.837H66.977a.834.834,0,0,0,.833-.837V40.622a.834.834,0,0,0-.833-.837H58.954V37.177h9.4a2.073,2.073,0,0,1,2.068,2.068V71.871a2.07,2.07,0,0,1-2.068,2.068H9.765A2.067,2.067,0,0,1,7.7,71.871ZM20.835,19.429a.745.745,0,0,1,.746-.746H49.155v5.722a2.411,2.411,0,0,0,2.407,2.415h5.723V64.743a.745.745,0,0,1-.742.746H21.58a.743.743,0,0,1-.746-.746V19.429Zm29.986.442,5.28,5.276H51.562a.754.754,0,0,1-.742-.742ZM21.58,67.162H56.542a2.415,2.415,0,0,0,2.411-2.419V41.459h7.183v28.2H11.979v-28.2h7.183V64.743a2.422,2.422,0,0,0,2.419,2.419Zm51.727,6.776H71.468a3.682,3.682,0,0,0,.624-2.068V39.245A3.744,3.744,0,0,0,68.351,35.5h-9.4V25.984a.837.837,0,0,0-.245-.592l-8.134-8.138a.837.837,0,0,0-.588-.245H21.581a2.422,2.422,0,0,0-2.419,2.419V35.5h-9.4a3.747,3.747,0,0,0-3.741,3.741V71.87a3.744,3.744,0,0,0,.624,2.068H4.812a.838.838,0,0,0-.841.837v3.974a4.814,4.814,0,0,0,4.811,4.807H69.337a4.814,4.814,0,0,0,4.811-4.807V74.775a.838.838,0,0,0-.841-.837Z" fill="#070202"/>
  </g>
</svg>
