<svg xmlns="http://www.w3.org/2000/svg" width="69.999" height="69.999" viewBox="0 0 69.999 69.999">
  <g id="Grupo_1118398" data-name="Grupo 1118398" transform="translate(-608.912 -2270.487)">
    <circle id="Elipse_12943" data-name="Elipse 12943" cx="34.999" cy="34.999" r="34.999" transform="translate(608.912 2270.487)" fill="#41c0f0"/>
    <path id="Trazado_912961" data-name="Trazado 912961" d="M37.925,13.525a.591.591,0,0,1,.591-.591h9.973a.591.591,0,0,1,0,1.183H38.517A.591.591,0,0,1,37.925,13.525Zm.591,3.806h9.951a.591.591,0,0,0,0-1.183H38.517a.591.591,0,0,0,0,1.183Zm10.02,8.459H38.516a.591.591,0,1,0,0,1.183h10.02a.591.591,0,0,0,0-1.183ZM49,33.99H46.609a.591.591,0,0,0,0,1.183H49a.591.591,0,0,0,0-1.183ZM48.717,6.5h-10.2a.591.591,0,1,0,0,1.183h10.2a.591.591,0,1,0,0-1.183Zm-.179,16.073H38.517a.591.591,0,0,0,0,1.183h10.02a.591.591,0,0,0,0-1.183Zm.18-12.859h-10.2a.591.591,0,1,0,0,1.183h10.2a.591.591,0,1,0,0-1.183Zm-.18,9.645H38.517a.591.591,0,0,0,0,1.183h10.02a.591.591,0,1,0,0-1.183Zm19.385-3.1V26.853a.591.591,0,0,1-.591.591h-1.4v7.4a2.128,2.128,0,0,1-2.067,2.18h-11.6V39.9h2.151a1.923,1.923,0,0,1,2.045,1.765v1a.591.591,0,0,1-.591.591H39.745a.591.591,0,0,1-.591-.591v-1A1.923,1.923,0,0,1,41.2,39.9H43.35V37.02h-11.6a2.128,2.128,0,0,1-2.067-2.18V12.65a2.127,2.127,0,0,1,2.067-2.177H35.42V4.263a.591.591,0,0,1,.591-.591h3.08V.591A.591.591,0,0,1,39.683,0H55.131a.591.591,0,0,1,.418.173l4.471,4.471a.592.592,0,0,1,.173.418v5.41h3.674a2.127,2.127,0,0,1,2.067,2.177v3.022h1.4a.591.591,0,0,1,.592.591Zm-7.729-3.329h2.86a.591.591,0,0,1,.591.591v2.146h1.107V12.65a.945.945,0,0,0-.884-.994H60.194Zm0,1.183v1.555h2.268V14.118ZM55.722,4.471h2.452L55.722,2.02Zm-15.448-.8H51.459a.592.592,0,0,1,.418.173l4.472,4.472a.592.592,0,0,1,.173.418v6.938h2.488V5.655h-3.88a.591.591,0,0,1-.591-.591V1.183H40.275Zm11.776,2.02V8.143H54.5ZM36.6,28.623H55.339V27.445h-4.4a.591.591,0,0,1-.591-.591V16.264a.591.591,0,0,1,.591-.591h4.4V9.326h-3.88a.591.591,0,0,1-.591-.591V4.855H36.6Zm-1.183.591v-15.1H33.152V32.146h29.31v-4.7h-5.94v1.77a.591.591,0,0,1-.591.591H36.011a.591.591,0,0,1-.592-.591ZM41.2,41.082c-.459,0-.862.272-.862.582v.412H55.277v-.412c0-.31-.4-.582-.862-.582ZM51.081,39.9V37.02H44.533V39.9Zm13.67-12.454H63.645v5.293a.591.591,0,0,1-.591.591H32.56a.591.591,0,0,1-.591-.591V13.527a.591.591,0,0,1,.591-.591h2.86V11.657H31.746a.945.945,0,0,0-.884.994V34.84a.946.946,0,0,0,.884,1H63.868a.946.946,0,0,0,.884-1Zm1.988-10.588H51.526v9.4H66.739Zm-6.694,1.3a.591.591,0,0,0-.725.418L57.8,24.238a.592.592,0,0,0,1.143.306l1.518-5.662a.591.591,0,0,0-.418-.725Zm-3.679,1.458a.591.591,0,0,0-.835-.056l-1.777,1.555a.591.591,0,0,0,0,.891l1.777,1.555a.592.592,0,1,0,.779-.891l-1.268-1.109,1.268-1.109a.591.591,0,0,0,.056-.836Zm8.145,1.5L62.734,19.56a.592.592,0,1,0-.779.891l1.268,1.109-1.268,1.109a.592.592,0,1,0,.779.891l1.777-1.555a.591.591,0,0,0,0-.891Z" transform="translate(595.111 2284.356)" fill="#114d74"/>
  </g>
</svg>
