<svg xmlns="http://www.w3.org/2000/svg" width="65.999" height="65.999" viewBox="0 0 65.999 65.999">
  <g id="Grupo_1118396" data-name="Grupo 1118396" transform="translate(-192.052 -974.922)">
    <g id="Grupo_1118393" data-name="Grupo 1118393">
      <circle id="Elipse_12940" data-name="Elipse 12940" cx="32.999" cy="32.999" r="32.999" transform="translate(192.052 974.922)" fill="#41c0f0"/>
      <g id="Grupo_1118235" data-name="Grupo 1118235" transform="translate(203.982 987.932)">
        <path id="Trazado_912914" data-name="Trazado 912914" d="M37.9,6.826h-7.99l.315-.314a.647.647,0,0,0,0-.915L27.477,2.85a.665.665,0,0,0-.915,0l-.712.712a9.63,9.63,0,0,0-2.192-.913v-1A.647.647,0,0,0,23.01,1H19.126a.647.647,0,0,0-.647.647v1a9.63,9.63,0,0,0-2.193.911l-.712-.712a.647.647,0,0,0-.915,0L11.913,5.6a.647.647,0,0,0,0,.915l.315.314H4.237A3.241,3.241,0,0,0,1,10.062V30.131a3.241,3.241,0,0,0,3.237,3.237H16.784l-1.295,2.589h-.895a3.241,3.241,0,0,0-3.237,3.237A1.942,1.942,0,0,0,13.3,41.137H28.837a1.942,1.942,0,0,0,1.942-1.942,3.241,3.241,0,0,0-3.237-3.237h-.895l-1.295-2.589H37.9a3.241,3.241,0,0,0,3.237-3.237V10.063A3.241,3.241,0,0,0,37.9,6.826Zm-22.782-2.6.611.612a.647.647,0,0,0,.808.087,8.33,8.33,0,0,1,2.729-1.134.647.647,0,0,0,.508-.632V2.295h2.589v.861a.647.647,0,0,0,.509.633A8.33,8.33,0,0,1,25.6,4.922a.647.647,0,0,0,.807-.087l.611-.612L28.85,6.055l-.612.611a.647.647,0,0,0-.087.808A8.351,8.351,0,0,1,29.285,10.2a.647.647,0,0,0,.632.509h.861V13.3h-.861a.647.647,0,0,0-.633.509,8.351,8.351,0,0,1-1.134,2.728.647.647,0,0,0,.087.808l.612.611-1.831,1.831-.611-.612a.647.647,0,0,0-.808-.087,8.326,8.326,0,0,1-2.729,1.134.647.647,0,0,0-.509.632v.862H19.774v-.862a.647.647,0,0,0-.509-.632,8.326,8.326,0,0,1-2.728-1.134.647.647,0,0,0-.807.087l-.611.612-1.831-1.831.612-.611a.647.647,0,0,0,.087-.808,8.351,8.351,0,0,1-1.134-2.728.647.647,0,0,0-.632-.509h-.861V10.71h.861a.647.647,0,0,0,.632-.509,8.351,8.351,0,0,1,1.134-2.728.647.647,0,0,0-.087-.808l-.612-.611ZM4.237,8.121h7.947a9.611,9.611,0,0,0-.471,1.295h-1a.647.647,0,0,0-.647.647v3.884a.647.647,0,0,0,.647.647h1a9.646,9.646,0,0,0,.911,2.193l-.712.712a.647.647,0,0,0,0,.915l2.747,2.745a.665.665,0,0,0,.915,0l.712-.712a9.63,9.63,0,0,0,2.192.913v1a.647.647,0,0,0,.647.647H23.01a.647.647,0,0,0,.647-.647v-1a9.63,9.63,0,0,0,2.193-.911l.712.712a.647.647,0,0,0,.915,0l2.745-2.747a.647.647,0,0,0,0-.915l-.712-.712a9.646,9.646,0,0,0,.912-2.192h1a.647.647,0,0,0,.647-.647V10.063a.647.647,0,0,0-.647-.647h-1a9.611,9.611,0,0,0-.471-1.295H37.9a1.942,1.942,0,0,1,1.942,1.942V27.542H2.295V10.063A1.942,1.942,0,0,1,4.237,8.121ZM29.484,39.195a.647.647,0,0,1-.647.647H13.3a.647.647,0,0,1-.647-.647,1.942,1.942,0,0,1,1.942-1.942H27.542A1.942,1.942,0,0,1,29.484,39.195ZM25.2,35.958H16.937l1.295-2.589h5.674Zm12.7-3.884H4.237a1.942,1.942,0,0,1-1.942-1.942V28.837H39.842v1.295A1.942,1.942,0,0,1,37.9,32.074Z" fill="#114d74"/>
        <rect id="Rectángulo_410437" data-name="Rectángulo 410437" width="2" height="2" transform="translate(20.068 29.068)" fill="#114d74"/>
        <path id="Trazado_912915" data-name="Trazado 912915" d="M28.474,20.947A6.474,6.474,0,1,0,22,14.474a6.474,6.474,0,0,0,6.474,6.474Zm0-11.653a5.179,5.179,0,1,1-5.179,5.179A5.179,5.179,0,0,1,28.474,9.295Z" transform="translate(-7.405 -2.468)" fill="#114d74"/>
        <path id="Trazado_912916" data-name="Trazado 912916" d="M23.156,34.979c-.371-.17-.738-.361-1.091-.566l-.654,1.117a13.3,13.3,0,0,0,1.206.626Z" transform="translate(-7.198 -11.783)" fill="#114d74"/>
        <path id="Trazado_912917" data-name="Trazado 912917" d="M30.7,36.941c-.409-.012-.822-.044-1.225-.1l-.164,1.284c.446.057.9.093,1.352.106Z" transform="translate(-9.983 -12.641)" fill="#114d74"/>
        <path id="Trazado_912918" data-name="Trazado 912918" d="M26.829,36.326a12.2,12.2,0,0,1-1.181-.337l-.417,1.226c.428.145.867.271,1.306.372Z" transform="translate(-8.545 -12.338)" fill="#114d74"/>
        <path id="Trazado_912919" data-name="Trazado 912919" d="M38.729,36.918l-.47-1.207c-.381.148-.777.279-1.165.388l.346,1.247C37.875,37.226,38.308,37.081,38.729,36.918Z" transform="translate(-12.728 -12.24)" fill="#114d74"/>
        <path id="Trazado_912920" data-name="Trazado 912920" d="M42.392,35.075l-.7-1.088a12.173,12.173,0,0,1-1.065.612l.588,1.154a13.4,13.4,0,0,0,1.178-.678Z" transform="translate(-13.973 -11.632)" fill="#114d74"/>
        <path id="Trazado_912921" data-name="Trazado 912921" d="M34.8,38.005l-.219-1.275c-.4.069-.813.118-1.22.147l.091,1.295C33.9,38.135,34.351,38.078,34.8,38.005Z" transform="translate(-11.41 -12.6)" fill="#114d74"/>
        <path id="Trazado_912922" data-name="Trazado 912922" d="M19.84,32.953a12.17,12.17,0,0,1-.956-.772l-.863.965A13.4,13.4,0,0,0,19.079,34Z" transform="translate(-6.002 -10.995)" fill="#114d74"/>
        <path id="Trazado_912923" data-name="Trazado 912923" d="M12,24.181l1.219-.435a12.171,12.171,0,0,1-.353-1.176l-1.257.309a13.207,13.207,0,0,0,.392,1.3Z" transform="translate(-3.742 -7.606)" fill="#114d74"/>
        <path id="Trazado_912924" data-name="Trazado 912924" d="M13.664,27.891l1.108-.669a12.276,12.276,0,0,1-.583-1.082l-1.168.557a13.093,13.093,0,0,0,.643,1.194Z" transform="translate(-4.239 -8.865)" fill="#114d74"/>
        <path id="Trazado_912925" data-name="Trazado 912925" d="M16.054,31.207l.954-.876c-.278-.3-.542-.621-.787-.946l-1.036.777C15.454,30.522,15.748,30.873,16.054,31.207Z" transform="translate(-5.002 -10.01)" fill="#114d74"/>
        <path id="Trazado_912926" data-name="Trazado 912926" d="M12.424,20.039c-.057-.4-.1-.816-.112-1.225l-1.295.054c.019.453.06.906.124,1.352Z" transform="translate(-3.532 -6.282)" fill="#114d74"/>
        <path id="Trazado_912927" data-name="Trazado 912927" d="M52.262,18H50.967c0,.409-.02.823-.06,1.23l1.288.129Q52.262,18.68,52.262,18Z" transform="translate(-17.599 -5.995)" fill="#114d74"/>
        <path id="Trazado_912928" data-name="Trazado 912928" d="M48.349,29.457l-1.068-.732c-.23.335-.48.664-.744.979l.99.834a13.521,13.521,0,0,0,.823-1.081Z" transform="translate(-16.058 -9.777)" fill="#114d74"/>
        <path id="Trazado_912929" data-name="Trazado 912929" d="M50.408,25.9l-1.192-.5c-.159.375-.339.747-.535,1.106l1.137.621C50.034,26.728,50.232,26.317,50.408,25.9Z" transform="translate(-16.814 -8.604)" fill="#114d74"/>
        <path id="Trazado_912930" data-name="Trazado 912930" d="M51.729,22.029,50.46,21.77c-.08.4-.182.8-.3,1.192l1.238.38C51.527,22.911,51.64,22.469,51.729,22.029Z" transform="translate(-17.334 -7.324)" fill="#114d74"/>
        <path id="Trazado_912931" data-name="Trazado 912931" d="M45.639,32.554l-.906-.928c-.293.285-.6.558-.923.812l.806,1.014C44.969,33.171,45.315,32.87,45.639,32.554Z" transform="translate(-15.096 -10.8)" fill="#114d74"/>
        <path id="Trazado_912932" data-name="Trazado 912932" d="M28.237,20.121a.647.647,0,0,0,.458-.19L33.226,15.4a.647.647,0,0,0,0-.915L31.931,13.19a.647.647,0,0,0-.915,0l-2.779,2.779-.837-.837a.647.647,0,0,0-.915,0L25.19,16.427a.647.647,0,0,0,0,.915l2.589,2.589A.647.647,0,0,0,28.237,20.121ZM26.942,16.5l.837.837a.647.647,0,0,0,.915,0l2.779-2.779.379.379-3.616,3.616-1.674-1.674Z" transform="translate(-8.463 -4.232)" fill="#114d74"/>
      </g>
    </g>
  </g>
</svg>
