<?xml version="1.0" encoding="utf-8"?>
<!-- Generator: Adobe Illustrator 28.0.0, SVG Export Plug-In . SVG Version: 6.00 Build 0)  -->
<svg version="1.1" id="Capa_1" xmlns="http://www.w3.org/2000/svg" xmlns:xlink="http://www.w3.org/1999/xlink" x="0px" y="0px"
	 viewBox="0 0 439.7 209" style="enable-background:new 0 0 439.7 209;" xml:space="preserve">
<style type="text/css">
	.st0{fill:#41C0F0;}
	.st1{fill:none;}
	.st2{fill:none;stroke:#114D74;stroke-width:2;}
	.st3{fill:#12263F;}
	.st4{font-family:'Roboto-Regular';}
	.st5{font-size:16px;}
	.st6{fill:#FFFFFF;}
	.st7{font-family:'Roboto-Bold';}
	.st8{font-size:18px;}
</style>
<g id="Grupo_1118396" transform="translate(-580.757 -2151.968)">
	<rect id="Rectángulo_405226" x="580.8" y="2152" class="st0" width="439.7" height="45"/>
	<g id="Rectángulo_405224" transform="translate(580.757 2151.968)">
		<rect y="0" class="st1" width="439.7" height="209"/>
		<rect x="1" y="1" class="st2" width="437.7" height="207"/>
	</g>
	<path id="Trazado_903760" class="st2" d="M580.8,2237h436.4"/>
	<path id="Trazado_903763" class="st2" d="M580.8,2277h436.4"/>
	<path id="Trazado_912572" class="st2" d="M580.8,2317h436.4"/>
	<text transform="matrix(1 0 0 1 595.525 2220.7661)" class="st3 st4 st5"> Funcionalidad</text>
	<text transform="matrix(1 0 0 1 749.525 2220.7661)" class="st3 st4 st5">Alta cobertura</text>
	<text transform="matrix(1 0 0 1 892.6333 2220.926)" class="st3 st4 st5">Buena cobertura</text>
	<text transform="matrix(1 0 0 1 595.525 2262.968)" class="st3 st4 st5"> Fiabilidad</text>
	<text transform="matrix(1 0 0 1 749.525 2262.968)" class="st3 st4 st5">Muy estable</text>
	<text transform="matrix(1 0 0 1 885.8356 2263.1277)" class="st3 st4 st5">Estable con caída</text>
	<text transform="matrix(1 0 0 1 595.525 2302.968)" class="st3 st4 st5">Usabilidad</text>
	<text transform="matrix(1 0 0 1 749.525 2302.968)" class="st3 st4 st5"> Intuitiva</text>
	<text transform="matrix(1 0 0 1 891.7032 2302.968)" class="st3 st4 st5">Clásica</text>
	<text transform="matrix(1 0 0 1 595.525 2342.968)" class="st3 st4 st5">Eficiencia</text>
	<text transform="matrix(1 0 0 1 749.525 2342.968)" class="st3 st4 st5">Óptimo</text>
	<text transform="matrix(1 0 0 1 890.3824 2343.1277)" class="st3 st4 st5">Ligero consumo</text>
	<path id="Trazado_903769" class="st2" d="M729.5,2152v209"/>
	<path id="Trazado_912573" class="st2" d="M880.5,2152v209"/>
	<path id="Trazado_903770" class="st2" d="M580.8,2197h436.4"/>
	<text transform="matrix(1 0 0 1 628.62 2182.7661)" class="st6 st7 st8">Atributo</text>
	<text transform="matrix(1 0 0 1 779.327 2182.7661)" class="st6 st7 st8">Adobe</text>
	<text transform="matrix(1 0 0 1 928.665 2182.7661)" class="st6 st7 st8">Corel</text>
</g>
</svg>
